{"glyphs":{"0":{"ha":896,"x_min":76,"x_max":819,"o":"m 447 -19 q 719 77 618 -19 q 819 368 819 174 l 819 604 q 719 893 819 794 q 447 992 618 992 q 177 893 278 992 q 76 604 76 794 l 76 368 q 177 77 76 174 q 447 -19 278 -19 m 447 111 q 278 176 335 111 q 222 363 222 240 l 222 613 q 281 795 222 729 q 447 861 339 861 q 614 797 554 861 q 674 613 674 732 l 674 363 q 618 177 674 243 q 447 111 563 111 "},"1":{"ha":604,"x_min":21,"x_max":503,"o":"m 357 0 l 503 0 l 503 972 l 236 972 l 21 542 l 175 542 l 335 869 l 357 869 l 357 0 "},"2":{"ha":831,"x_min":67,"x_max":771,"o":"m 67 0 l 763 0 l 763 131 l 214 131 l 214 144 q 233 226 214 194 q 291 281 251 258 q 396 324 331 304 l 478 349 q 630 417 564 376 q 733 519 696 457 q 771 676 771 582 l 771 689 q 726 849 771 781 q 602 954 681 917 q 424 992 524 992 q 243 953 324 992 q 117 841 163 914 q 71 663 71 768 l 71 642 l 215 642 l 215 664 q 273 811 215 761 q 424 861 331 861 q 569 815 514 861 q 625 686 625 768 l 625 681 q 603 588 625 628 q 540 522 581 549 q 442 478 499 496 l 357 451 q 201 383 265 424 q 101 276 136 342 q 67 110 67 211 l 67 0 "},"3":{"ha":842,"x_min":56,"x_max":779,"o":"m 422 -19 q 610 19 529 -19 q 735 126 690 57 q 779 288 779 194 l 779 304 q 738 449 779 392 q 632 533 697 506 q 493 561 567 561 l 433 561 l 433 581 l 760 775 l 760 972 l 79 972 l 79 842 l 601 842 l 601 822 l 260 621 l 260 453 l 436 453 q 536 437 492 453 q 607 388 581 421 q 633 300 633 354 l 633 288 q 578 161 633 211 q 422 111 522 111 q 262 165 322 111 q 201 310 201 218 l 201 332 l 56 332 l 56 307 q 102 132 56 206 q 232 19 149 58 q 422 -19 315 -19 "},"4":{"ha":875,"x_min":40,"x_max":842,"o":"m 532 0 l 678 0 l 678 199 l 842 199 l 842 328 l 678 328 l 678 972 l 413 972 l 40 368 l 40 199 l 532 199 l 532 0 m 182 328 l 182 347 l 510 881 l 532 881 l 532 328 l 182 328 "},"5":{"ha":832,"x_min":61,"x_max":776,"o":"m 419 -19 q 610 22 531 -19 q 733 139 690 64 q 776 315 776 214 l 776 331 q 735 503 776 432 q 623 612 693 575 q 467 649 553 649 q 367 635 408 649 q 299 599 325 621 q 260 554 274 578 l 238 554 l 238 840 l 743 840 l 743 972 l 92 972 l 92 438 l 276 438 q 308 478 289 457 q 358 513 326 499 q 436 528 389 528 q 576 474 521 528 q 631 329 631 419 l 631 317 q 575 167 631 222 q 418 111 519 111 q 265 165 319 111 q 210 307 210 218 l 210 321 l 61 321 l 61 306 q 105 135 61 208 q 229 21 149 61 q 419 -19 310 -19 "},"6":{"ha":854,"x_min":76,"x_max":792,"o":"m 432 -19 q 619 21 538 -19 q 746 134 700 61 q 792 303 792 207 l 792 319 q 748 488 792 418 q 632 594 704 557 q 474 632 560 632 q 322 601 375 632 q 244 538 268 571 l 222 538 l 222 654 q 278 806 222 751 q 439 861 335 861 q 590 813 542 861 q 638 693 638 765 l 785 693 q 743 851 785 783 q 624 955 701 918 q 439 992 546 992 q 249 952 331 992 q 122 835 167 913 q 76 643 76 757 l 76 307 q 121 136 76 210 q 246 22 165 63 q 432 -19 326 -19 m 433 111 q 280 164 338 111 q 222 306 222 217 l 222 317 q 249 420 222 376 q 323 489 275 464 q 433 514 371 514 q 545 489 497 514 q 619 420 593 464 q 646 317 646 376 l 646 306 q 588 164 646 217 q 433 111 531 111 "},"7":{"ha":776,"x_min":40,"x_max":738,"o":"m 196 0 l 342 0 l 342 29 q 349 90 342 65 q 372 144 356 114 l 738 800 l 738 972 l 40 972 l 40 842 l 586 842 l 586 824 l 239 206 q 204 123 213 158 q 196 35 196 88 l 196 0 "},"8":{"ha":849,"x_min":51,"x_max":797,"o":"m 425 -19 q 620 14 536 -19 q 751 110 704 47 q 797 258 797 174 l 797 274 q 771 388 797 343 q 706 459 744 433 q 631 493 667 485 l 631 515 q 701 551 667 525 q 759 619 736 576 q 782 721 782 661 l 782 736 q 737 871 782 814 q 611 960 692 928 q 425 992 531 992 q 238 960 318 992 q 112 871 157 928 q 67 736 67 814 l 67 721 q 90 619 67 661 q 149 551 113 576 q 219 515 185 525 l 219 493 q 145 459 185 485 q 78 388 106 433 q 51 274 51 343 l 51 258 q 98 110 51 174 q 228 14 144 47 q 425 -19 313 -19 m 425 111 q 258 152 318 111 q 197 267 197 193 l 197 278 q 257 394 197 353 q 425 435 317 435 q 592 394 533 435 q 651 278 651 353 l 651 267 q 591 152 651 193 q 425 111 531 111 m 425 565 q 269 603 325 565 q 213 708 213 640 l 213 719 q 269 824 213 788 q 425 861 326 861 q 579 824 522 861 q 636 719 636 788 l 636 708 q 580 603 636 640 q 425 565 524 565 "},"9":{"ha":854,"x_min":64,"x_max":778,"o":"m 417 -19 q 606 20 525 -19 q 733 138 688 60 q 778 329 778 215 l 778 665 q 733 837 778 764 q 609 951 689 910 q 422 992 529 992 q 235 951 317 992 q 109 839 154 911 q 64 669 64 767 l 64 653 q 108 485 64 556 q 224 378 151 415 q 381 340 296 340 q 533 371 481 340 q 610 435 586 401 l 632 435 l 632 318 q 576 167 632 222 q 417 111 521 111 q 266 159 314 111 q 218 279 218 207 l 69 279 q 111 122 69 189 q 231 17 153 54 q 417 -19 308 -19 m 421 458 q 309 483 357 458 q 235 552 261 508 q 210 656 210 596 l 210 667 q 267 809 210 757 q 421 861 325 861 q 574 809 517 861 q 632 667 632 757 l 632 656 q 606 552 632 596 q 532 483 579 508 q 421 458 485 458 "},"\r":{"ha":833,"x_min":0,"x_max":0,"o":""}," ":{"ha":354,"x_min":0,"x_max":0,"o":""},"A":{"ha":878,"x_min":29,"x_max":847,"o":"m 29 0 l 185 0 l 249 229 l 629 229 l 693 0 l 847 0 l 571 972 l 307 972 l 29 0 m 286 368 l 428 879 l 450 879 l 592 368 l 286 368 "},"B":{"ha":921,"x_min":65,"x_max":854,"o":"m 65 0 l 561 0 q 713 31 647 0 q 817 118 779 61 q 854 256 854 175 l 854 269 q 828 382 854 339 q 766 449 803 425 q 697 482 729 474 l 697 504 q 765 538 729 514 q 825 604 800 561 q 850 714 850 647 l 850 728 q 813 858 850 803 q 711 942 776 913 q 558 972 646 972 l 65 972 l 65 839 l 196 839 l 196 133 l 65 133 l 65 0 m 347 136 l 347 421 l 543 421 q 662 385 619 421 q 704 285 704 349 l 704 272 q 661 172 704 208 q 543 136 618 136 l 347 136 m 347 558 l 347 836 l 543 836 q 658 801 615 836 q 700 704 700 765 l 700 690 q 657 594 700 629 q 543 558 614 558 l 347 558 "},"C":{"ha":893,"x_min":76,"x_max":828,"o":"m 463 -19 q 733 78 638 -19 q 828 343 828 175 l 828 363 l 679 363 l 679 339 q 626 178 679 242 q 463 115 572 115 q 289 183 351 115 q 226 369 226 251 l 226 603 q 289 790 226 722 q 463 857 351 857 q 626 794 572 857 q 679 633 679 732 l 679 621 l 828 621 l 828 629 q 733 894 828 797 q 463 992 638 992 q 181 891 285 992 q 76 600 76 790 l 76 372 q 181 81 76 182 q 463 -19 285 -19 "},"D":{"ha":924,"x_min":65,"x_max":856,"o":"m 65 0 l 454 0 q 752 98 649 0 q 856 394 856 196 l 856 576 q 752 874 856 775 q 454 972 649 972 l 65 972 l 65 839 l 196 839 l 196 133 l 65 133 l 65 0 m 347 136 l 347 835 l 456 835 q 643 772 582 835 q 704 582 704 710 l 704 390 q 643 200 704 264 q 456 136 582 136 l 347 136 "},"E":{"ha":776,"x_min":101,"x_max":721,"o":"m 101 0 l 721 0 l 721 136 l 251 136 l 251 421 l 675 421 l 675 557 l 251 557 l 251 836 l 714 836 l 714 972 l 101 972 l 101 0 "},"F":{"ha":746,"x_min":101,"x_max":701,"o":"m 101 0 l 251 0 l 251 419 l 665 419 l 665 556 l 251 556 l 251 836 l 701 836 l 701 972 l 101 972 l 101 0 "},"G":{"ha":918,"x_min":76,"x_max":826,"o":"m 439 -19 q 559 -1 514 -19 q 628 44 604 17 q 665 99 653 72 l 688 99 l 688 0 l 826 0 l 826 481 l 417 481 l 417 351 l 678 351 l 678 333 q 626 175 678 236 q 464 114 575 114 q 289 183 351 114 q 226 369 226 251 l 226 603 q 289 790 226 722 q 463 857 351 857 q 583 829 536 857 q 654 753 631 801 q 678 646 678 706 l 678 635 l 826 635 l 826 642 q 732 897 826 801 q 463 992 638 992 q 181 891 285 992 q 76 600 76 790 l 76 372 q 124 158 76 246 q 253 26 171 71 q 439 -19 335 -19 "},"H":{"ha":911,"x_min":101,"x_max":810,"o":"m 101 0 l 251 0 l 251 419 l 660 419 l 660 0 l 810 0 l 810 972 l 660 972 l 660 556 l 251 556 l 251 972 l 101 972 l 101 0 "},"I":{"ha":353,"x_min":101,"x_max":251,"o":"m 101 0 l 251 0 l 251 972 l 101 972 l 101 0 "},"J":{"ha":836,"x_min":50,"x_max":776,"o":"m 368 -19 q 590 60 511 -19 q 668 292 668 140 l 668 836 l 776 836 l 776 972 l 349 972 l 349 836 l 518 836 l 518 292 q 481 167 518 213 q 365 121 443 121 q 242 167 285 121 q 200 292 200 214 l 200 375 l 50 375 l 50 292 q 136 62 50 143 q 368 -19 222 -19 "},"K":{"ha":858,"x_min":101,"x_max":847,"o":"m 101 0 l 251 0 l 251 413 l 274 413 l 646 0 l 847 0 l 393 493 l 832 972 l 636 972 l 274 568 l 251 568 l 251 972 l 101 972 l 101 0 "},"L":{"ha":756,"x_min":101,"x_max":719,"o":"m 101 0 l 719 0 l 719 136 l 251 136 l 251 972 l 101 972 l 101 0 "},"M":{"ha":1214,"x_min":101,"x_max":1113,"o":"m 101 0 l 247 0 l 247 867 l 269 867 l 481 0 l 733 0 l 944 867 l 967 867 l 967 0 l 1113 0 l 1113 972 l 831 972 l 618 100 l 596 100 l 383 972 l 101 972 l 101 0 "},"N":{"ha":926,"x_min":101,"x_max":825,"o":"m 101 0 l 250 0 l 250 874 l 272 874 l 536 0 l 825 0 l 825 972 l 676 972 l 676 100 l 654 100 l 390 972 l 101 972 l 101 0 "},"O":{"ha":935,"x_min":76,"x_max":858,"o":"m 467 -19 q 752 81 646 -19 q 858 372 858 182 l 858 600 q 752 891 858 790 q 467 992 646 992 q 182 891 288 992 q 76 600 76 790 l 76 372 q 182 81 76 182 q 467 -19 288 -19 m 467 115 q 290 183 354 115 q 226 367 226 250 l 226 606 q 290 790 226 722 q 467 857 354 857 q 644 790 582 857 q 707 606 707 722 l 707 367 q 644 183 707 250 q 467 115 582 115 "},"P":{"ha":838,"x_min":101,"x_max":796,"o":"m 101 0 l 251 0 l 251 374 l 488 374 q 644 408 575 374 q 755 508 714 443 q 796 664 796 574 l 796 682 q 756 837 796 772 q 647 937 717 901 q 488 972 576 972 l 101 972 l 101 0 m 251 510 l 251 836 l 472 836 q 599 794 551 836 q 646 679 646 753 l 646 665 q 599 551 646 593 q 472 510 551 510 l 251 510 "},"Q":{"ha":935,"x_min":76,"x_max":858,"o":"m 467 -19 q 752 81 646 -19 q 858 372 858 182 l 858 600 q 752 891 858 790 q 467 992 646 992 q 182 891 288 992 q 76 600 76 790 l 76 372 q 182 81 76 182 q 467 -19 288 -19 m 467 115 q 290 183 354 115 q 226 367 226 250 l 226 606 q 290 790 226 722 q 467 857 354 857 q 644 790 582 857 q 707 606 707 722 l 707 367 q 644 183 707 250 q 467 115 582 115 m 526 -237 l 665 -237 l 665 -118 l 579 -118 q 540 -76 540 -118 l 540 0 l 393 0 l 393 -101 q 430 -201 393 -164 q 526 -237 467 -237 "},"R":{"ha":878,"x_min":101,"x_max":814,"o":"m 101 0 l 251 0 l 251 383 l 547 383 q 610 361 590 383 q 629 301 629 339 l 629 0 l 781 0 l 781 322 q 749 416 781 383 q 664 451 717 449 l 664 474 q 770 551 726 496 q 814 697 814 606 l 814 713 q 776 851 814 793 q 669 941 738 910 q 510 972 600 972 l 101 972 l 101 0 m 251 519 l 251 836 l 493 836 q 619 795 575 836 q 663 683 663 754 l 663 672 q 618 560 663 601 q 493 519 574 519 l 251 519 "},"S":{"ha":846,"x_min":57,"x_max":790,"o":"m 432 -19 q 622 17 542 -19 q 747 119 703 54 q 790 272 790 185 q 749 415 790 360 q 635 503 707 471 q 468 557 563 536 l 417 569 q 313 601 354 583 q 249 648 271 619 q 228 721 228 676 q 277 823 228 786 q 415 860 326 860 q 522 842 476 860 q 594 785 568 824 q 619 683 619 746 l 619 633 l 768 633 l 768 683 q 722 854 768 786 q 597 957 676 922 q 415 992 517 992 q 239 958 314 992 q 122 864 164 925 q 79 717 79 803 q 117 578 79 632 q 223 491 154 524 q 385 436 292 458 l 436 424 q 546 391 500 408 q 617 344 592 374 q 642 269 642 315 q 589 156 642 200 q 432 113 536 113 q 267 164 329 113 q 206 318 206 215 l 206 353 l 57 353 l 57 318 q 105 134 57 210 q 238 19 153 58 q 432 -19 322 -19 "},"T":{"ha":817,"x_min":35,"x_max":782,"o":"m 333 0 l 483 0 l 483 836 l 782 836 l 782 972 l 35 972 l 35 836 l 333 836 l 333 0 "},"U":{"ha":929,"x_min":94,"x_max":835,"o":"m 465 -19 q 663 22 579 -19 q 790 142 746 64 q 835 333 835 221 l 835 972 l 685 972 l 685 329 q 628 171 685 226 q 465 115 571 115 q 303 171 360 115 q 246 329 246 226 l 246 972 l 94 972 l 94 333 q 140 142 94 221 q 267 22 185 64 q 465 -19 350 -19 "},"V":{"ha":860,"x_min":29,"x_max":829,"o":"m 300 0 l 560 0 l 829 972 l 674 972 l 439 94 l 421 94 l 185 972 l 29 972 l 300 0 "},"W":{"ha":1232,"x_min":46,"x_max":1185,"o":"m 189 0 l 453 0 l 604 883 l 626 883 l 779 0 l 1042 0 l 1185 972 l 1035 972 l 919 101 l 897 101 l 747 972 l 485 972 l 335 101 l 313 101 l 196 972 l 46 972 l 189 0 "},"X":{"ha":890,"x_min":38,"x_max":853,"o":"m 38 0 l 210 0 l 433 383 l 456 383 l 679 0 l 853 0 l 554 490 l 849 972 l 676 972 l 456 597 l 433 597 l 214 972 l 42 972 l 336 490 l 38 0 "},"Y":{"ha":857,"x_min":15,"x_max":842,"o":"m 353 0 l 504 0 l 504 353 l 842 972 l 672 972 l 439 532 l 418 532 l 185 972 l 15 972 l 353 353 l 353 0 "},"Z":{"ha":801,"x_min":67,"x_max":738,"o":"m 67 0 l 738 0 l 738 135 l 221 135 l 221 154 l 732 778 l 732 972 l 82 972 l 82 838 l 578 838 l 578 818 l 67 194 l 67 0 "},"a":{"ha":801,"x_min":61,"x_max":768,"o":"m 318 -19 q 432 1 389 -19 q 497 49 475 21 q 531 97 519 76 l 551 97 l 551 93 q 582 25 551 50 q 661 0 613 0 l 768 0 l 768 119 l 710 119 q 671 161 671 119 l 671 443 q 594 636 671 568 q 385 704 518 704 q 238 676 299 704 q 140 603 176 649 q 86 503 103 558 l 219 460 q 271 550 232 515 q 383 585 310 585 q 494 549 458 585 q 531 453 531 513 l 531 408 l 322 408 q 188 385 247 408 q 95 315 129 361 q 61 197 61 268 q 95 79 61 128 q 187 6 129 31 q 318 -19 244 -19 m 339 99 q 240 126 276 99 q 204 201 204 154 q 239 273 204 249 q 331 297 274 297 l 531 297 l 531 283 q 478 148 531 197 q 339 99 425 99 "},"b":{"ha":890,"x_min":106,"x_max":818,"o":"m 501 -19 q 659 22 588 -19 q 774 142 731 64 q 818 332 818 221 l 818 353 q 775 542 818 463 q 660 663 732 621 q 501 704 588 704 q 389 688 435 704 q 315 645 343 671 q 271 592 288 619 l 249 592 l 249 972 l 106 972 l 106 0 l 246 0 l 246 97 l 268 97 q 348 17 294 53 q 501 -19 401 -19 m 460 106 q 308 165 368 106 q 247 336 247 225 l 247 349 q 308 518 247 458 q 460 578 368 578 q 614 518 554 578 q 674 349 674 458 l 674 336 q 613 165 674 225 q 460 106 553 106 "},"c":{"ha":822,"x_min":72,"x_max":763,"o":"m 424 -19 q 592 16 522 -19 q 703 111 661 51 q 763 242 746 171 l 624 274 q 564 155 611 201 q 426 108 517 108 q 319 135 367 108 q 243 213 271 161 q 215 336 215 264 l 215 349 q 243 472 215 421 q 319 549 271 522 q 426 576 367 576 q 528 554 488 576 q 590 494 568 532 q 619 411 613 457 l 758 440 q 703 572 746 513 q 592 668 661 632 q 424 704 522 704 q 245 662 325 704 q 119 541 165 619 q 72 351 72 463 l 72 333 q 119 143 72 222 q 245 22 165 64 q 424 -19 325 -19 "},"d":{"ha":890,"x_min":72,"x_max":785,"o":"m 389 -19 q 542 17 489 -19 q 622 97 596 53 l 644 97 l 644 0 l 785 0 l 785 972 l 642 972 l 642 592 l 619 592 q 575 645 604 619 q 501 688 546 671 q 389 704 456 704 q 231 663 303 704 q 115 542 158 621 q 72 353 72 463 l 72 332 q 116 142 72 221 q 232 22 160 64 q 389 -19 304 -19 m 429 106 q 277 165 338 106 q 217 336 217 225 l 217 349 q 277 518 217 458 q 429 578 338 578 q 583 518 524 578 q 643 349 643 458 l 643 336 q 583 165 643 225 q 429 106 522 106 "},"e":{"ha":811,"x_min":72,"x_max":744,"o":"m 419 -19 q 572 10 513 -19 q 669 82 632 39 q 725 164 706 125 l 607 225 q 544 142 585 178 q 422 106 503 106 q 278 159 336 106 q 218 303 221 213 l 744 303 l 744 357 q 703 539 744 461 q 587 660 661 617 q 414 704 513 704 q 235 660 313 704 q 115 537 158 617 q 72 350 72 457 l 72 333 q 116 148 72 228 q 238 24 160 68 q 419 -19 315 -19 m 219 413 q 281 534 231 490 q 413 578 332 578 q 543 534 493 578 q 599 413 593 490 l 219 413 "},"f":{"ha":610,"x_min":38,"x_max":569,"o":"m 229 0 l 372 0 l 372 564 l 569 564 l 569 685 l 372 685 l 372 810 q 413 851 372 851 l 543 851 l 543 972 l 367 972 q 267 935 304 972 q 229 835 229 897 l 229 685 l 38 685 l 38 564 l 229 564 l 229 0 "},"g":{"ha":889,"x_min":72,"x_max":783,"o":"m 72 339 q 115 155 72 232 q 231 37 158 78 q 390 -4 304 -4 q 503 13 458 -4 q 576 56 549 29 q 619 107 604 82 l 642 107 l 642 -111 q 601 -153 642 -153 l 185 -153 l 185 -278 l 646 -278 q 747 -240 710 -278 q 783 -140 783 -203 l 783 685 l 644 685 l 644 586 l 622 586 q 544 667 597 629 q 390 704 490 704 q 232 663 304 704 q 116 544 160 621 q 72 360 72 468 l 72 339 m 429 121 q 277 180 338 121 q 217 343 217 239 l 217 356 q 277 520 217 463 q 429 578 338 578 q 583 520 524 578 q 643 356 643 463 l 643 343 q 583 180 643 239 q 429 121 522 121 "},"h":{"ha":854,"x_min":106,"x_max":754,"o":"m 106 0 l 249 0 l 249 346 q 302 515 249 457 q 444 574 356 574 q 567 531 522 574 q 611 400 611 489 l 611 0 l 754 0 l 754 411 q 719 563 754 500 q 624 661 685 626 q 486 696 564 696 q 378 680 421 696 q 310 639 336 664 q 271 588 285 614 l 249 588 l 249 972 l 106 972 l 106 0 "},"i":{"ha":356,"x_min":79,"x_max":276,"o":"m 106 0 l 249 0 l 249 685 l 106 685 l 106 0 m 178 778 q 249 805 221 778 q 276 875 276 832 q 249 945 276 918 q 178 972 221 972 q 108 945 136 972 q 79 875 79 918 q 108 805 79 832 q 178 778 136 778 "},"j":{"ha":358,"x_min":-25,"x_max":279,"o":"m -25 -278 l 114 -278 q 215 -240 179 -278 q 251 -140 251 -203 l 251 685 l 108 685 l 108 -112 q 68 -154 108 -154 l -25 -154 l -25 -278 m 181 778 q 251 805 224 778 q 279 875 279 832 q 251 945 279 918 q 181 972 224 972 q 110 945 139 972 q 82 875 82 918 q 110 805 82 832 q 181 778 139 778 "},"k":{"ha":765,"x_min":106,"x_max":742,"o":"m 106 0 l 249 0 l 249 285 l 271 285 l 553 0 l 742 0 l 385 353 l 731 685 l 540 685 l 271 418 l 249 418 l 249 972 l 106 972 l 106 0 "},"l":{"ha":356,"x_min":106,"x_max":249,"o":"m 106 0 l 249 0 l 249 972 l 106 972 l 106 0 "},"m":{"ha":1190,"x_min":106,"x_max":1090,"o":"m 106 0 l 249 0 l 249 408 q 289 532 249 489 q 396 575 329 575 q 492 541 458 575 q 526 444 526 507 l 526 0 l 669 0 l 669 408 q 710 532 669 489 q 817 575 750 575 q 913 541 879 575 q 947 444 947 507 l 947 0 l 1090 0 l 1090 456 q 1060 588 1090 535 q 978 669 1029 642 q 860 696 926 696 q 731 664 776 696 q 663 585 686 632 l 640 585 q 570 665 617 633 q 447 696 524 696 q 331 668 374 696 q 268 604 288 640 l 246 604 l 246 685 l 106 685 l 106 0 "},"n":{"ha":854,"x_min":106,"x_max":754,"o":"m 106 0 l 249 0 l 249 346 q 302 515 249 457 q 444 574 356 574 q 567 531 522 574 q 611 400 611 489 l 611 0 l 754 0 l 754 411 q 719 563 754 500 q 624 661 685 626 q 486 696 564 696 q 338 660 388 696 q 268 582 288 624 l 246 582 l 246 685 l 106 685 l 106 0 "},"o":{"ha":854,"x_min":72,"x_max":782,"o":"m 426 -19 q 610 23 529 -19 q 736 144 690 65 q 782 332 782 224 l 782 353 q 736 540 782 461 q 610 661 690 618 q 426 704 529 704 q 244 661 324 704 q 118 540 164 618 q 72 353 72 461 l 72 332 q 118 144 72 224 q 244 23 164 65 q 426 -19 324 -19 m 426 108 q 274 169 333 108 q 215 336 215 229 l 215 349 q 274 516 215 456 q 426 576 333 576 q 581 516 522 576 q 639 349 639 456 l 639 336 q 580 169 639 229 q 426 108 521 108 "},"p":{"ha":890,"x_min":106,"x_max":818,"o":"m 106 -278 l 249 -278 l 249 93 l 271 93 q 315 40 288 65 q 389 -3 343 14 q 501 -19 435 -19 q 660 22 588 -19 q 775 142 732 64 q 818 332 818 221 l 818 353 q 774 542 818 464 q 659 663 731 621 q 501 704 588 704 q 348 668 401 704 q 268 586 294 632 l 246 586 l 246 685 l 106 685 l 106 -278 m 460 106 q 308 165 368 106 q 247 336 247 225 l 247 349 q 308 518 247 458 q 460 578 368 578 q 613 518 553 578 q 674 349 674 458 l 674 336 q 614 165 674 225 q 460 106 554 106 "},"q":{"ha":890,"x_min":72,"x_max":785,"o":"m 642 -278 l 785 -278 l 785 685 l 644 685 l 644 586 l 622 586 q 542 668 596 632 q 389 704 489 704 q 232 663 304 704 q 116 542 160 621 q 72 353 72 464 l 72 332 q 115 142 72 221 q 231 22 158 64 q 389 -19 303 -19 q 501 -3 456 -19 q 575 40 546 14 q 619 93 604 65 l 642 93 l 642 -278 m 429 106 q 277 165 338 106 q 217 336 217 225 l 217 349 q 277 518 217 458 q 429 578 338 578 q 583 518 522 578 q 643 349 643 458 l 643 336 q 583 165 643 225 q 429 106 524 106 "},"r":{"ha":538,"x_min":106,"x_max":494,"o":"m 106 0 l 249 0 l 249 403 q 293 520 249 482 q 407 558 338 558 l 494 558 l 494 688 l 413 688 q 322 667 358 688 q 268 604 285 647 l 246 604 l 246 685 l 106 685 l 106 0 "},"s":{"ha":729,"x_min":64,"x_max":668,"o":"m 386 -19 q 592 38 515 -19 q 668 197 668 94 q 633 308 668 267 q 536 372 597 350 q 401 407 475 394 l 353 415 q 265 444 297 425 q 232 506 232 464 q 265 566 232 544 q 357 588 299 588 q 457 562 417 588 q 510 474 497 536 l 643 511 q 547 652 621 600 q 357 704 472 704 q 165 651 238 704 q 93 500 93 597 q 126 393 93 435 q 217 328 160 351 q 343 292 274 304 l 390 283 q 493 251 458 271 q 528 190 528 232 q 491 122 528 149 q 386 96 454 96 q 301 110 340 96 q 235 157 261 124 q 197 247 208 190 l 64 215 q 169 39 83 97 q 386 -19 256 -19 "},"t":{"ha":636,"x_min":38,"x_max":574,"o":"m 363 0 l 551 0 l 551 121 l 408 121 q 369 163 369 121 l 369 564 l 574 564 l 574 685 l 369 685 l 369 911 l 226 911 l 226 685 l 38 685 l 38 564 l 226 564 l 226 138 q 263 38 226 75 q 363 0 300 0 "},"u":{"ha":853,"x_min":99,"x_max":747,"o":"m 368 -12 q 515 24 465 -12 q 585 103 565 61 l 607 103 l 607 0 l 747 0 l 747 685 l 604 685 l 604 339 q 551 169 604 228 q 410 110 497 110 q 286 152 331 110 q 242 283 242 194 l 242 685 l 99 685 l 99 274 q 133 121 99 185 q 229 22 168 57 q 368 -12 290 -12 "},"v":{"ha":756,"x_min":33,"x_max":722,"o":"m 264 0 l 492 0 l 722 685 l 571 685 l 389 106 l 367 106 l 185 685 l 33 685 l 264 0 "},"w":{"ha":1100,"x_min":64,"x_max":1036,"o":"m 181 0 l 421 0 l 539 588 l 561 588 l 679 0 l 919 0 l 1036 685 l 893 685 l 807 96 l 785 96 l 667 685 l 435 685 l 315 96 l 293 96 l 207 685 l 64 685 l 181 0 "},"x":{"ha":824,"x_min":47,"x_max":775,"o":"m 47 0 l 218 0 l 400 251 l 422 251 l 604 0 l 775 0 l 514 346 l 771 685 l 601 685 l 422 439 l 400 439 l 221 685 l 53 685 l 308 346 l 47 0 "},"y":{"ha":853,"x_min":99,"x_max":747,"o":"m 185 -278 l 610 -278 q 710 -240 674 -278 q 747 -140 747 -203 l 747 685 l 604 685 l 604 338 q 551 168 604 226 q 410 110 497 110 q 286 152 331 110 q 242 283 242 194 l 242 685 l 99 685 l 99 272 q 133 121 99 185 q 229 22 168 57 q 368 -12 290 -12 q 476 4 433 -12 q 545 47 519 21 q 583 100 571 72 l 606 100 l 606 -111 q 567 -153 606 -153 l 185 -153 l 185 -278 "},"z":{"ha":721,"x_min":78,"x_max":649,"o":"m 78 0 l 649 0 l 649 121 l 232 121 l 232 139 l 638 508 l 638 685 l 92 685 l 92 564 l 482 564 l 482 544 l 78 175 l 78 0 "},"[":{"ha":482,"x_min":106,"x_max":457,"o":"m 231 -333 l 457 -333 l 457 -211 l 282 -211 q 244 -169 244 -211 l 244 878 q 282 919 244 919 l 457 919 l 457 1042 l 231 1042 q 141 1006 176 1042 q 106 917 106 971 l 106 -208 q 141 -298 106 -262 q 231 -333 176 -333 "},"]":{"ha":482,"x_min":24,"x_max":376,"o":"m 24 -333 l 250 -333 q 341 -298 306 -333 q 376 -208 376 -262 l 376 917 q 341 1006 376 971 q 250 1042 306 1042 l 24 1042 l 24 919 l 200 919 q 238 878 238 919 l 238 -169 q 200 -211 238 -211 l 24 -211 l 24 -333 "},"{":{"ha":624,"x_min":51,"x_max":600,"o":"m 374 -333 l 600 -333 l 600 -211 l 424 -211 q 386 -169 386 -211 l 386 232 q 358 312 386 281 q 281 343 329 343 l 265 343 l 265 365 l 281 365 q 358 397 329 365 q 386 476 386 428 l 386 878 q 424 919 386 919 l 600 919 l 600 1042 l 374 1042 q 283 1006 318 1042 q 249 917 249 971 l 249 478 q 192 422 249 422 l 51 422 l 51 286 l 192 286 q 249 231 249 286 l 249 -208 q 283 -298 249 -262 q 374 -333 318 -333 "},"}":{"ha":624,"x_min":24,"x_max":572,"o":"m 24 -333 l 250 -333 q 341 -298 306 -333 q 376 -208 376 -262 l 376 231 q 432 286 376 286 l 572 286 l 572 422 l 432 422 q 376 478 376 422 l 376 917 q 341 1006 376 971 q 250 1042 306 1042 l 24 1042 l 24 919 l 200 919 q 238 878 238 919 l 238 476 q 266 397 238 428 q 343 365 294 365 l 360 365 l 360 343 l 343 343 q 266 312 294 343 q 238 232 238 281 l 238 -169 q 200 -211 238 -211 l 24 -211 l 24 -333 "},"(":{"ha":540,"x_min":76,"x_max":528,"o":"m 528 -333 l 528 -211 q 292 -122 369 -210 q 215 151 215 -33 l 215 557 q 292 830 215 742 q 528 919 369 918 l 528 1042 q 282 992 383 1042 q 128 835 181 942 q 76 563 76 729 l 76 146 q 128 -127 76 -21 q 282 -283 181 -233 q 528 -333 383 -333 "},")":{"ha":532,"x_min":4,"x_max":456,"o":"m 4 -333 q 251 -283 150 -333 q 403 -127 351 -233 q 456 146 456 -21 l 456 563 q 403 835 456 729 q 251 992 351 942 q 4 1042 150 1042 l 4 919 q 242 830 165 918 q 318 557 318 742 l 318 151 q 242 -122 318 -33 q 4 -211 165 -210 l 4 -333 "},"/":{"ha":526,"x_min":-11,"x_max":540,"o":"m -11 -278 l 132 -278 l 540 972 l 397 972 l -11 -278 "},"|":{"ha":346,"x_min":101,"x_max":244,"o":"m 101 -342 l 244 -342 l 244 1119 l 101 1119 l 101 -342 "},"¦":{"ha":346,"x_min":101,"x_max":244,"o":"m 101 508 l 244 508 l 244 1119 l 101 1119 l 101 508 m 101 -342 l 244 -342 l 244 269 l 101 269 l 101 -342 "},"\\":{"ha":526,"x_min":-14,"x_max":539,"o":"m 394 -278 l 539 -278 l 131 972 l -14 972 l 394 -278 "},"'":{"ha":379,"x_min":78,"x_max":301,"o":"m 107 597 l 164 597 q 301 735 301 597 l 301 879 q 270 960 301 929 q 190 992 239 992 q 110 962 142 992 q 78 883 78 932 q 110 810 78 839 q 190 781 142 781 l 211 781 l 211 736 q 154 679 211 679 l 107 679 l 107 597 "},"\"":{"ha":653,"x_min":78,"x_max":575,"o":"m 107 597 l 164 597 q 301 735 301 597 l 301 879 q 270 960 301 929 q 190 992 239 992 q 110 962 142 992 q 78 883 78 932 q 110 810 78 839 q 190 781 142 781 l 211 781 l 211 736 q 154 679 211 679 l 107 679 l 107 597 m 381 597 l 438 597 q 575 735 575 597 l 575 879 q 544 960 575 929 q 464 992 513 992 q 383 962 415 992 q 351 883 351 932 q 383 810 351 839 q 464 781 415 781 l 485 781 l 485 736 q 428 679 485 679 l 381 679 l 381 597 "},"‘":{"ha":379,"x_min":78,"x_max":301,"o":"m 272 992 l 215 992 q 78 854 78 992 l 78 710 q 109 628 78 660 q 189 597 140 597 q 269 627 238 597 q 301 706 301 657 q 269 779 301 750 q 189 808 238 808 l 168 808 l 168 853 q 225 910 168 910 l 272 910 l 272 992 "},"’":{"ha":379,"x_min":78,"x_max":301,"o":"m 107 597 l 164 597 q 301 735 301 597 l 301 879 q 270 960 301 929 q 190 992 239 992 q 110 962 142 992 q 78 883 78 932 q 110 810 78 839 q 190 781 142 781 l 211 781 l 211 736 q 154 679 211 679 l 107 679 l 107 597 "},"“":{"ha":653,"x_min":78,"x_max":575,"o":"m 546 992 l 489 992 q 351 854 351 992 l 351 710 q 383 628 351 660 q 463 597 414 597 q 543 627 511 597 q 575 706 575 657 q 543 779 575 750 q 463 808 511 808 l 442 808 l 442 853 q 499 910 442 910 l 546 910 l 546 992 m 272 992 l 215 992 q 78 854 78 992 l 78 710 q 109 628 78 660 q 189 597 140 597 q 269 627 238 597 q 301 706 301 657 q 269 779 301 750 q 189 808 238 808 l 168 808 l 168 853 q 225 910 168 910 l 272 910 l 272 992 "},"”":{"ha":653,"x_min":78,"x_max":575,"o":"m 107 597 l 164 597 q 301 735 301 597 l 301 879 q 270 960 301 929 q 190 992 239 992 q 110 962 142 992 q 78 883 78 932 q 110 810 78 839 q 190 781 142 781 l 211 781 l 211 736 q 154 679 211 679 l 107 679 l 107 597 m 381 597 l 438 597 q 575 735 575 597 l 575 879 q 544 960 575 929 q 464 992 513 992 q 383 962 415 992 q 351 883 351 932 q 383 810 351 839 q 464 781 415 781 l 485 781 l 485 736 q 428 679 485 679 l 381 679 l 381 597 "},"‚":{"ha":379,"x_min":78,"x_max":301,"o":"m 107 -189 l 164 -189 q 301 -51 301 -189 l 301 93 q 270 174 301 143 q 190 206 239 206 q 110 176 142 206 q 78 97 78 146 q 110 24 78 53 q 190 -6 142 -6 l 211 -6 l 211 -50 q 154 -107 211 -107 l 107 -107 l 107 -189 "},"„":{"ha":653,"x_min":78,"x_max":575,"o":"m 107 -189 l 164 -189 q 301 -51 301 -189 l 301 93 q 270 174 301 143 q 190 206 239 206 q 110 176 142 206 q 78 97 78 146 q 110 24 78 53 q 190 -6 142 -6 l 211 -6 l 211 -50 q 154 -107 211 -107 l 107 -107 l 107 -189 m 381 -189 l 438 -189 q 575 -51 575 -189 l 575 93 q 544 174 575 143 q 464 206 513 206 q 383 176 415 206 q 351 97 351 146 q 383 24 351 53 q 464 -6 415 -6 l 485 -6 l 485 -50 q 428 -107 485 -107 l 381 -107 l 381 -189 "},".":{"ha":383,"x_min":78,"x_max":306,"o":"m 192 -19 q 273 13 240 -19 q 306 94 306 44 q 273 175 306 143 q 192 207 240 207 q 110 176 143 207 q 78 94 78 144 q 110 13 78 44 q 192 -19 143 -19 "},",":{"ha":379,"x_min":78,"x_max":301,"o":"m 107 -189 l 164 -189 q 301 -51 301 -189 l 301 93 q 270 174 301 143 q 190 206 239 206 q 110 176 142 206 q 78 97 78 146 q 110 24 78 53 q 190 -6 142 -6 l 211 -6 l 211 -50 q 154 -107 211 -107 l 107 -107 l 107 -189 "},":":{"ha":383,"x_min":78,"x_max":306,"o":"m 192 -19 q 273 13 240 -19 q 306 94 306 44 q 273 175 306 143 q 192 207 240 207 q 110 176 143 207 q 78 94 78 144 q 110 13 78 44 q 192 -19 143 -19 m 192 476 q 273 508 240 476 q 306 590 306 540 q 273 671 306 639 q 192 703 240 703 q 110 672 143 703 q 78 590 78 640 q 110 508 78 540 q 192 476 143 476 "},";":{"ha":383,"x_min":78,"x_max":306,"o":"m 192 476 q 273 508 240 476 q 306 590 306 540 q 273 671 306 639 q 192 703 240 703 q 110 672 143 703 q 78 590 78 640 q 110 508 78 540 q 192 476 143 476 m 108 -189 l 165 -189 q 303 -51 303 -189 l 303 93 q 272 174 303 143 q 192 206 240 206 q 111 176 143 206 q 79 97 79 146 q 111 24 79 53 q 192 -6 143 -6 l 213 -6 l 213 -50 q 156 -107 213 -107 l 108 -107 l 108 -189 "},"…":{"ha":1026,"x_min":78,"x_max":949,"o":"m 192 -19 q 273 13 240 -19 q 306 94 306 44 q 273 175 306 143 q 192 207 240 207 q 110 176 143 207 q 78 94 78 144 q 110 13 78 44 q 192 -19 143 -19 m 514 -19 q 595 13 563 -19 q 628 94 628 44 q 595 175 628 143 q 514 207 563 207 q 433 176 465 207 q 400 94 400 144 q 433 13 400 44 q 514 -19 465 -19 m 836 -19 q 917 13 885 -19 q 950 94 950 44 q 917 175 950 143 q 836 207 885 207 q 755 176 788 207 q 722 94 722 144 q 755 13 722 44 q 836 -19 788 -19 "},"!":{"ha":383,"x_min":78,"x_max":306,"o":"m 118 290 l 264 290 l 264 972 l 118 972 l 118 290 m 192 -19 q 273 13 240 -19 q 306 94 306 44 q 273 175 306 143 q 192 207 240 207 q 110 176 143 207 q 78 94 78 144 q 110 13 78 44 q 192 -19 143 -19 "},"¡":{"ha":383,"x_min":78,"x_max":306,"o":"m 118 -278 l 264 -278 l 264 393 l 118 393 l 118 -278 m 192 704 q 110 672 143 704 q 78 590 78 640 q 110 508 78 540 q 192 476 143 476 q 273 508 240 476 q 306 590 306 540 q 273 672 306 640 q 192 704 240 704 "},"?":{"ha":804,"x_min":53,"x_max":743,"o":"m 310 290 l 460 290 l 460 343 q 470 393 460 376 q 506 421 481 410 l 536 435 q 636 492 589 458 q 713 578 683 525 q 743 713 743 632 q 699 857 743 794 q 579 956 656 919 q 404 992 503 992 q 225 956 304 992 q 99 853 146 921 q 53 690 53 785 l 53 651 l 200 651 l 200 690 q 228 788 200 749 q 302 845 256 826 q 404 864 349 864 q 503 846 460 864 q 571 794 546 828 q 596 713 596 761 q 558 608 596 646 q 454 542 521 571 l 424 528 q 335 457 361 499 q 310 349 310 415 l 310 290 m 388 -19 q 469 13 438 -19 q 501 94 501 44 q 469 176 501 144 q 388 207 438 207 q 308 176 340 207 q 275 94 275 144 q 308 13 275 44 q 388 -19 340 -19 "},"¿":{"ha":804,"x_min":61,"x_max":751,"o":"m 400 -299 q 579 -262 500 -299 q 705 -159 658 -226 q 751 4 751 -92 l 751 42 l 604 42 l 604 3 q 576 -94 604 -56 q 502 -151 549 -132 q 400 -171 456 -171 q 301 -153 344 -171 q 233 -101 258 -135 q 208 -18 208 -67 q 246 85 208 49 q 350 151 283 122 l 381 167 q 469 237 444 196 q 494 344 494 278 l 494 393 l 346 393 l 346 350 q 335 301 346 318 q 299 274 325 285 l 268 258 q 168 202 215 236 q 91 115 121 168 q 61 -18 61 63 q 105 -163 61 -100 q 225 -262 149 -226 q 400 -299 301 -299 m 415 704 q 335 672 368 704 q 303 590 303 640 q 335 508 303 540 q 415 476 368 476 q 497 508 465 476 q 529 590 529 540 q 497 672 529 640 q 415 704 465 704 "},"‹":{"ha":654,"x_min":72,"x_max":558,"o":"m 550 19 l 558 19 l 558 172 l 214 333 l 214 354 l 558 517 l 558 669 l 550 669 l 72 426 l 72 261 l 550 19 "},"›":{"ha":654,"x_min":96,"x_max":582,"o":"m 96 19 l 104 19 l 582 261 l 582 426 l 104 669 l 96 669 l 96 517 l 440 354 l 440 333 l 96 172 l 96 19 "},"-":{"ha":615,"x_min":103,"x_max":514,"o":"m 103 290 l 514 290 l 514 421 l 103 421 l 103 290 "},"–":{"ha":826,"x_min":103,"x_max":725,"o":"m 103 290 l 725 290 l 725 421 l 103 421 l 103 290 "},"—":{"ha":1249,"x_min":103,"x_max":1147,"o":"m 103 290 l 1147 290 l 1147 421 l 103 421 l 103 290 "},"·":{"ha":282,"x_min":28,"x_max":254,"o":"m 140 285 q 222 317 189 285 q 254 399 254 349 q 222 479 254 447 q 140 511 189 511 q 59 480 92 511 q 26 399 26 449 q 59 317 26 349 q 140 285 92 285 "},"•":{"ha":528,"x_min":81,"x_max":447,"o":"m 264 174 q 356 197 314 174 q 423 262 399 221 q 447 356 447 303 q 424 450 447 408 q 358 515 400 492 q 264 538 317 538 q 170 514 213 538 q 104 449 128 490 q 81 356 81 408 q 106 263 81 304 q 172 197 131 221 q 264 174 213 174 "},"_":{"ha":861,"x_min":99,"x_max":763,"o":"m 99 -197 l 763 -197 l 763 -68 l 99 -68 l 99 -197 "},"@":{"ha":1417,"x_min":100,"x_max":1322,"o":"m 733 -278 l 1022 -278 l 1022 -149 l 742 -149 q 475 -92 588 -149 q 301 74 363 -36 q 240 343 240 183 l 240 365 q 299 635 240 526 q 465 800 357 744 q 717 856 572 856 l 739 856 q 981 801 883 856 q 1131 646 1079 747 q 1182 403 1182 544 l 1182 332 q 1156 176 1182 225 q 1071 126 1131 126 l 1060 126 q 1030 137 1039 126 q 1021 168 1021 147 l 1021 683 l 882 683 l 882 593 l 860 593 q 824 643 846 619 q 765 681 801 667 q 671 696 728 696 q 527 651 589 696 q 431 528 465 606 q 396 354 396 451 l 396 331 q 431 156 396 233 q 531 33 467 79 q 681 -12 596 -12 q 776 4 739 -12 q 835 48 813 21 q 869 104 858 75 l 892 104 l 892 96 q 924 26 892 51 q 1017 0 956 0 l 1081 0 q 1260 84 1199 0 q 1322 329 1322 168 l 1322 406 q 1250 712 1322 582 q 1047 913 1178 842 q 742 985 917 985 l 713 985 q 388 911 526 985 q 175 700 250 838 q 100 371 100 563 l 100 339 q 178 8 100 146 q 398 -203 256 -129 q 733 -278 540 -278 m 708 113 q 584 172 631 113 q 538 333 538 231 l 538 350 q 584 513 538 453 q 708 572 631 572 q 834 513 786 572 q 882 350 882 454 l 882 335 q 834 172 882 231 q 708 113 786 113 "},"&":{"ha":831,"x_min":50,"x_max":803,"o":"m 336 0 l 671 0 l 671 431 l 803 431 l 803 551 l 671 551 l 671 689 l 528 689 l 528 551 l 365 551 q 284 567 321 551 q 224 616 247 583 q 201 701 201 649 q 249 815 201 778 q 365 851 296 851 l 506 851 l 506 972 l 342 972 q 197 942 261 972 q 95 855 133 913 q 57 713 57 797 q 103 574 57 625 q 215 501 149 522 l 215 483 q 133 440 171 469 q 72 365 94 410 q 50 260 50 321 q 87 119 50 178 q 188 31 124 61 q 336 0 253 0 m 360 121 q 243 158 293 121 q 193 275 193 196 q 242 392 193 354 q 360 431 290 431 l 528 431 l 528 121 l 360 121 "},"*":{"ha":736,"x_min":63,"x_max":674,"o":"m 63 622 l 176 622 l 274 638 l 281 621 l 201 563 l 121 482 l 183 419 l 264 500 l 322 581 l 339 574 l 324 475 l 324 363 l 413 363 l 413 475 l 397 574 l 414 581 l 472 500 l 553 419 l 615 482 l 536 563 l 456 621 l 463 638 l 560 622 l 674 622 l 674 711 l 560 711 l 463 696 l 456 713 l 536 771 l 615 851 l 553 914 l 472 835 l 414 754 l 397 761 l 413 860 l 413 972 l 324 972 l 324 860 l 339 761 l 322 754 l 264 835 l 183 914 l 121 851 l 201 771 l 281 713 l 274 696 l 176 711 l 63 711 l 63 622 "},"À":{"ha":878,"x_min":29,"x_max":847,"o":"m 29 0 l 185 0 l 249 229 l 629 229 l 693 0 l 847 0 l 571 972 l 307 972 l 29 0 m 286 368 l 428 879 l 450 879 l 592 368 l 286 368 m 400 1054 l 532 1054 l 436 1229 l 267 1229 l 400 1054 "},"Á":{"ha":878,"x_min":29,"x_max":847,"o":"m 29 0 l 185 0 l 249 229 l 629 229 l 693 0 l 847 0 l 571 972 l 307 972 l 29 0 m 286 368 l 428 879 l 450 879 l 592 368 l 286 368 m 346 1053 l 478 1053 l 611 1228 l 442 1228 l 346 1053 "},"Â":{"ha":878,"x_min":29,"x_max":847,"o":"m 29 0 l 185 0 l 249 229 l 629 229 l 693 0 l 847 0 l 571 972 l 307 972 l 29 0 m 286 368 l 428 879 l 450 879 l 592 368 l 286 368 m 185 1053 l 344 1053 l 428 1149 l 450 1149 l 533 1053 l 694 1053 l 526 1228 l 351 1228 l 185 1053 "},"Ã":{"ha":878,"x_min":29,"x_max":847,"o":"m 29 0 l 185 0 l 249 229 l 629 229 l 693 0 l 847 0 l 571 972 l 307 972 l 29 0 m 286 368 l 428 879 l 450 879 l 592 368 l 286 368 m 275 1044 l 304 1088 q 328 1114 315 1101 q 360 1126 340 1126 q 392 1115 379 1126 q 422 1089 406 1104 q 469 1053 447 1065 q 524 1042 492 1042 q 588 1060 563 1042 q 635 1107 614 1078 l 679 1172 l 603 1229 l 572 1186 q 549 1160 561 1172 q 517 1149 538 1149 q 485 1159 499 1149 q 456 1185 471 1169 q 408 1220 431 1208 q 353 1232 386 1232 q 289 1215 315 1232 q 242 1167 263 1197 l 197 1103 l 275 1044 "},"Ä":{"ha":878,"x_min":29,"x_max":847,"o":"m 29 0 l 185 0 l 249 229 l 629 229 l 693 0 l 847 0 l 571 972 l 307 972 l 29 0 m 286 368 l 428 879 l 450 879 l 592 368 l 286 368 m 585 1051 q 654 1078 626 1051 q 682 1149 682 1104 q 654 1219 682 1193 q 585 1246 626 1246 q 515 1219 543 1246 q 486 1149 486 1193 q 515 1078 486 1104 q 585 1051 543 1051 m 293 1051 q 363 1078 335 1051 q 390 1149 390 1104 q 363 1219 390 1193 q 293 1246 335 1246 q 223 1219 251 1246 q 194 1149 194 1193 q 223 1078 194 1104 q 293 1051 251 1051 "},"Ā":{"ha":878,"x_min":29,"x_max":847,"o":"m 29 0 l 185 0 l 249 229 l 629 229 l 693 0 l 847 0 l 571 972 l 307 972 l 29 0 m 286 368 l 428 879 l 450 879 l 592 368 l 286 368 m 218 1064 l 660 1064 l 660 1179 l 218 1179 l 218 1064 "},"Ă":{"ha":878,"x_min":29,"x_max":847,"o":"m 29 0 l 185 0 l 249 229 l 629 229 l 693 0 l 847 0 l 571 972 l 307 972 l 29 0 m 286 368 l 428 879 l 450 879 l 592 368 l 286 368 m 439 1044 q 599 1093 542 1044 q 657 1224 657 1142 l 657 1229 l 538 1229 l 538 1224 q 513 1160 538 1185 q 439 1135 489 1135 q 364 1160 388 1135 q 340 1224 340 1185 l 340 1229 l 221 1229 l 221 1224 q 278 1093 221 1142 q 439 1044 336 1044 "},"Å":{"ha":878,"x_min":29,"x_max":847,"o":"m 29 0 l 185 0 l 249 229 l 629 229 l 693 0 l 847 0 l 571 972 l 307 972 l 29 0 m 286 368 l 428 879 l 450 879 l 592 368 l 286 368 m 439 1039 q 538 1076 496 1039 q 581 1175 581 1113 q 540 1273 581 1235 q 439 1311 499 1311 q 340 1273 381 1311 q 299 1175 299 1235 q 340 1077 299 1115 q 439 1039 381 1039 m 439 1125 q 403 1139 417 1125 q 389 1175 389 1153 q 403 1211 389 1197 q 439 1225 417 1225 q 477 1211 464 1225 q 490 1175 490 1197 q 477 1139 490 1153 q 439 1125 464 1125 "},"Ą":{"ha":878,"x_min":29,"x_max":896,"o":"m 29 0 l 185 0 l 249 229 l 629 229 l 693 0 l 847 0 l 571 972 l 307 972 l 29 0 m 286 368 l 428 879 l 450 879 l 592 368 l 286 368 m 799 -232 l 894 -232 l 894 -131 l 833 -131 q 801 -101 801 -131 q 803 -83 801 -92 q 807 -62 806 -74 l 824 24 l 726 24 l 708 -51 q 699 -96 703 -74 q 696 -139 696 -118 q 724 -207 696 -182 q 799 -232 753 -232 "},"Æ":{"ha":1147,"x_min":29,"x_max":1092,"o":"m 531 0 l 1092 0 l 1092 136 l 679 136 l 679 421 l 1046 421 l 1046 557 l 679 557 l 679 836 l 1085 836 l 1085 972 l 531 972 l 531 0 m 29 0 l 186 0 l 269 229 l 531 229 l 531 368 l 317 368 l 508 890 l 531 890 l 531 972 l 390 972 l 29 0 "},"Ç":{"ha":893,"x_min":76,"x_max":828,"o":"m 463 -19 q 733 78 638 -19 q 828 343 828 175 l 828 363 l 679 363 l 679 339 q 626 178 679 242 q 463 115 572 115 q 289 183 351 115 q 226 369 226 251 l 226 603 q 289 790 226 722 q 463 857 351 857 q 626 794 572 857 q 679 633 679 732 l 679 621 l 828 621 l 828 629 q 733 894 828 797 q 463 992 638 992 q 181 891 285 992 q 76 600 76 790 l 76 372 q 181 81 76 182 q 463 -19 285 -19 m 463 -292 q 545 -279 507 -292 q 608 -240 583 -267 q 632 -171 632 -212 q 597 -87 632 -115 q 508 -58 561 -58 l 515 29 l 414 29 l 403 -114 l 454 -114 q 506 -124 489 -114 q 524 -156 524 -133 q 505 -188 524 -178 q 457 -199 486 -199 q 394 -190 422 -199 q 340 -171 365 -182 l 310 -258 q 379 -281 339 -271 q 463 -292 419 -292 "},"Ć":{"ha":893,"x_min":76,"x_max":828,"o":"m 463 -19 q 733 78 638 -19 q 828 343 828 175 l 828 363 l 679 363 l 679 339 q 626 178 679 242 q 463 115 572 115 q 289 183 351 115 q 226 369 226 251 l 226 603 q 289 790 226 722 q 463 857 351 857 q 626 794 572 857 q 679 633 679 732 l 679 621 l 828 621 l 828 629 q 733 894 828 797 q 463 992 638 992 q 181 891 285 992 q 76 600 76 790 l 76 372 q 181 81 76 182 q 463 -19 285 -19 m 369 1053 l 501 1053 l 635 1228 l 465 1228 l 369 1053 "},"Ĉ":{"ha":893,"x_min":76,"x_max":828,"o":"m 463 -19 q 733 78 638 -19 q 828 343 828 175 l 828 363 l 679 363 l 679 339 q 626 178 679 242 q 463 115 572 115 q 289 183 351 115 q 226 369 226 251 l 226 603 q 289 790 226 722 q 463 857 351 857 q 626 794 572 857 q 679 633 679 732 l 679 621 l 828 621 l 828 629 q 733 894 828 797 q 463 992 638 992 q 181 891 285 992 q 76 600 76 790 l 76 372 q 181 81 76 182 q 463 -19 285 -19 m 207 1053 l 367 1053 l 450 1149 l 472 1149 l 556 1053 l 717 1053 l 549 1228 l 374 1228 l 207 1053 "},"Č":{"ha":893,"x_min":76,"x_max":828,"o":"m 463 -19 q 733 78 638 -19 q 828 343 828 175 l 828 363 l 679 363 l 679 339 q 626 178 679 242 q 463 115 572 115 q 289 183 351 115 q 226 369 226 251 l 226 603 q 289 790 226 722 q 463 857 351 857 q 626 794 572 857 q 679 633 679 732 l 679 621 l 828 621 l 828 629 q 733 894 828 797 q 463 992 638 992 q 181 891 285 992 q 76 600 76 790 l 76 372 q 181 81 76 182 q 463 -19 285 -19 m 374 1053 l 549 1053 l 717 1228 l 556 1228 l 472 1131 l 450 1131 l 367 1228 l 207 1228 l 374 1053 "},"Ċ":{"ha":893,"x_min":76,"x_max":828,"o":"m 463 -19 q 733 78 638 -19 q 828 343 828 175 l 828 363 l 679 363 l 679 339 q 626 178 679 242 q 463 115 572 115 q 289 183 351 115 q 226 369 226 251 l 226 603 q 289 790 226 722 q 463 857 351 857 q 626 794 572 857 q 679 633 679 732 l 679 621 l 828 621 l 828 629 q 733 894 828 797 q 463 992 638 992 q 181 891 285 992 q 76 600 76 790 l 76 372 q 181 81 76 182 q 463 -19 285 -19 m 463 1051 q 533 1078 506 1051 q 561 1149 561 1106 q 533 1219 561 1192 q 463 1246 506 1246 q 392 1219 421 1246 q 364 1149 364 1192 q 392 1078 364 1106 q 463 1051 421 1051 "},"Ð":{"ha":924,"x_min":65,"x_max":856,"o":"m 65 0 l 454 0 q 752 98 649 0 q 856 394 856 196 l 856 576 q 752 874 856 775 q 454 972 649 972 l 65 972 l 65 839 l 196 839 l 196 133 l 65 133 l 65 0 m 347 136 l 347 835 l 456 835 q 643 772 582 835 q 704 582 704 710 l 704 390 q 643 200 704 264 q 456 136 582 136 l 347 136 m 65 432 l 513 432 l 513 538 l 65 538 l 65 432 "},"Ď":{"ha":924,"x_min":65,"x_max":856,"o":"m 65 0 l 454 0 q 752 98 649 0 q 856 394 856 196 l 856 576 q 752 874 856 775 q 454 972 649 972 l 65 972 l 65 839 l 196 839 l 196 133 l 65 133 l 65 0 m 347 136 l 347 835 l 456 835 q 643 772 582 835 q 704 582 704 710 l 704 390 q 643 200 704 264 q 456 136 582 136 l 347 136 m 356 1053 l 531 1053 l 699 1228 l 538 1228 l 454 1131 l 432 1131 l 349 1228 l 189 1228 l 356 1053 "},"Đ":{"ha":924,"x_min":65,"x_max":856,"o":"m 65 0 l 454 0 q 752 98 649 0 q 856 394 856 196 l 856 576 q 752 874 856 775 q 454 972 649 972 l 65 972 l 65 839 l 196 839 l 196 133 l 65 133 l 65 0 m 347 136 l 347 835 l 456 835 q 643 772 582 835 q 704 582 704 710 l 704 390 q 643 200 704 264 q 456 136 582 136 l 347 136 m 65 432 l 513 432 l 513 538 l 65 538 l 65 432 "},"È":{"ha":776,"x_min":101,"x_max":721,"o":"m 101 0 l 721 0 l 721 136 l 251 136 l 251 421 l 675 421 l 675 557 l 251 557 l 251 836 l 714 836 l 714 972 l 101 972 l 101 0 m 376 1054 l 508 1054 l 413 1229 l 243 1229 l 376 1054 "},"É":{"ha":776,"x_min":101,"x_max":721,"o":"m 101 0 l 721 0 l 721 136 l 251 136 l 251 421 l 675 421 l 675 557 l 251 557 l 251 836 l 714 836 l 714 972 l 101 972 l 101 0 m 322 1053 l 454 1053 l 588 1228 l 418 1228 l 322 1053 "},"Ê":{"ha":776,"x_min":101,"x_max":721,"o":"m 101 0 l 721 0 l 721 136 l 251 136 l 251 421 l 675 421 l 675 557 l 251 557 l 251 836 l 714 836 l 714 972 l 101 972 l 101 0 m 161 1053 l 321 1053 l 404 1149 l 426 1149 l 510 1053 l 671 1053 l 503 1228 l 328 1228 l 161 1053 "},"Ě":{"ha":776,"x_min":101,"x_max":721,"o":"m 101 0 l 721 0 l 721 136 l 251 136 l 251 421 l 675 421 l 675 557 l 251 557 l 251 836 l 714 836 l 714 972 l 101 972 l 101 0 m 328 1053 l 503 1053 l 671 1228 l 510 1228 l 426 1131 l 404 1131 l 321 1228 l 161 1228 l 328 1053 "},"Ë":{"ha":776,"x_min":101,"x_max":721,"o":"m 101 0 l 721 0 l 721 136 l 251 136 l 251 421 l 675 421 l 675 557 l 251 557 l 251 836 l 714 836 l 714 972 l 101 972 l 101 0 m 561 1051 q 631 1078 603 1051 q 658 1149 658 1104 q 631 1219 658 1193 q 561 1246 603 1246 q 491 1219 519 1246 q 463 1149 463 1193 q 491 1078 463 1104 q 561 1051 519 1051 m 269 1051 q 339 1078 311 1051 q 367 1149 367 1104 q 339 1219 367 1193 q 269 1246 311 1246 q 199 1219 228 1246 q 171 1149 171 1193 q 199 1078 171 1104 q 269 1051 228 1051 "},"Ē":{"ha":776,"x_min":101,"x_max":721,"o":"m 101 0 l 721 0 l 721 136 l 251 136 l 251 421 l 675 421 l 675 557 l 251 557 l 251 836 l 714 836 l 714 972 l 101 972 l 101 0 m 194 1064 l 636 1064 l 636 1179 l 194 1179 l 194 1064 "},"Ĕ":{"ha":776,"x_min":101,"x_max":721,"o":"m 101 0 l 721 0 l 721 136 l 251 136 l 251 421 l 675 421 l 675 557 l 251 557 l 251 836 l 714 836 l 714 972 l 101 972 l 101 0 m 415 1044 q 576 1093 518 1044 q 633 1224 633 1142 l 633 1229 l 514 1229 l 514 1224 q 490 1160 514 1185 q 415 1135 465 1135 q 340 1160 364 1135 q 317 1224 317 1185 l 317 1229 l 197 1229 l 197 1224 q 255 1093 197 1142 q 415 1044 313 1044 "},"Ė":{"ha":776,"x_min":101,"x_max":721,"o":"m 101 0 l 721 0 l 721 136 l 251 136 l 251 421 l 675 421 l 675 557 l 251 557 l 251 836 l 714 836 l 714 972 l 101 972 l 101 0 m 415 1051 q 486 1078 458 1051 q 514 1149 514 1106 q 486 1219 514 1192 q 415 1246 458 1246 q 345 1219 374 1246 q 317 1149 317 1192 q 345 1078 317 1106 q 415 1051 374 1051 "},"Ę":{"ha":776,"x_min":101,"x_max":721,"o":"m 101 0 l 721 0 l 721 136 l 251 136 l 251 421 l 675 421 l 675 557 l 251 557 l 251 836 l 714 836 l 714 972 l 101 972 l 101 0 m 624 -232 l 719 -232 l 719 -131 l 658 -131 q 626 -101 626 -131 q 628 -83 626 -92 q 632 -62 631 -74 l 649 24 l 551 24 l 533 -51 q 524 -96 528 -74 q 521 -139 521 -118 q 549 -207 521 -182 q 624 -232 578 -232 "},"Ĝ":{"ha":918,"x_min":76,"x_max":826,"o":"m 439 -19 q 559 -1 514 -19 q 628 44 604 17 q 665 99 653 72 l 688 99 l 688 0 l 826 0 l 826 481 l 417 481 l 417 351 l 678 351 l 678 333 q 626 175 678 236 q 464 114 575 114 q 289 183 351 114 q 226 369 226 251 l 226 603 q 289 790 226 722 q 463 857 351 857 q 583 829 536 857 q 654 753 631 801 q 678 646 678 706 l 678 635 l 826 635 l 826 642 q 732 897 826 801 q 463 992 638 992 q 181 891 285 992 q 76 600 76 790 l 76 372 q 124 158 76 246 q 253 26 171 71 q 439 -19 335 -19 m 211 1053 l 371 1053 l 454 1149 l 476 1149 l 560 1053 l 721 1053 l 553 1228 l 378 1228 l 211 1053 "},"Ğ":{"ha":918,"x_min":76,"x_max":826,"o":"m 439 -19 q 559 -1 514 -19 q 628 44 604 17 q 665 99 653 72 l 688 99 l 688 0 l 826 0 l 826 481 l 417 481 l 417 351 l 678 351 l 678 333 q 626 175 678 236 q 464 114 575 114 q 289 183 351 114 q 226 369 226 251 l 226 603 q 289 790 226 722 q 463 857 351 857 q 583 829 536 857 q 654 753 631 801 q 678 646 678 706 l 678 635 l 826 635 l 826 642 q 732 897 826 801 q 463 992 638 992 q 181 891 285 992 q 76 600 76 790 l 76 372 q 124 158 76 246 q 253 26 171 71 q 439 -19 335 -19 m 465 1044 q 626 1093 568 1044 q 683 1224 683 1142 l 683 1229 l 564 1229 l 564 1224 q 540 1160 564 1185 q 465 1135 515 1135 q 390 1160 414 1135 q 367 1224 367 1185 l 367 1229 l 247 1229 l 247 1224 q 305 1093 247 1142 q 465 1044 363 1044 "},"Ġ":{"ha":918,"x_min":76,"x_max":826,"o":"m 439 -19 q 559 -1 514 -19 q 628 44 604 17 q 665 99 653 72 l 688 99 l 688 0 l 826 0 l 826 481 l 417 481 l 417 351 l 678 351 l 678 333 q 626 175 678 236 q 464 114 575 114 q 289 183 351 114 q 226 369 226 251 l 226 603 q 289 790 226 722 q 463 857 351 857 q 583 829 536 857 q 654 753 631 801 q 678 646 678 706 l 678 635 l 826 635 l 826 642 q 732 897 826 801 q 463 992 638 992 q 181 891 285 992 q 76 600 76 790 l 76 372 q 124 158 76 246 q 253 26 171 71 q 439 -19 335 -19 m 465 1051 q 536 1078 508 1051 q 564 1149 564 1106 q 536 1219 564 1192 q 465 1246 508 1246 q 395 1219 424 1246 q 367 1149 367 1192 q 395 1078 367 1106 q 465 1051 424 1051 "},"Ĥ":{"ha":911,"x_min":101,"x_max":810,"o":"m 101 0 l 251 0 l 251 419 l 660 419 l 660 0 l 810 0 l 810 972 l 660 972 l 660 556 l 251 556 l 251 972 l 101 972 l 101 0 m 201 1053 l 361 1053 l 444 1149 l 467 1149 l 550 1053 l 711 1053 l 543 1228 l 368 1228 l 201 1053 "},"Ħ":{"ha":911,"x_min":0,"x_max":911,"o":"m 101 0 l 251 0 l 251 419 l 660 419 l 660 0 l 810 0 l 810 972 l 660 972 l 660 556 l 251 556 l 251 972 l 101 972 l 101 0 m 0 704 l 913 704 l 913 810 l 0 810 l 0 704 "},"Ì":{"ha":353,"x_min":4,"x_max":269,"o":"m 101 0 l 251 0 l 251 972 l 101 972 l 101 0 m 138 1054 l 269 1054 l 174 1229 l 4 1229 l 138 1054 "},"Í":{"ha":353,"x_min":83,"x_max":349,"o":"m 101 0 l 251 0 l 251 972 l 101 972 l 101 0 m 83 1053 l 215 1053 l 349 1228 l 179 1228 l 83 1053 "},"Î":{"ha":353,"x_min":-78,"x_max":431,"o":"m 101 0 l 251 0 l 251 972 l 101 972 l 101 0 m -78 1053 l 82 1053 l 165 1149 l 188 1149 l 271 1053 l 432 1053 l 264 1228 l 89 1228 l -78 1053 "},"Ĩ":{"ha":353,"x_min":-65,"x_max":418,"o":"m 101 0 l 251 0 l 251 972 l 101 972 l 101 0 m 13 1044 l 42 1088 q 65 1114 53 1101 q 97 1126 78 1126 q 130 1115 117 1126 q 160 1089 143 1104 q 207 1053 185 1065 q 261 1042 229 1042 q 326 1060 300 1042 q 372 1107 351 1078 l 417 1172 l 340 1229 l 310 1186 q 287 1160 299 1172 q 254 1149 275 1149 q 222 1159 236 1149 q 193 1185 208 1169 q 146 1220 168 1208 q 90 1232 124 1232 q 26 1215 53 1232 q -21 1167 0 1197 l -65 1103 l 13 1044 "},"Ï":{"ha":353,"x_min":-67,"x_max":421,"o":"m 101 0 l 251 0 l 251 972 l 101 972 l 101 0 m 324 1051 q 393 1078 365 1051 q 421 1149 421 1104 q 393 1219 421 1193 q 324 1246 365 1246 q 253 1219 282 1246 q 225 1149 225 1193 q 253 1078 225 1104 q 324 1051 282 1051 m 32 1051 q 101 1078 74 1051 q 129 1149 129 1104 q 101 1219 129 1193 q 32 1246 74 1246 q -38 1219 -10 1246 q -67 1149 -67 1193 q -38 1078 -67 1104 q 32 1051 -10 1051 "},"Ī":{"ha":353,"x_min":-44,"x_max":397,"o":"m 101 0 l 251 0 l 251 972 l 101 972 l 101 0 m -44 1064 l 397 1064 l 397 1179 l -44 1179 l -44 1064 "},"İ":{"ha":353,"x_min":78,"x_max":275,"o":"m 101 0 l 251 0 l 251 972 l 101 972 l 101 0 m 176 1051 q 247 1078 219 1051 q 275 1149 275 1106 q 247 1219 275 1192 q 176 1246 219 1246 q 106 1219 135 1246 q 78 1149 78 1192 q 106 1078 78 1106 q 176 1051 135 1051 "},"Į":{"ha":353,"x_min":100,"x_max":299,"o":"m 101 0 l 251 0 l 251 972 l 101 972 l 101 0 m 203 -232 l 299 -232 l 299 -131 l 238 -131 q 206 -101 206 -131 q 208 -83 206 -92 q 211 -62 210 -74 l 228 24 l 131 24 l 113 -51 q 103 -96 107 -74 q 100 -139 100 -118 q 128 -207 100 -182 q 203 -232 157 -232 "},"Ĭ":{"ha":353,"x_min":-42,"x_max":394,"o":"m 101 0 l 251 0 l 251 972 l 101 972 l 101 0 m 176 1044 q 337 1093 279 1044 q 394 1224 394 1142 l 394 1229 l 275 1229 l 275 1224 q 251 1160 275 1185 q 176 1135 226 1135 q 101 1160 125 1135 q 78 1224 78 1185 l 78 1229 l -42 1229 l -42 1224 q 16 1093 -42 1142 q 176 1044 74 1044 "},"Ĵ":{"ha":836,"x_min":50,"x_max":817,"o":"m 368 -19 q 590 60 511 -19 q 668 292 668 140 l 668 836 l 776 836 l 776 972 l 349 972 l 349 836 l 518 836 l 518 292 q 481 167 518 213 q 365 121 443 121 q 242 167 285 121 q 200 292 200 214 l 200 375 l 50 375 l 50 292 q 136 62 50 143 q 368 -19 222 -19 m 308 1053 l 468 1053 l 551 1149 l 574 1149 l 657 1053 l 818 1053 l 650 1228 l 475 1228 l 308 1053 "},"Ĺ":{"ha":756,"x_min":83,"x_max":719,"o":"m 101 0 l 719 0 l 719 136 l 251 136 l 251 972 l 101 972 l 101 0 m 83 1053 l 215 1053 l 349 1228 l 179 1228 l 83 1053 "},"Ľ":{"ha":756,"x_min":101,"x_max":719,"o":"m 101 0 l 719 0 l 719 136 l 251 136 l 251 972 l 101 972 l 101 0 m 342 703 l 443 703 l 493 972 l 353 972 l 342 703 "},"Ḹ":{"ha":756,"x_min":-44,"x_max":719,"o":"m 101 0 l 719 0 l 719 136 l 251 136 l 251 972 l 101 972 l 101 0 m 411 -285 q 482 -258 454 -285 q 510 -187 510 -231 q 482 -116 510 -143 q 411 -89 454 -89 q 341 -116 369 -89 q 313 -187 313 -143 q 341 -258 313 -231 q 411 -285 369 -285 m -44 1064 l 397 1064 l 397 1179 l -44 1179 l -44 1064 "},"Ł":{"ha":842,"x_min":17,"x_max":806,"o":"m 188 0 l 806 0 l 806 136 l 339 136 l 339 972 l 188 972 l 188 0 m 65 319 l 510 546 l 463 640 l 17 415 l 65 319 "},"Ŀ":{"ha":756,"x_min":101,"x_max":719,"o":"m 101 0 l 719 0 l 719 136 l 251 136 l 251 972 l 101 972 l 101 0 m 542 404 q 613 431 585 404 q 640 501 640 458 q 613 572 640 544 q 542 599 585 599 q 472 572 500 599 q 443 501 443 544 q 472 431 443 458 q 542 404 500 404 "},"Ń":{"ha":926,"x_min":101,"x_max":825,"o":"m 101 0 l 250 0 l 250 874 l 272 874 l 536 0 l 825 0 l 825 972 l 676 972 l 676 100 l 654 100 l 390 972 l 101 972 l 101 0 m 371 1053 l 503 1053 l 636 1228 l 467 1228 l 371 1053 "},"Ň":{"ha":926,"x_min":101,"x_max":825,"o":"m 101 0 l 250 0 l 250 874 l 272 874 l 536 0 l 825 0 l 825 972 l 676 972 l 676 100 l 654 100 l 390 972 l 101 972 l 101 0 m 376 1053 l 551 1053 l 719 1228 l 558 1228 l 475 1131 l 453 1131 l 369 1228 l 210 1228 l 376 1053 "},"Ñ":{"ha":926,"x_min":101,"x_max":825,"o":"m 101 0 l 250 0 l 250 874 l 272 874 l 536 0 l 825 0 l 825 972 l 676 972 l 676 100 l 654 100 l 390 972 l 101 972 l 101 0 m 301 1044 l 331 1088 q 354 1114 342 1101 q 386 1126 367 1126 q 419 1115 406 1126 q 449 1089 432 1104 q 496 1053 474 1065 q 550 1042 518 1042 q 615 1060 589 1042 q 661 1107 640 1078 l 706 1172 l 629 1229 l 599 1186 q 576 1160 588 1172 q 543 1149 564 1149 q 511 1159 525 1149 q 482 1185 497 1169 q 435 1220 457 1208 q 379 1232 413 1232 q 315 1215 342 1232 q 268 1167 289 1197 l 224 1103 l 301 1044 "},"Ò":{"ha":935,"x_min":76,"x_max":858,"o":"m 467 -19 q 752 81 646 -19 q 858 372 858 182 l 858 600 q 752 891 858 790 q 467 992 646 992 q 182 891 288 992 q 76 600 76 790 l 76 372 q 182 81 76 182 q 467 -19 288 -19 m 467 115 q 290 183 354 115 q 226 367 226 250 l 226 606 q 290 790 226 722 q 467 857 354 857 q 644 790 582 857 q 707 606 707 722 l 707 367 q 644 183 707 250 q 467 115 582 115 m 429 1054 l 561 1054 l 465 1229 l 296 1229 l 429 1054 "},"Ó":{"ha":935,"x_min":76,"x_max":858,"o":"m 467 -19 q 752 81 646 -19 q 858 372 858 182 l 858 600 q 752 891 858 790 q 467 992 646 992 q 182 891 288 992 q 76 600 76 790 l 76 372 q 182 81 76 182 q 467 -19 288 -19 m 467 115 q 290 183 354 115 q 226 367 226 250 l 226 606 q 290 790 226 722 q 467 857 354 857 q 644 790 582 857 q 707 606 707 722 l 707 367 q 644 183 707 250 q 467 115 582 115 m 374 1053 l 506 1053 l 639 1228 l 469 1228 l 374 1053 "},"Ô":{"ha":935,"x_min":76,"x_max":858,"o":"m 467 -19 q 752 81 646 -19 q 858 372 858 182 l 858 600 q 752 891 858 790 q 467 992 646 992 q 182 891 288 992 q 76 600 76 790 l 76 372 q 182 81 76 182 q 467 -19 288 -19 m 467 115 q 290 183 354 115 q 226 367 226 250 l 226 606 q 290 790 226 722 q 467 857 354 857 q 644 790 582 857 q 707 606 707 722 l 707 367 q 644 183 707 250 q 467 115 582 115 m 213 1053 l 372 1053 l 456 1149 l 478 1149 l 561 1053 l 722 1053 l 554 1228 l 379 1228 l 213 1053 "},"Õ":{"ha":935,"x_min":76,"x_max":858,"o":"m 467 -19 q 752 81 646 -19 q 858 372 858 182 l 858 600 q 752 891 858 790 q 467 992 646 992 q 182 891 288 992 q 76 600 76 790 l 76 372 q 182 81 76 182 q 467 -19 288 -19 m 467 115 q 290 183 354 115 q 226 367 226 250 l 226 606 q 290 790 226 722 q 467 857 354 857 q 644 790 582 857 q 707 606 707 722 l 707 367 q 644 183 707 250 q 467 115 582 115 m 304 1044 l 333 1088 q 357 1114 344 1101 q 389 1126 369 1126 q 422 1115 408 1126 q 451 1089 435 1104 q 499 1053 476 1065 q 553 1042 521 1042 q 617 1060 592 1042 q 664 1107 643 1078 l 708 1172 l 632 1229 l 601 1186 q 578 1160 590 1172 q 546 1149 567 1149 q 514 1159 528 1149 q 485 1185 500 1169 q 438 1220 460 1208 q 382 1232 415 1232 q 318 1215 344 1232 q 271 1167 292 1197 l 226 1103 l 304 1044 "},"Ö":{"ha":935,"x_min":76,"x_max":858,"o":"m 467 -19 q 752 81 646 -19 q 858 372 858 182 l 858 600 q 752 891 858 790 q 467 992 646 992 q 182 891 288 992 q 76 600 76 790 l 76 372 q 182 81 76 182 q 467 -19 288 -19 m 467 115 q 290 183 354 115 q 226 367 226 250 l 226 606 q 290 790 226 722 q 467 857 354 857 q 644 790 582 857 q 707 606 707 722 l 707 367 q 644 183 707 250 q 467 115 582 115 m 614 1051 q 683 1078 656 1051 q 711 1149 711 1104 q 683 1219 711 1193 q 614 1246 656 1246 q 544 1219 572 1246 q 515 1149 515 1193 q 544 1078 515 1104 q 614 1051 572 1051 m 322 1051 q 392 1078 364 1051 q 419 1149 419 1104 q 392 1219 419 1193 q 322 1246 364 1246 q 252 1219 281 1246 q 224 1149 224 1193 q 252 1078 224 1104 q 322 1051 281 1051 "},"Ō":{"ha":935,"x_min":76,"x_max":858,"o":"m 467 -19 q 752 81 646 -19 q 858 372 858 182 l 858 600 q 752 891 858 790 q 467 992 646 992 q 182 891 288 992 q 76 600 76 790 l 76 372 q 182 81 76 182 q 467 -19 288 -19 m 467 115 q 290 183 354 115 q 226 367 226 250 l 226 606 q 290 790 226 722 q 467 857 354 857 q 644 790 582 857 q 707 606 707 722 l 707 367 q 644 183 707 250 q 467 115 582 115 m 246 1064 l 688 1064 l 688 1179 l 246 1179 l 246 1064 "},"Ő":{"ha":935,"x_min":76,"x_max":858,"o":"m 467 -19 q 752 81 646 -19 q 858 372 858 182 l 858 600 q 752 891 858 790 q 467 992 646 992 q 182 891 288 992 q 76 600 76 790 l 76 372 q 182 81 76 182 q 467 -19 288 -19 m 467 115 q 290 183 354 115 q 226 367 226 250 l 226 606 q 290 790 226 722 q 467 857 354 857 q 644 790 582 857 q 707 606 707 722 l 707 367 q 644 183 707 250 q 467 115 582 115 m 488 1054 l 610 1054 l 742 1229 l 586 1229 l 488 1054 m 281 1054 l 392 1054 l 500 1229 l 357 1229 l 281 1054 "},"Ŏ":{"ha":935,"x_min":76,"x_max":858,"o":"m 467 -19 q 752 81 646 -19 q 858 372 858 182 l 858 600 q 752 891 858 790 q 467 992 646 992 q 182 891 288 992 q 76 600 76 790 l 76 372 q 182 81 76 182 q 467 -19 288 -19 m 467 115 q 290 183 354 115 q 226 367 226 250 l 226 606 q 290 790 226 722 q 467 857 354 857 q 644 790 582 857 q 707 606 707 722 l 707 367 q 644 183 707 250 q 467 115 582 115 m 468 1044 q 628 1093 571 1044 q 686 1224 686 1142 l 686 1229 l 567 1229 l 567 1224 q 542 1160 567 1185 q 468 1135 518 1135 q 393 1160 417 1135 q 369 1224 369 1185 l 369 1229 l 250 1229 l 250 1224 q 308 1093 250 1142 q 468 1044 365 1044 "},"Ø":{"ha":935,"x_min":76,"x_max":858,"o":"m 467 -19 q 752 81 646 -19 q 858 372 858 182 l 858 600 q 752 891 858 790 q 467 992 646 992 q 182 891 288 992 q 76 600 76 790 l 76 372 q 182 81 76 182 q 467 -19 288 -19 m 467 115 q 290 183 354 115 q 226 367 226 250 l 226 606 q 290 790 226 722 q 467 857 354 857 q 644 790 582 857 q 707 606 707 722 l 707 367 q 644 183 707 250 q 467 115 582 115 m 281 -125 l 751 1040 l 654 1081 l 183 -85 l 281 -125 "},"Œ":{"ha":1163,"x_min":76,"x_max":1107,"o":"m 546 0 l 1107 0 l 1107 136 l 694 136 l 694 421 l 1061 421 l 1061 557 l 694 557 l 694 836 l 1100 836 l 1100 972 l 546 972 l 546 0 m 546 0 l 546 128 q 302 209 378 128 q 226 432 226 290 l 226 540 q 302 763 226 682 q 546 844 378 844 l 546 972 q 199 860 322 972 q 76 532 76 747 l 76 440 q 199 113 76 226 q 546 0 322 0 "},"Ŕ":{"ha":878,"x_min":101,"x_max":814,"o":"m 101 0 l 251 0 l 251 383 l 547 383 q 610 361 590 383 q 629 301 629 339 l 629 0 l 781 0 l 781 322 q 749 416 781 383 q 664 451 717 449 l 664 474 q 770 551 726 496 q 814 697 814 606 l 814 713 q 776 851 814 793 q 669 941 738 910 q 510 972 600 972 l 101 972 l 101 0 m 251 519 l 251 836 l 493 836 q 619 795 575 836 q 663 683 663 754 l 663 672 q 618 560 663 601 q 493 519 574 519 l 251 519 m 329 1053 l 461 1053 l 594 1228 l 425 1228 l 329 1053 "},"Ř":{"ha":878,"x_min":101,"x_max":814,"o":"m 101 0 l 251 0 l 251 383 l 547 383 q 610 361 590 383 q 629 301 629 339 l 629 0 l 781 0 l 781 322 q 749 416 781 383 q 664 451 717 449 l 664 474 q 770 551 726 496 q 814 697 814 606 l 814 713 q 776 851 814 793 q 669 941 738 910 q 510 972 600 972 l 101 972 l 101 0 m 251 519 l 251 836 l 493 836 q 619 795 575 836 q 663 683 663 754 l 663 672 q 618 560 663 601 q 493 519 574 519 l 251 519 m 335 1053 l 510 1053 l 678 1228 l 517 1228 l 433 1131 l 411 1131 l 328 1228 l 168 1228 l 335 1053 "},"Ṝ":{"ha":878,"x_min":101,"x_max":814,"o":"m 101 0 l 251 0 l 251 383 l 547 383 q 610 361 590 383 q 629 301 629 339 l 629 0 l 781 0 l 781 322 q 749 416 781 383 q 664 451 717 449 l 664 474 q 770 551 726 496 q 814 697 814 606 l 814 713 q 776 851 814 793 q 669 941 738 910 q 510 972 600 972 l 101 972 l 101 0 m 251 519 l 251 836 l 493 836 q 619 795 575 836 q 663 683 663 754 l 663 672 q 618 560 663 601 q 493 519 574 519 l 251 519 m 438 -285 q 508 -258 481 -285 q 536 -187 536 -231 q 508 -116 536 -143 q 438 -89 481 -89 q 367 -116 396 -89 q 339 -187 339 -143 q 367 -258 339 -231 q 438 -285 396 -285 m 201 1064 l 643 1064 l 643 1179 l 201 1179 l 201 1064 "},"Ś":{"ha":846,"x_min":57,"x_max":790,"o":"m 432 -19 q 622 17 542 -19 q 747 119 703 54 q 790 272 790 185 q 749 415 790 360 q 635 503 707 471 q 468 557 563 536 l 417 569 q 313 601 354 583 q 249 648 271 619 q 228 721 228 676 q 277 823 228 786 q 415 860 326 860 q 522 842 476 860 q 594 785 568 824 q 619 683 619 746 l 619 633 l 768 633 l 768 683 q 722 854 768 786 q 597 957 676 922 q 415 992 517 992 q 239 958 314 992 q 122 864 164 925 q 79 717 79 803 q 117 578 79 632 q 223 491 154 524 q 385 436 292 458 l 436 424 q 546 391 500 408 q 617 344 592 374 q 642 269 642 315 q 589 156 642 200 q 432 113 536 113 q 267 164 329 113 q 206 318 206 215 l 206 353 l 57 353 l 57 318 q 105 134 57 210 q 238 19 153 58 q 432 -19 322 -19 m 328 1053 l 460 1053 l 593 1228 l 424 1228 l 328 1053 "},"Ŝ":{"ha":846,"x_min":57,"x_max":790,"o":"m 432 -19 q 622 17 542 -19 q 747 119 703 54 q 790 272 790 185 q 749 415 790 360 q 635 503 707 471 q 468 557 563 536 l 417 569 q 313 601 354 583 q 249 648 271 619 q 228 721 228 676 q 277 823 228 786 q 415 860 326 860 q 522 842 476 860 q 594 785 568 824 q 619 683 619 746 l 619 633 l 768 633 l 768 683 q 722 854 768 786 q 597 957 676 922 q 415 992 517 992 q 239 958 314 992 q 122 864 164 925 q 79 717 79 803 q 117 578 79 632 q 223 491 154 524 q 385 436 292 458 l 436 424 q 546 391 500 408 q 617 344 592 374 q 642 269 642 315 q 589 156 642 200 q 432 113 536 113 q 267 164 329 113 q 206 318 206 215 l 206 353 l 57 353 l 57 318 q 105 134 57 210 q 238 19 153 58 q 432 -19 322 -19 m 167 1053 l 326 1053 l 410 1149 l 432 1149 l 515 1053 l 676 1053 l 508 1228 l 333 1228 l 167 1053 "},"Š":{"ha":846,"x_min":57,"x_max":790,"o":"m 432 -19 q 622 17 542 -19 q 747 119 703 54 q 790 272 790 185 q 749 415 790 360 q 635 503 707 471 q 468 557 563 536 l 417 569 q 313 601 354 583 q 249 648 271 619 q 228 721 228 676 q 277 823 228 786 q 415 860 326 860 q 522 842 476 860 q 594 785 568 824 q 619 683 619 746 l 619 633 l 768 633 l 768 683 q 722 854 768 786 q 597 957 676 922 q 415 992 517 992 q 239 958 314 992 q 122 864 164 925 q 79 717 79 803 q 117 578 79 632 q 223 491 154 524 q 385 436 292 458 l 436 424 q 546 391 500 408 q 617 344 592 374 q 642 269 642 315 q 589 156 642 200 q 432 113 536 113 q 267 164 329 113 q 206 318 206 215 l 206 353 l 57 353 l 57 318 q 105 134 57 210 q 238 19 153 58 q 432 -19 322 -19 m 333 1053 l 508 1053 l 676 1228 l 515 1228 l 432 1131 l 410 1131 l 326 1228 l 167 1228 l 333 1053 "},"Ş":{"ha":846,"x_min":57,"x_max":790,"o":"m 432 -19 q 622 17 542 -19 q 747 119 703 54 q 790 272 790 185 q 749 415 790 360 q 635 503 707 471 q 468 557 563 536 l 417 569 q 313 601 354 583 q 249 648 271 619 q 228 721 228 676 q 277 823 228 786 q 415 860 326 860 q 522 842 476 860 q 594 785 568 824 q 619 683 619 746 l 619 633 l 768 633 l 768 683 q 722 854 768 786 q 597 957 676 922 q 415 992 517 992 q 239 958 314 992 q 122 864 164 925 q 79 717 79 803 q 117 578 79 632 q 223 491 154 524 q 385 436 292 458 l 436 424 q 546 391 500 408 q 617 344 592 374 q 642 269 642 315 q 589 156 642 200 q 432 113 536 113 q 267 164 329 113 q 206 318 206 215 l 206 353 l 57 353 l 57 318 q 105 134 57 210 q 238 19 153 58 q 432 -19 322 -19 m 442 -292 q 524 -279 486 -292 q 587 -240 563 -267 q 611 -171 611 -212 q 576 -87 611 -115 q 488 -58 540 -58 l 494 29 l 393 29 l 382 -114 l 433 -114 q 485 -124 468 -114 q 503 -156 503 -133 q 484 -188 503 -178 q 436 -199 465 -199 q 373 -190 401 -199 q 319 -171 344 -182 l 289 -258 q 358 -281 318 -271 q 442 -292 399 -292 "},"Ť":{"ha":817,"x_min":35,"x_max":782,"o":"m 333 0 l 483 0 l 483 836 l 782 836 l 782 972 l 35 972 l 35 836 l 333 836 l 333 0 m 321 1053 l 496 1053 l 664 1228 l 503 1228 l 419 1131 l 397 1131 l 314 1228 l 154 1228 l 321 1053 "},"Ŧ":{"ha":817,"x_min":35,"x_max":782,"o":"m 333 0 l 483 0 l 483 836 l 782 836 l 782 972 l 35 972 l 35 836 l 333 836 l 333 0 m 185 432 l 632 432 l 632 538 l 185 538 l 185 432 "},"Ù":{"ha":929,"x_min":94,"x_max":835,"o":"m 465 -19 q 663 22 579 -19 q 790 142 746 64 q 835 333 835 221 l 835 972 l 685 972 l 685 329 q 628 171 685 226 q 465 115 571 115 q 303 171 360 115 q 246 329 246 226 l 246 972 l 94 972 l 94 333 q 140 142 94 221 q 267 22 185 64 q 465 -19 350 -19 m 426 1054 l 558 1054 l 463 1229 l 293 1229 l 426 1054 "},"Ú":{"ha":929,"x_min":94,"x_max":835,"o":"m 465 -19 q 663 22 579 -19 q 790 142 746 64 q 835 333 835 221 l 835 972 l 685 972 l 685 329 q 628 171 685 226 q 465 115 571 115 q 303 171 360 115 q 246 329 246 226 l 246 972 l 94 972 l 94 333 q 140 142 94 221 q 267 22 185 64 q 465 -19 350 -19 m 371 1053 l 503 1053 l 636 1228 l 467 1228 l 371 1053 "},"Û":{"ha":929,"x_min":94,"x_max":835,"o":"m 465 -19 q 663 22 579 -19 q 790 142 746 64 q 835 333 835 221 l 835 972 l 685 972 l 685 329 q 628 171 685 226 q 465 115 571 115 q 303 171 360 115 q 246 329 246 226 l 246 972 l 94 972 l 94 333 q 140 142 94 221 q 267 22 185 64 q 465 -19 350 -19 m 210 1053 l 369 1053 l 453 1149 l 475 1149 l 558 1053 l 719 1053 l 551 1228 l 376 1228 l 210 1053 "},"Ũ":{"ha":929,"x_min":94,"x_max":835,"o":"m 465 -19 q 663 22 579 -19 q 790 142 746 64 q 835 333 835 221 l 835 972 l 685 972 l 685 329 q 628 171 685 226 q 465 115 571 115 q 303 171 360 115 q 246 329 246 226 l 246 972 l 94 972 l 94 333 q 140 142 94 221 q 267 22 185 64 q 465 -19 350 -19 m 301 1044 l 331 1088 q 354 1114 342 1101 q 386 1126 367 1126 q 419 1115 406 1126 q 449 1089 432 1104 q 496 1053 474 1065 q 550 1042 518 1042 q 615 1060 589 1042 q 661 1107 640 1078 l 706 1172 l 629 1229 l 599 1186 q 576 1160 588 1172 q 543 1149 564 1149 q 511 1159 525 1149 q 482 1185 497 1169 q 435 1220 457 1208 q 379 1232 413 1232 q 315 1215 342 1232 q 268 1167 289 1197 l 224 1103 l 301 1044 "},"Ü":{"ha":929,"x_min":94,"x_max":835,"o":"m 465 -19 q 663 22 579 -19 q 790 142 746 64 q 835 333 835 221 l 835 972 l 685 972 l 685 329 q 628 171 685 226 q 465 115 571 115 q 303 171 360 115 q 246 329 246 226 l 246 972 l 94 972 l 94 333 q 140 142 94 221 q 267 22 185 64 q 465 -19 350 -19 m 611 1051 q 681 1078 653 1051 q 708 1149 708 1104 q 681 1219 708 1193 q 611 1246 653 1246 q 541 1219 569 1246 q 513 1149 513 1193 q 541 1078 513 1104 q 611 1051 569 1051 m 319 1051 q 389 1078 361 1051 q 417 1149 417 1104 q 389 1219 417 1193 q 319 1246 361 1246 q 249 1219 278 1246 q 221 1149 221 1193 q 249 1078 221 1104 q 319 1051 278 1051 "},"Ū":{"ha":929,"x_min":94,"x_max":835,"o":"m 465 -19 q 663 22 579 -19 q 790 142 746 64 q 835 333 835 221 l 835 972 l 685 972 l 685 329 q 628 171 685 226 q 465 115 571 115 q 303 171 360 115 q 246 329 246 226 l 246 972 l 94 972 l 94 333 q 140 142 94 221 q 267 22 185 64 q 465 -19 350 -19 m 244 1064 l 686 1064 l 686 1179 l 244 1179 l 244 1064 "},"Ŭ":{"ha":929,"x_min":94,"x_max":835,"o":"m 465 -19 q 663 22 579 -19 q 790 142 746 64 q 835 333 835 221 l 835 972 l 685 972 l 685 329 q 628 171 685 226 q 465 115 571 115 q 303 171 360 115 q 246 329 246 226 l 246 972 l 94 972 l 94 333 q 140 142 94 221 q 267 22 185 64 q 465 -19 350 -19 m 465 1044 q 626 1093 568 1044 q 683 1224 683 1142 l 683 1229 l 564 1229 l 564 1224 q 540 1160 564 1185 q 465 1135 515 1135 q 390 1160 414 1135 q 367 1224 367 1185 l 367 1229 l 247 1229 l 247 1224 q 305 1093 247 1142 q 465 1044 363 1044 "},"Ů":{"ha":929,"x_min":94,"x_max":835,"o":"m 465 -19 q 663 22 579 -19 q 790 142 746 64 q 835 333 835 221 l 835 972 l 685 972 l 685 329 q 628 171 685 226 q 465 115 571 115 q 303 171 360 115 q 246 329 246 226 l 246 972 l 94 972 l 94 333 q 140 142 94 221 q 267 22 185 64 q 465 -19 350 -19 m 464 1039 q 563 1076 521 1039 q 606 1175 606 1113 q 565 1273 606 1235 q 464 1311 524 1311 q 365 1273 406 1311 q 324 1175 324 1235 q 365 1077 324 1115 q 464 1039 406 1039 m 464 1125 q 428 1139 442 1125 q 414 1175 414 1153 q 428 1211 414 1197 q 464 1225 442 1225 q 502 1211 489 1225 q 515 1175 515 1197 q 502 1139 515 1153 q 464 1125 489 1125 "},"Ű":{"ha":929,"x_min":94,"x_max":835,"o":"m 465 -19 q 663 22 579 -19 q 790 142 746 64 q 835 333 835 221 l 835 972 l 685 972 l 685 329 q 628 171 685 226 q 465 115 571 115 q 303 171 360 115 q 246 329 246 226 l 246 972 l 94 972 l 94 333 q 140 142 94 221 q 267 22 185 64 q 465 -19 350 -19 m 485 1054 l 607 1054 l 739 1229 l 583 1229 l 485 1054 m 278 1054 l 389 1054 l 497 1229 l 354 1229 l 278 1054 "},"Ų":{"ha":929,"x_min":94,"x_max":835,"o":"m 465 -19 q 663 22 579 -19 q 790 142 746 64 q 835 333 835 221 l 835 972 l 685 972 l 685 329 q 628 171 685 226 q 465 115 571 115 q 303 171 360 115 q 246 329 246 226 l 246 972 l 94 972 l 94 333 q 140 142 94 221 q 267 22 185 64 q 465 -19 350 -19 m 603 -232 l 699 -232 l 699 -131 l 638 -131 q 606 -101 606 -131 q 608 -83 606 -92 q 611 -62 610 -74 l 628 24 l 531 24 l 513 -51 q 503 -96 507 -74 q 500 -139 500 -118 q 528 -207 500 -182 q 603 -232 557 -232 "},"Ŵ":{"ha":1232,"x_min":46,"x_max":1185,"o":"m 189 0 l 453 0 l 604 883 l 626 883 l 779 0 l 1042 0 l 1185 972 l 1035 972 l 919 101 l 897 101 l 747 972 l 485 972 l 335 101 l 313 101 l 196 972 l 46 972 l 189 0 m 361 1053 l 521 1053 l 604 1149 l 626 1149 l 710 1053 l 871 1053 l 703 1228 l 528 1228 l 361 1053 "},"Ý":{"ha":857,"x_min":15,"x_max":842,"o":"m 353 0 l 504 0 l 504 353 l 842 972 l 672 972 l 439 532 l 418 532 l 185 972 l 15 972 l 353 353 l 353 0 m 335 1053 l 467 1053 l 600 1228 l 431 1228 l 335 1053 "},"Ŷ":{"ha":857,"x_min":15,"x_max":842,"o":"m 353 0 l 504 0 l 504 353 l 842 972 l 672 972 l 439 532 l 418 532 l 185 972 l 15 972 l 353 353 l 353 0 m 174 1053 l 333 1053 l 417 1149 l 439 1149 l 522 1053 l 683 1053 l 515 1228 l 340 1228 l 174 1053 "},"Ÿ":{"ha":857,"x_min":15,"x_max":842,"o":"m 353 0 l 504 0 l 504 353 l 842 972 l 672 972 l 439 532 l 418 532 l 185 972 l 15 972 l 353 353 l 353 0 m 575 1051 q 644 1078 617 1051 q 672 1149 672 1104 q 644 1219 672 1193 q 575 1246 617 1246 q 505 1219 533 1246 q 476 1149 476 1193 q 505 1078 476 1104 q 575 1051 533 1051 m 283 1051 q 353 1078 325 1051 q 381 1149 381 1104 q 353 1219 381 1193 q 283 1246 325 1246 q 213 1219 242 1246 q 185 1149 185 1193 q 213 1078 185 1104 q 283 1051 242 1051 "},"Ź":{"ha":801,"x_min":67,"x_max":738,"o":"m 67 0 l 738 0 l 738 135 l 221 135 l 221 154 l 732 778 l 732 972 l 82 972 l 82 838 l 578 838 l 578 818 l 67 194 l 67 0 m 308 1053 l 440 1053 l 574 1228 l 404 1228 l 308 1053 "},"Ž":{"ha":801,"x_min":67,"x_max":738,"o":"m 67 0 l 738 0 l 738 135 l 221 135 l 221 154 l 732 778 l 732 972 l 82 972 l 82 838 l 578 838 l 578 818 l 67 194 l 67 0 m 314 1053 l 489 1053 l 657 1228 l 496 1228 l 413 1131 l 390 1131 l 307 1228 l 147 1228 l 314 1053 "},"Ż":{"ha":801,"x_min":67,"x_max":738,"o":"m 67 0 l 738 0 l 738 135 l 221 135 l 221 154 l 732 778 l 732 972 l 82 972 l 82 838 l 578 838 l 578 818 l 67 194 l 67 0 m 403 1051 q 474 1078 446 1051 q 501 1149 501 1106 q 474 1219 501 1192 q 403 1246 446 1246 q 333 1219 361 1246 q 304 1149 304 1192 q 333 1078 304 1106 q 403 1051 361 1051 "},"Þ":{"ha":838,"x_min":101,"x_max":796,"o":"m 251 201 l 488 201 q 644 237 575 201 q 755 338 714 272 q 796 492 796 403 l 796 510 q 756 665 796 600 q 647 765 717 729 q 488 800 576 800 l 251 800 l 251 664 l 472 664 q 599 622 551 664 q 646 507 646 581 l 646 494 q 599 379 646 421 q 472 338 551 338 l 251 338 l 251 201 m 101 0 l 251 0 l 251 972 l 101 972 l 101 0 "},"Ŋ":{"ha":926,"x_min":101,"x_max":825,"o":"m 101 0 l 251 0 l 251 874 l 274 874 l 536 0 l 825 0 l 825 972 l 675 972 l 675 100 l 653 100 l 390 972 l 101 972 l 101 0 m 503 -278 l 689 -278 q 788 -242 751 -278 q 825 -140 825 -206 l 825 0 l 679 0 l 679 -115 q 640 -157 679 -157 l 503 -157 l 503 -278 "},"Ĳ":{"ha":1006,"x_min":54,"x_max":944,"o":"m 508 -19 q 747 61 663 -19 q 831 294 831 142 l 831 835 l 944 835 l 944 972 l 564 972 l 564 835 l 679 835 l 679 294 q 637 167 679 214 q 506 121 594 121 q 368 168 415 121 q 321 294 321 215 l 321 318 l 169 318 l 169 294 q 260 63 169 144 q 508 -19 351 -19 m 169 463 l 321 463 l 321 836 l 435 836 l 435 972 l 54 972 l 54 836 l 169 836 l 169 463 "},"":{"ha":1008,"x_min":54,"x_max":944,"o":"m 508 -19 q 747 61 663 -19 q 831 294 831 142 l 831 835 l 944 835 l 944 972 l 564 972 l 564 835 l 679 835 l 679 294 q 637 167 679 214 q 506 121 594 121 q 368 168 415 121 q 321 294 321 215 l 321 318 l 169 318 l 169 294 q 260 63 169 144 q 508 -19 351 -19 m 169 463 l 321 463 l 321 836 l 435 836 l 435 972 l 54 972 l 54 836 l 169 836 l 169 463 m 151 1053 l 283 1053 l 417 1228 l 247 1228 l 151 1053 m 661 1053 l 793 1053 l 938 1228 l 768 1228 l 661 1053 "},"à":{"ha":801,"x_min":61,"x_max":768,"o":"m 318 -19 q 432 1 389 -19 q 497 49 475 21 q 531 97 519 76 l 551 97 l 551 93 q 582 25 551 50 q 661 0 613 0 l 768 0 l 768 119 l 710 119 q 671 161 671 119 l 671 443 q 594 636 671 568 q 385 704 518 704 q 238 676 299 704 q 140 603 176 649 q 86 503 103 558 l 219 460 q 271 550 232 515 q 383 585 310 585 q 494 549 458 585 q 531 453 531 513 l 531 408 l 322 408 q 188 385 247 408 q 95 315 129 361 q 61 197 61 268 q 95 79 61 128 q 187 6 129 31 q 318 -19 244 -19 m 339 99 q 240 126 276 99 q 204 201 204 154 q 239 273 204 249 q 331 297 274 297 l 531 297 l 531 283 q 478 148 531 197 q 339 99 425 99 m 350 775 l 479 775 l 375 972 l 210 972 l 350 775 "},"á":{"ha":801,"x_min":61,"x_max":768,"o":"m 318 -19 q 432 1 389 -19 q 497 49 475 21 q 531 97 519 76 l 551 97 l 551 93 q 582 25 551 50 q 661 0 613 0 l 768 0 l 768 119 l 710 119 q 671 161 671 119 l 671 443 q 594 636 671 568 q 385 704 518 704 q 238 676 299 704 q 140 603 176 649 q 86 503 103 558 l 219 460 q 271 550 232 515 q 383 585 310 585 q 494 549 458 585 q 531 453 531 513 l 531 408 l 322 408 q 188 385 247 408 q 95 315 129 361 q 61 197 61 268 q 95 79 61 128 q 187 6 129 31 q 318 -19 244 -19 m 339 99 q 240 126 276 99 q 204 201 204 154 q 239 273 204 249 q 331 297 274 297 l 531 297 l 531 283 q 478 148 531 197 q 339 99 425 99 m 301 768 l 431 768 l 571 967 l 406 967 l 301 768 "},"â":{"ha":801,"x_min":61,"x_max":768,"o":"m 318 -19 q 432 1 389 -19 q 497 49 475 21 q 531 97 519 76 l 551 97 l 551 93 q 582 25 551 50 q 661 0 613 0 l 768 0 l 768 119 l 710 119 q 671 161 671 119 l 671 443 q 594 636 671 568 q 385 704 518 704 q 238 676 299 704 q 140 603 176 649 q 86 503 103 558 l 219 460 q 271 550 232 515 q 383 585 310 585 q 494 549 458 585 q 531 453 531 513 l 531 408 l 322 408 q 188 385 247 408 q 95 315 129 361 q 61 197 61 268 q 95 79 61 128 q 187 6 129 31 q 318 -19 244 -19 m 339 99 q 240 126 276 99 q 204 201 204 154 q 239 273 204 249 q 331 297 274 297 l 531 297 l 531 283 q 478 148 531 197 q 339 99 425 99 m 138 768 l 288 768 l 379 878 l 401 878 l 493 768 l 643 768 l 476 967 l 304 967 l 138 768 "},"ã":{"ha":801,"x_min":61,"x_max":768,"o":"m 318 -19 q 432 1 389 -19 q 497 49 475 21 q 531 97 519 76 l 551 97 l 551 93 q 582 25 551 50 q 661 0 613 0 l 768 0 l 768 119 l 710 119 q 671 161 671 119 l 671 443 q 594 636 671 568 q 385 704 518 704 q 238 676 299 704 q 140 603 176 649 q 86 503 103 558 l 219 460 q 271 550 232 515 q 383 585 310 585 q 494 549 458 585 q 531 453 531 513 l 531 408 l 322 408 q 188 385 247 408 q 95 315 129 361 q 61 197 61 268 q 95 79 61 128 q 187 6 129 31 q 318 -19 244 -19 m 339 99 q 240 126 276 99 q 204 201 204 154 q 239 273 204 249 q 331 297 274 297 l 531 297 l 531 283 q 478 148 531 197 q 339 99 425 99 m 236 756 l 264 801 q 285 827 274 815 q 314 839 296 839 q 345 827 332 839 q 374 800 358 815 q 419 765 397 776 q 472 753 442 753 q 533 769 506 753 q 578 817 560 786 l 622 896 l 539 947 l 511 900 q 491 874 503 886 q 461 863 479 863 q 431 875 444 863 q 401 901 417 888 q 356 937 378 925 q 303 949 333 949 q 242 933 269 949 q 197 885 215 917 l 153 806 l 236 756 "},"ä":{"ha":801,"x_min":61,"x_max":768,"o":"m 318 -19 q 432 1 389 -19 q 497 49 475 21 q 531 97 519 76 l 551 97 l 551 93 q 582 25 551 50 q 661 0 613 0 l 768 0 l 768 119 l 710 119 q 671 161 671 119 l 671 443 q 594 636 671 568 q 385 704 518 704 q 238 676 299 704 q 140 603 176 649 q 86 503 103 558 l 219 460 q 271 550 232 515 q 383 585 310 585 q 494 549 458 585 q 531 453 531 513 l 531 408 l 322 408 q 188 385 247 408 q 95 315 129 361 q 61 197 61 268 q 95 79 61 128 q 187 6 129 31 q 318 -19 244 -19 m 339 99 q 240 126 276 99 q 204 201 204 154 q 239 273 204 249 q 331 297 274 297 l 531 297 l 531 283 q 478 148 531 197 q 339 99 425 99 m 526 774 q 597 800 569 774 q 625 871 625 826 q 597 942 625 915 q 526 968 569 968 q 458 942 486 968 q 429 871 429 915 q 458 800 429 826 q 526 774 486 774 m 254 774 q 324 800 296 774 q 351 871 351 826 q 324 942 351 915 q 254 968 296 968 q 184 942 213 968 q 156 871 156 915 q 184 800 156 826 q 254 774 213 774 "},"ā":{"ha":801,"x_min":61,"x_max":768,"o":"m 318 -19 q 432 1 389 -19 q 497 49 475 21 q 531 97 519 76 l 551 97 l 551 93 q 582 25 551 50 q 661 0 613 0 l 768 0 l 768 119 l 710 119 q 671 161 671 119 l 671 443 q 594 636 671 568 q 385 704 518 704 q 238 676 299 704 q 140 603 176 649 q 86 503 103 558 l 219 460 q 271 550 232 515 q 383 585 310 585 q 494 549 458 585 q 531 453 531 513 l 531 408 l 322 408 q 188 385 247 408 q 95 315 129 361 q 61 197 61 268 q 95 79 61 128 q 187 6 129 31 q 318 -19 244 -19 m 339 99 q 240 126 276 99 q 204 201 204 154 q 239 273 204 249 q 331 297 274 297 l 531 297 l 531 283 q 478 148 531 197 q 339 99 425 99 m 169 792 l 611 792 l 611 907 l 169 907 l 169 792 "},"ă":{"ha":801,"x_min":61,"x_max":768,"o":"m 318 -19 q 432 1 389 -19 q 497 49 475 21 q 531 97 519 76 l 551 97 l 551 93 q 582 25 551 50 q 661 0 613 0 l 768 0 l 768 119 l 710 119 q 671 161 671 119 l 671 443 q 594 636 671 568 q 385 704 518 704 q 238 676 299 704 q 140 603 176 649 q 86 503 103 558 l 219 460 q 271 550 232 515 q 383 585 310 585 q 494 549 458 585 q 531 453 531 513 l 531 408 l 322 408 q 188 385 247 408 q 95 315 129 361 q 61 197 61 268 q 95 79 61 128 q 187 6 129 31 q 318 -19 244 -19 m 339 99 q 240 126 276 99 q 204 201 204 154 q 239 273 204 249 q 331 297 274 297 l 531 297 l 531 283 q 478 148 531 197 q 339 99 425 99 m 392 764 q 550 815 492 764 q 608 958 608 867 l 608 967 l 488 967 l 488 960 q 464 890 488 918 q 392 861 440 861 q 318 890 342 861 q 294 960 294 918 l 294 967 l 174 967 l 174 958 q 232 815 174 867 q 392 764 290 764 "},"å":{"ha":801,"x_min":61,"x_max":768,"o":"m 318 -19 q 432 1 389 -19 q 497 49 475 21 q 531 97 519 76 l 551 97 l 551 93 q 582 25 551 50 q 661 0 613 0 l 768 0 l 768 119 l 710 119 q 671 161 671 119 l 671 443 q 594 636 671 568 q 385 704 518 704 q 238 676 299 704 q 140 603 176 649 q 86 503 103 558 l 219 460 q 271 550 232 515 q 383 585 310 585 q 494 549 458 585 q 531 453 531 513 l 531 408 l 322 408 q 188 385 247 408 q 95 315 129 361 q 61 197 61 268 q 95 79 61 128 q 187 6 129 31 q 318 -19 244 -19 m 339 99 q 240 126 276 99 q 204 201 204 154 q 239 273 204 249 q 331 297 274 297 l 531 297 l 531 283 q 478 148 531 197 q 339 99 425 99 m 390 751 q 490 788 447 751 q 532 888 532 825 q 491 985 532 947 q 390 1024 450 1024 q 291 985 332 1024 q 250 888 250 946 q 291 790 250 828 q 390 751 332 751 m 390 836 q 354 851 368 836 q 340 888 340 865 q 354 924 340 910 q 390 938 368 938 q 428 923 415 938 q 442 888 442 908 q 428 851 442 865 q 390 836 415 836 "},"ą":{"ha":801,"x_min":61,"x_max":775,"o":"m 318 -19 q 432 1 389 -19 q 497 49 475 21 q 531 97 519 76 l 551 97 l 551 93 q 582 25 551 50 q 661 0 613 0 l 768 0 l 768 119 l 710 119 q 671 161 671 119 l 671 443 q 594 636 671 568 q 385 704 518 704 q 238 676 299 704 q 140 603 176 649 q 86 503 103 558 l 219 460 q 271 550 232 515 q 383 585 310 585 q 494 549 458 585 q 531 453 531 513 l 531 408 l 322 408 q 188 385 247 408 q 95 315 129 361 q 61 197 61 268 q 95 79 61 128 q 187 6 129 31 q 318 -19 244 -19 m 339 99 q 240 126 276 99 q 204 201 204 154 q 239 273 204 249 q 331 297 274 297 l 531 297 l 531 283 q 478 148 531 197 q 339 99 425 99 m 679 -232 l 775 -232 l 775 -131 l 714 -131 q 682 -101 682 -131 q 684 -83 682 -92 q 688 -62 686 -74 l 704 24 l 607 24 l 589 -51 q 580 -96 583 -74 q 576 -139 576 -118 q 605 -207 576 -182 q 679 -232 633 -232 "},"æ":{"ha":1249,"x_min":61,"x_max":1182,"o":"m 881 -19 q 1013 3 960 -19 q 1103 64 1067 26 q 1165 143 1139 101 l 1056 217 q 994 140 1035 175 q 875 106 953 106 q 737 158 790 106 q 679 296 683 211 l 1182 296 l 1182 368 q 1144 540 1182 464 q 1036 660 1106 617 q 869 704 967 704 q 704 657 776 704 q 591 529 632 610 q 550 347 550 449 q 591 163 550 246 q 707 30 632 79 q 881 -19 782 -19 m 347 97 q 241 126 281 97 q 201 200 201 154 q 239 272 201 247 q 338 296 276 296 l 539 296 l 539 285 q 486 148 539 199 q 347 97 433 97 m 335 -19 q 468 3 415 -19 q 551 59 521 26 q 596 121 581 92 l 633 121 l 618 358 l 649 592 l 613 592 q 526 673 582 642 q 382 704 471 704 q 235 676 297 704 q 136 603 174 649 q 81 504 99 558 l 208 460 q 267 550 225 515 q 382 585 308 585 q 498 548 457 585 q 539 453 539 511 l 539 406 l 329 406 q 136 353 211 406 q 61 196 61 300 q 138 36 61 92 q 335 -19 215 -19 m 681 406 q 735 531 686 485 q 865 578 785 578 q 990 533 942 578 q 1040 406 1038 488 l 681 406 "},"ç":{"ha":822,"x_min":72,"x_max":763,"o":"m 424 -19 q 592 16 522 -19 q 703 111 661 51 q 763 242 746 171 l 624 274 q 564 155 611 201 q 426 108 517 108 q 319 135 367 108 q 243 213 271 161 q 215 336 215 264 l 215 349 q 243 472 215 421 q 319 549 271 522 q 426 576 367 576 q 528 554 488 576 q 590 494 568 532 q 619 411 613 457 l 758 440 q 703 572 746 513 q 592 668 661 632 q 424 704 522 704 q 245 662 325 704 q 119 541 165 619 q 72 351 72 463 l 72 333 q 119 143 72 222 q 245 22 165 64 q 424 -19 325 -19 m 426 -292 q 509 -279 471 -292 q 572 -240 547 -267 q 596 -171 596 -212 q 560 -87 596 -115 q 472 -58 525 -58 l 479 29 l 378 29 l 367 -114 l 418 -114 q 470 -124 453 -114 q 488 -156 488 -133 q 469 -188 488 -178 q 421 -199 450 -199 q 358 -190 386 -199 q 304 -171 329 -182 l 274 -258 q 343 -281 303 -271 q 426 -292 383 -292 "},"ć":{"ha":822,"x_min":72,"x_max":763,"o":"m 424 -19 q 592 16 522 -19 q 703 111 661 51 q 763 242 746 171 l 624 274 q 564 155 611 201 q 426 108 517 108 q 319 135 367 108 q 243 213 271 161 q 215 336 215 264 l 215 349 q 243 472 215 421 q 319 549 271 522 q 426 576 367 576 q 528 554 488 576 q 590 494 568 532 q 619 411 613 457 l 758 440 q 703 572 746 513 q 592 668 661 632 q 424 704 522 704 q 245 662 325 704 q 119 541 165 619 q 72 351 72 463 l 72 333 q 119 143 72 222 q 245 22 165 64 q 424 -19 325 -19 m 335 768 l 464 768 l 604 967 l 439 967 l 335 768 "},"ĉ":{"ha":822,"x_min":72,"x_max":763,"o":"m 424 -19 q 592 16 522 -19 q 703 111 661 51 q 763 242 746 171 l 624 274 q 564 155 611 201 q 426 108 517 108 q 319 135 367 108 q 243 213 271 161 q 215 336 215 264 l 215 349 q 243 472 215 421 q 319 549 271 522 q 426 576 367 576 q 528 554 488 576 q 590 494 568 532 q 619 411 613 457 l 758 440 q 703 572 746 513 q 592 668 661 632 q 424 704 522 704 q 245 662 325 704 q 119 541 165 619 q 72 351 72 463 l 72 333 q 119 143 72 222 q 245 22 165 64 q 424 -19 325 -19 m 171 768 l 321 768 l 413 878 l 435 878 l 526 768 l 676 768 l 510 967 l 338 967 l 171 768 "},"č":{"ha":822,"x_min":72,"x_max":763,"o":"m 424 -19 q 592 16 522 -19 q 703 111 661 51 q 763 242 746 171 l 624 274 q 564 155 611 201 q 426 108 517 108 q 319 135 367 108 q 243 213 271 161 q 215 336 215 264 l 215 349 q 243 472 215 421 q 319 549 271 522 q 426 576 367 576 q 528 554 488 576 q 590 494 568 532 q 619 411 613 457 l 758 440 q 703 572 746 513 q 592 668 661 632 q 424 704 522 704 q 245 662 325 704 q 119 541 165 619 q 72 351 72 463 l 72 333 q 119 143 72 222 q 245 22 165 64 q 424 -19 325 -19 m 338 768 l 510 768 l 676 967 l 526 967 l 435 857 l 413 857 l 321 967 l 171 967 l 338 768 "},"ċ":{"ha":822,"x_min":72,"x_max":763,"o":"m 424 -19 q 592 16 522 -19 q 703 111 661 51 q 763 242 746 171 l 624 274 q 564 155 611 201 q 426 108 517 108 q 319 135 367 108 q 243 213 271 161 q 215 336 215 264 l 215 349 q 243 472 215 421 q 319 549 271 522 q 426 576 367 576 q 528 554 488 576 q 590 494 568 532 q 619 411 613 457 l 758 440 q 703 572 746 513 q 592 668 661 632 q 424 704 522 704 q 245 662 325 704 q 119 541 165 619 q 72 351 72 463 l 72 333 q 119 143 72 222 q 245 22 165 64 q 424 -19 325 -19 m 425 778 q 496 805 468 778 q 524 875 524 832 q 496 945 524 918 q 425 972 468 972 q 355 945 383 972 q 326 875 326 918 q 355 805 326 832 q 425 778 383 778 "},"ð":{"ha":854,"x_min":72,"x_max":783,"o":"m 428 -19 q 615 28 535 -18 q 739 165 694 75 q 783 388 783 256 q 729 681 783 551 q 572 902 675 811 q 317 1040 468 993 l 272 928 q 505 798 417 881 q 619 607 593 715 l 597 607 q 515 670 565 646 q 390 694 465 694 q 230 650 301 693 q 115 530 158 607 q 72 349 72 453 l 72 333 q 117 149 72 229 q 242 24 163 68 q 428 -19 322 -21 m 426 108 q 274 169 333 108 q 215 338 215 231 l 215 344 q 274 513 215 453 q 426 574 333 574 q 580 513 521 574 q 639 344 639 453 l 639 338 q 612 215 639 267 q 537 135 585 163 q 426 108 489 108 m 397 746 l 590 1008 l 518 1061 l 326 797 l 397 746 "},"ď":{"ha":1000,"x_min":72,"x_max":1025,"o":"m 389 -19 q 542 17 489 -19 q 622 97 596 53 l 644 97 l 644 0 l 785 0 l 785 972 l 642 972 l 642 592 l 619 592 q 575 645 604 619 q 501 688 546 671 q 389 704 456 704 q 231 663 303 704 q 115 542 158 621 q 72 353 72 463 l 72 332 q 116 142 72 221 q 232 22 160 64 q 389 -19 304 -19 m 429 106 q 277 165 338 106 q 217 336 217 225 l 217 349 q 277 518 217 458 q 429 578 338 578 q 583 518 524 578 q 643 349 643 458 l 643 336 q 583 165 643 225 q 429 106 522 106 m 874 703 l 975 703 l 1025 972 l 885 972 l 874 703 "},"đ":{"ha":890,"x_min":72,"x_max":886,"o":"m 389 -19 q 542 17 489 -19 q 622 97 596 53 l 644 97 l 644 0 l 785 0 l 785 972 l 642 972 l 642 592 l 619 592 q 575 645 604 619 q 501 688 546 671 q 389 704 456 704 q 231 663 303 704 q 115 542 158 621 q 72 353 72 463 l 72 332 q 116 142 72 221 q 232 22 160 64 q 389 -19 304 -19 m 429 106 q 277 165 338 106 q 217 336 217 225 l 217 349 q 277 518 217 458 q 429 578 338 578 q 583 518 524 578 q 643 349 643 458 l 643 336 q 583 165 643 225 q 429 106 522 106 m 424 776 l 886 776 l 886 861 l 424 861 l 424 776 "},"è":{"ha":811,"x_min":72,"x_max":744,"o":"m 419 -19 q 572 10 513 -19 q 669 82 632 39 q 725 164 706 125 l 607 225 q 544 142 585 178 q 422 106 503 106 q 278 159 336 106 q 218 303 221 213 l 744 303 l 744 357 q 703 539 744 461 q 587 660 661 617 q 414 704 513 704 q 235 660 313 704 q 115 537 158 617 q 72 350 72 457 l 72 333 q 116 148 72 228 q 238 24 160 68 q 419 -19 315 -19 m 219 413 q 281 534 231 490 q 413 578 332 578 q 543 534 493 578 q 599 413 593 490 l 219 413 m 374 775 l 503 775 l 399 972 l 233 972 l 374 775 "},"é":{"ha":811,"x_min":72,"x_max":744,"o":"m 419 -19 q 572 10 513 -19 q 669 82 632 39 q 725 164 706 125 l 607 225 q 544 142 585 178 q 422 106 503 106 q 278 159 336 106 q 218 303 221 213 l 744 303 l 744 357 q 703 539 744 461 q 587 660 661 617 q 414 704 513 704 q 235 660 313 704 q 115 537 158 617 q 72 350 72 457 l 72 333 q 116 148 72 228 q 238 24 160 68 q 419 -19 315 -19 m 219 413 q 281 534 231 490 q 413 578 332 578 q 543 534 493 578 q 599 413 593 490 l 219 413 m 324 768 l 453 768 l 593 967 l 428 967 l 324 768 "},"ê":{"ha":811,"x_min":72,"x_max":744,"o":"m 419 -19 q 572 10 513 -19 q 669 82 632 39 q 725 164 706 125 l 607 225 q 544 142 585 178 q 422 106 503 106 q 278 159 336 106 q 218 303 221 213 l 744 303 l 744 357 q 703 539 744 461 q 587 660 661 617 q 414 704 513 704 q 235 660 313 704 q 115 537 158 617 q 72 350 72 457 l 72 333 q 116 148 72 228 q 238 24 160 68 q 419 -19 315 -19 m 219 413 q 281 534 231 490 q 413 578 332 578 q 543 534 493 578 q 599 413 593 490 l 219 413 m 161 768 l 311 768 l 403 878 l 425 878 l 517 768 l 667 768 l 500 967 l 328 967 l 161 768 "},"ě":{"ha":811,"x_min":72,"x_max":744,"o":"m 419 -19 q 572 10 513 -19 q 669 82 632 39 q 725 164 706 125 l 607 225 q 544 142 585 178 q 422 106 503 106 q 278 159 336 106 q 218 303 221 213 l 744 303 l 744 357 q 703 539 744 461 q 587 660 661 617 q 414 704 513 704 q 235 660 313 704 q 115 537 158 617 q 72 350 72 457 l 72 333 q 116 148 72 228 q 238 24 160 68 q 419 -19 315 -19 m 219 413 q 281 534 231 490 q 413 578 332 578 q 543 534 493 578 q 599 413 593 490 l 219 413 m 328 768 l 500 768 l 667 967 l 517 967 l 425 857 l 403 857 l 311 967 l 161 967 l 328 768 "},"ë":{"ha":811,"x_min":72,"x_max":744,"o":"m 419 -19 q 572 10 513 -19 q 669 82 632 39 q 725 164 706 125 l 607 225 q 544 142 585 178 q 422 106 503 106 q 278 159 336 106 q 218 303 221 213 l 744 303 l 744 357 q 703 539 744 461 q 587 660 661 617 q 414 704 513 704 q 235 660 313 704 q 115 537 158 617 q 72 350 72 457 l 72 333 q 116 148 72 228 q 238 24 160 68 q 419 -19 315 -19 m 219 413 q 281 534 231 490 q 413 578 332 578 q 543 534 493 578 q 599 413 593 490 l 219 413 m 550 774 q 621 800 593 774 q 649 871 649 826 q 621 942 649 915 q 550 968 593 968 q 481 942 510 968 q 453 871 453 915 q 481 800 453 826 q 550 774 510 774 m 278 774 q 347 800 319 774 q 375 871 375 826 q 347 942 375 915 q 278 968 319 968 q 208 942 236 968 q 179 871 179 915 q 208 800 179 826 q 278 774 236 774 "},"ē":{"ha":811,"x_min":72,"x_max":744,"o":"m 419 -19 q 572 10 513 -19 q 669 82 632 39 q 725 164 706 125 l 607 225 q 544 142 585 178 q 422 106 503 106 q 278 159 336 106 q 218 303 221 213 l 744 303 l 744 357 q 703 539 744 461 q 587 660 661 617 q 414 704 513 704 q 235 660 313 704 q 115 537 158 617 q 72 350 72 457 l 72 333 q 116 148 72 228 q 238 24 160 68 q 419 -19 315 -19 m 219 413 q 281 534 231 490 q 413 578 332 578 q 543 534 493 578 q 599 413 593 490 l 219 413 m 193 792 l 635 792 l 635 907 l 193 907 l 193 792 "},"ĕ":{"ha":811,"x_min":72,"x_max":744,"o":"m 419 -19 q 572 10 513 -19 q 669 82 632 39 q 725 164 706 125 l 607 225 q 544 142 585 178 q 422 106 503 106 q 278 159 336 106 q 218 303 221 213 l 744 303 l 744 357 q 703 539 744 461 q 587 660 661 617 q 414 704 513 704 q 235 660 313 704 q 115 537 158 617 q 72 350 72 457 l 72 333 q 116 148 72 228 q 238 24 160 68 q 419 -19 315 -19 m 219 413 q 281 534 231 490 q 413 578 332 578 q 543 534 493 578 q 599 413 593 490 l 219 413 m 414 764 q 572 815 514 764 q 631 958 631 867 l 631 967 l 510 967 l 510 960 q 486 890 510 918 q 414 861 463 861 q 340 890 364 861 q 317 960 317 918 l 317 967 l 196 967 l 196 958 q 254 815 196 867 q 414 764 313 764 "},"ę":{"ha":811,"x_min":72,"x_max":744,"o":"m 419 -19 q 572 10 513 -19 q 669 82 632 39 q 725 164 706 125 l 607 225 q 544 142 585 178 q 422 106 503 106 q 278 159 336 106 q 218 303 221 213 l 744 303 l 744 357 q 703 539 744 461 q 587 660 661 617 q 414 704 513 704 q 235 660 313 704 q 115 537 158 617 q 72 350 72 457 l 72 333 q 116 148 72 228 q 238 24 160 68 q 419 -19 315 -19 m 219 413 q 281 534 231 490 q 413 578 332 578 q 543 534 493 578 q 599 413 593 490 l 219 413 m 553 -232 l 649 -232 l 649 -131 l 588 -131 q 556 -101 556 -131 q 558 -83 556 -92 q 561 -62 560 -74 l 578 24 l 481 24 l 463 -51 q 453 -96 457 -74 q 450 -139 450 -118 q 478 -207 450 -182 q 553 -232 507 -232 "},"ė":{"ha":811,"x_min":72,"x_max":744,"o":"m 419 -19 q 572 10 513 -19 q 669 82 632 39 q 725 164 706 125 l 607 225 q 544 142 585 178 q 422 106 503 106 q 278 159 336 106 q 218 303 221 213 l 744 303 l 744 357 q 703 539 744 461 q 587 660 661 617 q 414 704 513 704 q 235 660 313 704 q 115 537 158 617 q 72 350 72 457 l 72 333 q 116 148 72 228 q 238 24 160 68 q 419 -19 315 -19 m 219 413 q 281 534 231 490 q 413 578 332 578 q 543 534 493 578 q 599 413 593 490 l 219 413 m 414 778 q 485 805 457 778 q 513 875 513 832 q 485 945 513 918 q 414 972 457 972 q 344 945 372 972 q 315 875 315 918 q 344 805 315 832 q 414 778 372 778 "},"ĝ":{"ha":889,"x_min":72,"x_max":783,"o":"m 72 339 q 115 155 72 232 q 231 37 158 78 q 390 -4 304 -4 q 503 13 458 -4 q 576 56 549 29 q 619 107 604 82 l 642 107 l 642 -111 q 601 -153 642 -153 l 185 -153 l 185 -278 l 646 -278 q 747 -240 710 -278 q 783 -140 783 -203 l 783 685 l 644 685 l 644 586 l 622 586 q 544 667 597 629 q 390 704 490 704 q 232 663 304 704 q 116 544 160 621 q 72 360 72 468 l 72 339 m 429 121 q 277 180 338 121 q 217 343 217 239 l 217 356 q 277 520 217 463 q 429 578 338 578 q 583 520 524 578 q 643 356 643 463 l 643 343 q 583 180 643 239 q 429 121 522 121 m 204 768 l 354 768 l 446 878 l 468 878 l 560 768 l 710 768 l 543 967 l 371 967 l 204 768 "},"ğ":{"ha":889,"x_min":72,"x_max":783,"o":"m 72 339 q 115 155 72 232 q 231 37 158 78 q 390 -4 304 -4 q 503 13 458 -4 q 576 56 549 29 q 619 107 604 82 l 642 107 l 642 -111 q 601 -153 642 -153 l 185 -153 l 185 -278 l 646 -278 q 747 -240 710 -278 q 783 -140 783 -203 l 783 685 l 644 685 l 644 586 l 622 586 q 544 667 597 629 q 390 704 490 704 q 232 663 304 704 q 116 544 160 621 q 72 360 72 468 l 72 339 m 429 121 q 277 180 338 121 q 217 343 217 239 l 217 356 q 277 520 217 463 q 429 578 338 578 q 583 520 524 578 q 643 356 643 463 l 643 343 q 583 180 643 239 q 429 121 522 121 m 458 764 q 617 815 558 764 q 675 958 675 867 l 675 967 l 554 967 l 554 960 q 531 890 554 918 q 458 861 507 861 q 385 890 408 861 q 361 960 361 918 l 361 967 l 240 967 l 240 958 q 299 815 240 867 q 458 764 357 764 "},"ġ":{"ha":889,"x_min":72,"x_max":783,"o":"m 72 339 q 115 155 72 232 q 231 37 158 78 q 390 -4 304 -4 q 503 13 458 -4 q 576 56 549 29 q 619 107 604 82 l 642 107 l 642 -111 q 601 -153 642 -153 l 185 -153 l 185 -278 l 646 -278 q 747 -240 710 -278 q 783 -140 783 -203 l 783 685 l 644 685 l 644 586 l 622 586 q 544 667 597 629 q 390 704 490 704 q 232 663 304 704 q 116 544 160 621 q 72 360 72 468 l 72 339 m 429 121 q 277 180 338 121 q 217 343 217 239 l 217 356 q 277 520 217 463 q 429 578 338 578 q 583 520 524 578 q 643 356 643 463 l 643 343 q 583 180 643 239 q 429 121 522 121 m 458 778 q 529 805 501 778 q 557 875 557 832 q 529 945 557 918 q 458 972 501 972 q 388 945 417 972 q 360 875 360 918 q 388 805 360 832 q 458 778 417 778 "},"ĥ":{"ha":854,"x_min":-78,"x_max":754,"o":"m 106 0 l 249 0 l 249 346 q 302 515 249 457 q 444 574 356 574 q 567 531 522 574 q 611 400 611 489 l 611 0 l 754 0 l 754 411 q 719 563 754 500 q 624 661 685 626 q 486 696 564 696 q 378 680 421 696 q 310 639 336 664 q 271 588 285 614 l 249 588 l 249 972 l 106 972 l 106 0 m -76 1053 l 83 1053 l 167 1149 l 189 1149 l 272 1053 l 433 1053 l 265 1228 l 90 1228 l -76 1053 "},"ħ":{"ha":854,"x_min":4,"x_max":754,"o":"m 106 0 l 249 0 l 249 346 q 302 515 249 457 q 444 574 356 574 q 567 531 522 574 q 611 400 611 489 l 611 0 l 754 0 l 754 411 q 719 563 754 500 q 624 661 685 626 q 486 696 564 696 q 378 680 421 696 q 310 639 336 664 q 271 588 285 614 l 249 588 l 249 972 l 106 972 l 106 0 m 4 776 l 467 776 l 467 861 l 4 861 l 4 776 "},"ì":{"ha":356,"x_min":-3,"x_max":267,"o":"m 106 0 l 249 0 l 249 685 l 106 685 l 106 0 m 138 775 l 267 775 l 163 972 l -3 972 l 138 775 "},"í":{"ha":356,"x_min":88,"x_max":358,"o":"m 106 0 l 249 0 l 249 685 l 106 685 l 106 0 m 88 768 l 217 768 l 357 967 l 192 967 l 88 768 "},"î":{"ha":356,"x_min":-75,"x_max":431,"o":"m 106 0 l 249 0 l 249 685 l 106 685 l 106 0 m -75 768 l 75 768 l 167 878 l 189 878 l 281 768 l 431 768 l 264 967 l 92 967 l -75 768 "},"ĩ":{"ha":356,"x_min":-60,"x_max":410,"o":"m 106 0 l 249 0 l 249 685 l 106 685 l 106 0 m 24 756 l 51 801 q 72 827 61 815 q 101 839 83 839 q 133 827 119 839 q 161 800 146 815 q 207 765 185 776 q 260 753 229 753 q 320 769 293 753 q 365 817 347 786 l 410 896 l 326 947 l 299 900 q 278 874 290 886 q 249 863 267 863 q 218 875 232 863 q 189 901 204 888 q 143 937 165 925 q 90 949 121 949 q 30 933 57 949 q -15 885 3 917 l -60 806 l 24 756 "},"ï":{"ha":356,"x_min":-57,"x_max":413,"o":"m 106 0 l 249 0 l 249 685 l 106 685 l 106 0 m 314 774 q 385 800 357 774 q 413 871 413 826 q 385 942 413 915 q 314 968 357 968 q 245 942 274 968 q 217 871 217 915 q 245 800 217 826 q 314 774 274 774 m 42 774 q 111 800 83 774 q 139 871 139 826 q 111 942 139 915 q 42 968 83 968 q -28 942 0 968 q -57 871 -57 915 q -28 800 -57 826 q 42 774 0 774 "},"ī":{"ha":356,"x_min":-43,"x_max":399,"o":"m 106 0 l 249 0 l 249 685 l 106 685 l 106 0 m -43 792 l 399 792 l 399 907 l -43 907 l -43 792 "},"į":{"ha":356,"x_min":79,"x_max":300,"o":"m 106 0 l 249 0 l 249 685 l 106 685 l 106 0 m 178 778 q 249 805 221 778 q 276 875 276 832 q 249 945 276 918 q 178 972 221 972 q 108 945 136 972 q 79 875 79 918 q 108 805 79 832 q 178 778 136 778 m 203 -232 l 299 -232 l 299 -131 l 238 -131 q 206 -101 206 -131 q 208 -83 206 -92 q 211 -62 210 -74 l 228 24 l 131 24 l 113 -51 q 103 -96 107 -74 q 100 -139 100 -118 q 128 -207 100 -182 q 203 -232 157 -232 "},"ĭ":{"ha":356,"x_min":-40,"x_max":394,"o":"m 106 0 l 249 0 l 249 685 l 106 685 l 106 0 m 178 764 q 336 815 278 764 q 394 958 394 867 l 394 967 l 274 967 l 274 960 q 250 890 274 918 q 178 861 226 861 q 104 890 128 861 q 81 960 81 918 l 81 967 l -40 967 l -40 958 q 18 815 -40 867 q 178 764 76 764 "},"ĵ":{"ha":358,"x_min":-72,"x_max":433,"o":"m -25 -278 l 114 -278 q 215 -240 179 -278 q 251 -140 251 -203 l 251 685 l 108 685 l 108 -112 q 68 -154 108 -154 l -25 -154 l -25 -278 m -72 768 l 78 768 l 169 878 l 192 878 l 283 768 l 433 768 l 267 967 l 94 967 l -72 768 "},"ĸ":{"ha":765,"x_min":106,"x_max":742,"o":"m 106 0 l 249 0 l 249 285 l 271 285 l 553 0 l 742 0 l 385 353 l 731 685 l 540 685 l 271 418 l 249 418 l 249 685 l 106 685 l 106 0 "},"ĺ":{"ha":356,"x_min":85,"x_max":349,"o":"m 106 0 l 249 0 l 249 972 l 106 972 l 106 0 m 85 1053 l 217 1053 l 350 1228 l 181 1228 l 85 1053 "},"ľ":{"ha":464,"x_min":106,"x_max":490,"o":"m 106 0 l 249 0 l 249 972 l 106 972 l 106 0 m 339 703 l 440 703 l 490 972 l 350 972 l 339 703 "},"ḹ":{"ha":356,"x_min":-43,"x_max":399,"o":"m 106 0 l 249 0 l 249 972 l 106 972 l 106 0 m 178 -285 q 249 -258 221 -285 q 276 -187 276 -231 q 249 -116 276 -143 q 178 -89 221 -89 q 108 -116 136 -89 q 79 -187 79 -143 q 108 -258 79 -231 q 178 -285 136 -285 m -43 1064 l 399 1064 l 399 1179 l -43 1179 l -43 1064 "},"ł":{"ha":549,"x_min":28,"x_max":521,"o":"m 72 268 l 521 494 l 476 582 l 28 356 l 72 268 m 203 0 l 346 0 l 346 972 l 203 972 l 203 0 "},"ŀ":{"ha":599,"x_min":106,"x_max":575,"o":"m 106 0 l 249 0 l 249 972 l 106 972 l 106 0 m 478 276 q 549 303 521 276 q 576 374 576 331 q 549 444 576 417 q 478 471 521 471 q 408 444 436 471 q 379 374 379 417 q 408 303 379 331 q 478 276 436 276 "},"ń":{"ha":854,"x_min":106,"x_max":754,"o":"m 106 0 l 249 0 l 249 346 q 302 515 249 457 q 444 574 356 574 q 567 531 522 574 q 611 400 611 489 l 611 0 l 754 0 l 754 411 q 719 563 754 500 q 624 661 685 626 q 486 696 564 696 q 338 660 388 696 q 268 582 288 624 l 246 582 l 246 685 l 106 685 l 106 0 m 335 768 l 464 768 l 604 967 l 439 967 l 335 768 "},"ň":{"ha":854,"x_min":106,"x_max":754,"o":"m 106 0 l 249 0 l 249 346 q 302 515 249 457 q 444 574 356 574 q 567 531 522 574 q 611 400 611 489 l 611 0 l 754 0 l 754 411 q 719 563 754 500 q 624 661 685 626 q 486 696 564 696 q 338 660 388 696 q 268 582 288 624 l 246 582 l 246 685 l 106 685 l 106 0 m 338 768 l 510 768 l 676 967 l 526 967 l 435 857 l 413 857 l 321 967 l 171 967 l 338 768 "},"ñ":{"ha":854,"x_min":106,"x_max":754,"o":"m 106 0 l 249 0 l 249 346 q 302 515 249 457 q 444 574 356 574 q 567 531 522 574 q 611 400 611 489 l 611 0 l 754 0 l 754 411 q 719 563 754 500 q 624 661 685 626 q 486 696 564 696 q 338 660 388 696 q 268 582 288 624 l 246 582 l 246 685 l 106 685 l 106 0 m 271 756 l 299 801 q 319 827 308 815 q 349 839 331 839 q 380 827 367 839 q 408 800 393 815 q 454 765 432 776 q 507 753 476 753 q 567 769 540 753 q 613 817 594 786 l 657 896 l 574 947 l 546 900 q 526 874 538 886 q 496 863 514 863 q 465 875 479 863 q 436 901 451 888 q 390 937 413 925 q 338 949 368 949 q 277 933 304 949 q 232 885 250 917 l 188 806 l 271 756 "},"ŉ":{"ha":854,"x_min":86,"x_max":754,"o":"m 106 0 l 249 0 l 249 346 q 302 515 249 457 q 444 574 356 574 q 567 531 522 574 q 611 400 611 489 l 611 0 l 754 0 l 754 411 q 719 563 754 500 q 624 661 685 626 q 486 696 564 696 q 338 660 388 696 q 268 582 288 624 l 246 582 l 246 685 l 106 685 l 106 0 m 106 768 l 147 768 q 274 890 274 768 l 274 1001 q 248 1074 274 1047 q 181 1101 222 1101 q 113 1075 139 1101 q 86 1007 86 1049 q 113 943 86 968 q 181 918 139 918 l 194 918 l 194 890 q 183 851 194 863 q 143 839 172 839 l 106 839 l 106 768 "},"ò":{"ha":854,"x_min":72,"x_max":782,"o":"m 426 -19 q 610 23 529 -19 q 736 144 690 65 q 782 332 782 224 l 782 353 q 736 540 782 461 q 610 661 690 618 q 426 704 529 704 q 244 661 324 704 q 118 540 164 618 q 72 353 72 461 l 72 332 q 118 144 72 224 q 244 23 164 65 q 426 -19 324 -19 m 426 108 q 274 169 333 108 q 215 336 215 229 l 215 349 q 274 516 215 456 q 426 576 333 576 q 581 516 522 576 q 639 349 639 456 l 639 336 q 580 169 639 229 q 426 108 521 108 m 388 775 l 517 775 l 413 972 l 247 972 l 388 775 "},"ó":{"ha":854,"x_min":72,"x_max":782,"o":"m 426 -19 q 610 23 529 -19 q 736 144 690 65 q 782 332 782 224 l 782 353 q 736 540 782 461 q 610 661 690 618 q 426 704 529 704 q 244 661 324 704 q 118 540 164 618 q 72 353 72 461 l 72 332 q 118 144 72 224 q 244 23 164 65 q 426 -19 324 -19 m 426 108 q 274 169 333 108 q 215 336 215 229 l 215 349 q 274 516 215 456 q 426 576 333 576 q 581 516 522 576 q 639 349 639 456 l 639 336 q 580 169 639 229 q 426 108 521 108 m 338 768 l 467 768 l 607 967 l 442 967 l 338 768 "},"ô":{"ha":854,"x_min":72,"x_max":782,"o":"m 426 -19 q 610 23 529 -19 q 736 144 690 65 q 782 332 782 224 l 782 353 q 736 540 782 461 q 610 661 690 618 q 426 704 529 704 q 244 661 324 704 q 118 540 164 618 q 72 353 72 461 l 72 332 q 118 144 72 224 q 244 23 164 65 q 426 -19 324 -19 m 426 108 q 274 169 333 108 q 215 336 215 229 l 215 349 q 274 516 215 456 q 426 576 333 576 q 581 516 522 576 q 639 349 639 456 l 639 336 q 580 169 639 229 q 426 108 521 108 m 174 768 l 324 768 l 415 878 l 438 878 l 529 768 l 679 768 l 513 967 l 340 967 l 174 768 "},"õ":{"ha":854,"x_min":72,"x_max":782,"o":"m 426 -19 q 610 23 529 -19 q 736 144 690 65 q 782 332 782 224 l 782 353 q 736 540 782 461 q 610 661 690 618 q 426 704 529 704 q 244 661 324 704 q 118 540 164 618 q 72 353 72 461 l 72 332 q 118 144 72 224 q 244 23 164 65 q 426 -19 324 -19 m 426 108 q 274 169 333 108 q 215 336 215 229 l 215 349 q 274 516 215 456 q 426 576 333 576 q 581 516 522 576 q 639 349 639 456 l 639 336 q 580 169 639 229 q 426 108 521 108 m 274 756 l 301 801 q 322 827 311 815 q 351 839 333 839 q 383 827 369 839 q 411 800 396 815 q 457 765 435 776 q 510 753 479 753 q 570 769 543 753 q 615 817 597 786 l 660 896 l 576 947 l 549 900 q 528 874 540 886 q 499 863 517 863 q 468 875 482 863 q 439 901 454 888 q 393 937 415 925 q 340 949 371 949 q 280 933 307 949 q 235 885 253 917 l 190 806 l 274 756 "},"ö":{"ha":854,"x_min":72,"x_max":782,"o":"m 426 -19 q 610 23 529 -19 q 736 144 690 65 q 782 332 782 224 l 782 353 q 736 540 782 461 q 610 661 690 618 q 426 704 529 704 q 244 661 324 704 q 118 540 164 618 q 72 353 72 461 l 72 332 q 118 144 72 224 q 244 23 164 65 q 426 -19 324 -19 m 426 108 q 274 169 333 108 q 215 336 215 229 l 215 349 q 274 516 215 456 q 426 576 333 576 q 581 516 522 576 q 639 349 639 456 l 639 336 q 580 169 639 229 q 426 108 521 108 m 563 774 q 633 800 606 774 q 661 871 661 826 q 633 942 661 915 q 563 968 606 968 q 494 942 522 968 q 465 871 465 915 q 494 800 465 826 q 563 774 522 774 m 290 774 q 360 800 332 774 q 388 871 388 826 q 360 942 388 915 q 290 968 332 968 q 220 942 249 968 q 192 871 192 915 q 220 800 192 826 q 290 774 249 774 "},"ō":{"ha":854,"x_min":72,"x_max":782,"o":"m 426 -19 q 610 23 529 -19 q 736 144 690 65 q 782 332 782 224 l 782 353 q 736 540 782 461 q 610 661 690 618 q 426 704 529 704 q 244 661 324 704 q 118 540 164 618 q 72 353 72 461 l 72 332 q 118 144 72 224 q 244 23 164 65 q 426 -19 324 -19 m 426 108 q 274 169 333 108 q 215 336 215 229 l 215 349 q 274 516 215 456 q 426 576 333 576 q 581 516 522 576 q 639 349 639 456 l 639 336 q 580 169 639 229 q 426 108 521 108 m 206 792 l 647 792 l 647 907 l 206 907 l 206 792 "},"ő":{"ha":854,"x_min":72,"x_max":782,"o":"m 426 -19 q 610 23 529 -19 q 736 144 690 65 q 782 332 782 224 l 782 353 q 736 540 782 461 q 610 661 690 618 q 426 704 529 704 q 244 661 324 704 q 118 540 164 618 q 72 353 72 461 l 72 332 q 118 144 72 224 q 244 23 164 65 q 426 -19 324 -19 m 426 108 q 274 169 333 108 q 215 336 215 229 l 215 349 q 274 516 215 456 q 426 576 333 576 q 581 516 522 576 q 639 349 639 456 l 639 336 q 580 169 639 229 q 426 108 521 108 m 454 768 l 572 768 l 694 967 l 543 967 l 454 768 m 240 768 l 357 768 l 454 967 l 314 967 l 240 768 "},"ŏ":{"ha":854,"x_min":72,"x_max":782,"o":"m 426 -19 q 610 23 529 -19 q 736 144 690 65 q 782 332 782 224 l 782 353 q 736 540 782 461 q 610 661 690 618 q 426 704 529 704 q 244 661 324 704 q 118 540 164 618 q 72 353 72 461 l 72 332 q 118 144 72 224 q 244 23 164 65 q 426 -19 324 -19 m 426 108 q 274 169 333 108 q 215 336 215 229 l 215 349 q 274 516 215 456 q 426 576 333 576 q 581 516 522 576 q 639 349 639 456 l 639 336 q 580 169 639 229 q 426 108 521 108 m 428 764 q 586 815 528 764 q 644 958 644 867 l 644 967 l 524 967 l 524 960 q 500 890 524 918 q 428 861 476 861 q 354 890 378 861 q 331 960 331 918 l 331 967 l 210 967 l 210 958 q 268 815 210 867 q 428 764 326 764 "},"ø":{"ha":854,"x_min":72,"x_max":782,"o":"m 426 -19 q 610 23 529 -19 q 736 144 690 65 q 782 332 782 224 l 782 353 q 736 540 782 461 q 610 661 690 618 q 426 704 529 704 q 244 661 324 704 q 118 540 164 618 q 72 353 72 461 l 72 332 q 118 144 72 224 q 244 23 164 65 q 426 -19 324 -19 m 426 108 q 274 169 333 108 q 215 336 215 229 l 215 349 q 274 516 215 456 q 426 576 333 576 q 581 516 522 576 q 639 349 639 456 l 639 336 q 580 169 639 229 q 426 108 521 108 m 215 -92 l 721 717 l 638 769 l 132 -39 l 215 -92 "},"œ":{"ha":1393,"x_min":72,"x_max":1325,"o":"m 419 -19 q 593 22 522 -19 q 703 136 664 64 l 725 136 q 833 23 760 65 q 1004 -19 906 -19 q 1155 10 1096 -19 q 1250 83 1214 40 q 1307 165 1286 125 l 1188 225 q 1125 142 1165 178 q 1004 106 1085 106 q 860 160 918 106 q 799 303 803 214 l 1325 303 l 1325 357 q 1284 539 1325 461 q 1169 660 1243 617 q 996 704 1094 704 q 836 662 907 704 q 725 549 765 619 l 703 549 q 593 663 664 621 q 419 704 522 704 q 241 661 319 704 q 117 540 163 618 q 72 353 72 461 l 72 332 q 117 144 72 224 q 241 23 163 65 q 419 -19 319 -19 m 426 108 q 274 169 333 108 q 215 336 215 229 l 215 349 q 274 515 215 456 q 426 575 333 575 q 580 515 521 575 q 639 349 639 456 l 639 336 q 579 169 639 229 q 426 108 519 108 m 800 413 q 861 532 810 486 q 994 578 913 578 q 1124 534 1074 578 q 1179 413 1175 490 l 800 413 "},"ŕ":{"ha":538,"x_min":106,"x_max":494,"o":"m 106 0 l 249 0 l 249 403 q 293 520 249 482 q 407 558 338 558 l 494 558 l 494 688 l 413 688 q 322 667 358 688 q 268 604 285 647 l 246 604 l 246 685 l 106 685 l 106 0 m 208 768 l 338 768 l 478 967 l 313 967 l 208 768 "},"ř":{"ha":538,"x_min":44,"x_max":550,"o":"m 106 0 l 249 0 l 249 403 q 293 520 249 482 q 407 558 338 558 l 494 558 l 494 688 l 413 688 q 322 667 358 688 q 268 604 285 647 l 246 604 l 246 685 l 106 685 l 106 0 m 211 768 l 383 768 l 550 967 l 400 967 l 308 857 l 286 857 l 194 967 l 44 967 l 211 768 "},"ṝ":{"ha":538,"x_min":76,"x_max":518,"o":"m 106 0 l 249 0 l 249 403 q 293 520 249 482 q 407 558 338 558 l 494 558 l 494 688 l 413 688 q 322 667 358 688 q 268 604 285 647 l 246 604 l 246 685 l 106 685 l 106 0 m 179 -285 q 250 -258 222 -285 q 278 -187 278 -231 q 250 -116 278 -143 q 179 -89 222 -89 q 109 -116 138 -89 q 81 -187 81 -143 q 109 -258 81 -231 q 179 -285 138 -285 m 76 792 l 518 792 l 518 907 l 76 907 l 76 792 "},"ś":{"ha":729,"x_min":64,"x_max":668,"o":"m 386 -19 q 592 38 515 -19 q 668 197 668 94 q 633 308 668 267 q 536 372 597 350 q 401 407 475 394 l 353 415 q 265 444 297 425 q 232 506 232 464 q 265 566 232 544 q 357 588 299 588 q 457 562 417 588 q 510 474 497 536 l 643 511 q 547 652 621 600 q 357 704 472 704 q 165 651 238 704 q 93 500 93 597 q 126 393 93 435 q 217 328 160 351 q 343 292 274 304 l 390 283 q 493 251 458 271 q 528 190 528 232 q 491 122 528 149 q 386 96 454 96 q 301 110 340 96 q 235 157 261 124 q 197 247 208 190 l 64 215 q 169 39 83 97 q 386 -19 256 -19 m 274 768 l 403 768 l 543 967 l 378 967 l 274 768 "},"ŝ":{"ha":729,"x_min":64,"x_max":668,"o":"m 386 -19 q 592 38 515 -19 q 668 197 668 94 q 633 308 668 267 q 536 372 597 350 q 401 407 475 394 l 353 415 q 265 444 297 425 q 232 506 232 464 q 265 566 232 544 q 357 588 299 588 q 457 562 417 588 q 510 474 497 536 l 643 511 q 547 652 621 600 q 357 704 472 704 q 165 651 238 704 q 93 500 93 597 q 126 393 93 435 q 217 328 160 351 q 343 292 274 304 l 390 283 q 493 251 458 271 q 528 190 528 232 q 491 122 528 149 q 386 96 454 96 q 301 110 340 96 q 235 157 261 124 q 197 247 208 190 l 64 215 q 169 39 83 97 q 386 -19 256 -19 m 110 768 l 260 768 l 351 878 l 374 878 l 465 768 l 615 768 l 449 967 l 276 967 l 110 768 "},"š":{"ha":729,"x_min":64,"x_max":668,"o":"m 386 -19 q 592 38 515 -19 q 668 197 668 94 q 633 308 668 267 q 536 372 597 350 q 401 407 475 394 l 353 415 q 265 444 297 425 q 232 506 232 464 q 265 566 232 544 q 357 588 299 588 q 457 562 417 588 q 510 474 497 536 l 643 511 q 547 652 621 600 q 357 704 472 704 q 165 651 238 704 q 93 500 93 597 q 126 393 93 435 q 217 328 160 351 q 343 292 274 304 l 390 283 q 493 251 458 271 q 528 190 528 232 q 491 122 528 149 q 386 96 454 96 q 301 110 340 96 q 235 157 261 124 q 197 247 208 190 l 64 215 q 169 39 83 97 q 386 -19 256 -19 m 276 768 l 449 768 l 615 967 l 465 967 l 374 857 l 351 857 l 260 967 l 110 967 l 276 768 "},"ş":{"ha":729,"x_min":64,"x_max":668,"o":"m 386 -19 q 592 38 515 -19 q 668 197 668 94 q 633 308 668 267 q 536 372 597 350 q 401 407 475 394 l 353 415 q 265 444 297 425 q 232 506 232 464 q 265 566 232 544 q 357 588 299 588 q 457 562 417 588 q 510 474 497 536 l 643 511 q 547 652 621 600 q 357 704 472 704 q 165 651 238 704 q 93 500 93 597 q 126 393 93 435 q 217 328 160 351 q 343 292 274 304 l 390 283 q 493 251 458 271 q 528 190 528 232 q 491 122 528 149 q 386 96 454 96 q 301 110 340 96 q 235 157 261 124 q 197 247 208 190 l 64 215 q 169 39 83 97 q 386 -19 256 -19 m 374 -292 q 456 -279 418 -292 q 519 -240 494 -267 q 543 -171 543 -212 q 508 -87 543 -115 q 419 -58 472 -58 l 426 29 l 325 29 l 314 -114 l 365 -114 q 417 -124 400 -114 q 435 -156 435 -133 q 416 -188 435 -178 q 368 -199 397 -199 q 305 -190 333 -199 q 251 -171 276 -182 l 221 -258 q 290 -281 250 -271 q 374 -292 331 -292 "},"ß":{"ha":888,"x_min":106,"x_max":851,"o":"m 581 -19 q 725 10 664 -19 q 819 91 786 39 q 851 211 851 143 q 824 322 851 278 q 749 394 796 365 q 646 444 703 422 l 603 463 q 563 501 563 478 q 570 522 563 513 q 593 540 578 531 q 670 595 635 565 q 728 667 706 625 q 750 768 750 710 q 713 883 750 832 q 613 963 676 933 q 464 992 549 992 q 278 946 360 992 q 151 813 197 900 q 106 606 106 726 l 106 0 l 249 0 l 249 611 q 281 763 249 707 q 364 845 314 819 q 464 871 414 871 q 567 842 526 871 q 608 764 608 814 q 578 682 608 715 q 508 624 547 649 q 441 566 465 596 q 417 489 417 536 q 444 414 417 447 q 526 358 471 381 l 582 338 q 648 307 619 324 q 694 268 676 290 q 711 211 711 246 q 676 130 711 161 q 581 99 642 99 q 475 131 515 99 q 422 226 435 164 l 292 188 q 340 85 304 132 q 435 9 375 38 q 581 -19 496 -19 "},"ſ":{"ha":496,"x_min":38,"x_max":499,"o":"m 188 0 l 331 0 l 331 810 q 371 851 331 851 l 499 851 l 499 972 l 325 972 q 225 935 263 972 q 188 835 188 897 l 188 685 l 38 685 l 38 564 l 188 564 l 188 0 "},"ť":{"ha":636,"x_min":38,"x_max":621,"o":"m 363 0 l 551 0 l 551 121 l 408 121 q 369 163 369 121 l 369 564 l 574 564 l 574 685 l 369 685 l 369 911 l 226 911 l 226 685 l 38 685 l 38 564 l 226 564 l 226 138 q 263 38 226 75 q 363 0 300 0 m 468 785 l 569 785 l 619 1054 l 479 1054 l 468 785 "},"ŧ":{"ha":636,"x_min":38,"x_max":574,"o":"m 363 0 l 551 0 l 551 121 l 408 121 q 369 163 369 121 l 369 564 l 574 564 l 574 685 l 369 685 l 369 911 l 226 911 l 226 685 l 38 685 l 38 564 l 226 564 l 226 138 q 264 37 226 74 q 363 0 301 0 m 38 297 l 574 297 l 574 396 l 38 396 l 38 297 "},"ù":{"ha":853,"x_min":99,"x_max":747,"o":"m 368 -12 q 515 24 465 -12 q 585 103 565 61 l 607 103 l 607 0 l 747 0 l 747 685 l 604 685 l 604 339 q 551 169 604 228 q 410 110 497 110 q 286 152 331 110 q 242 283 242 194 l 242 685 l 99 685 l 99 274 q 133 121 99 185 q 229 22 168 57 q 368 -12 290 -12 m 383 775 l 513 775 l 408 972 l 243 972 l 383 775 "},"ú":{"ha":853,"x_min":99,"x_max":747,"o":"m 368 -12 q 515 24 465 -12 q 585 103 565 61 l 607 103 l 607 0 l 747 0 l 747 685 l 604 685 l 604 339 q 551 169 604 228 q 410 110 497 110 q 286 152 331 110 q 242 283 242 194 l 242 685 l 99 685 l 99 274 q 133 121 99 185 q 229 22 168 57 q 368 -12 290 -12 m 333 768 l 463 768 l 603 967 l 438 967 l 333 768 "},"û":{"ha":853,"x_min":99,"x_max":747,"o":"m 368 -12 q 515 24 465 -12 q 585 103 565 61 l 607 103 l 607 0 l 747 0 l 747 685 l 604 685 l 604 339 q 551 169 604 228 q 410 110 497 110 q 286 152 331 110 q 242 283 242 194 l 242 685 l 99 685 l 99 274 q 133 121 99 185 q 229 22 168 57 q 368 -12 290 -12 m 169 768 l 319 768 l 411 878 l 433 878 l 525 768 l 675 768 l 508 967 l 336 967 l 169 768 "},"ũ":{"ha":853,"x_min":99,"x_max":747,"o":"m 368 -12 q 515 24 465 -12 q 585 103 565 61 l 607 103 l 607 0 l 747 0 l 747 685 l 604 685 l 604 339 q 551 169 604 228 q 410 110 497 110 q 286 152 331 110 q 242 283 242 194 l 242 685 l 99 685 l 99 274 q 133 121 99 185 q 229 22 168 57 q 368 -12 290 -12 m 269 756 l 297 801 q 318 827 307 815 q 347 839 329 839 q 378 827 365 839 q 407 800 392 815 q 453 765 431 776 q 506 753 475 753 q 566 769 539 753 q 611 817 593 786 l 656 896 l 572 947 l 544 900 q 524 874 536 886 q 494 863 513 863 q 464 875 478 863 q 435 901 450 888 q 389 937 411 925 q 336 949 367 949 q 276 933 303 949 q 231 885 249 917 l 186 806 l 269 756 "},"ü":{"ha":853,"x_min":99,"x_max":747,"o":"m 368 -12 q 515 24 465 -12 q 585 103 565 61 l 607 103 l 607 0 l 747 0 l 747 685 l 604 685 l 604 339 q 551 169 604 228 q 410 110 497 110 q 286 152 331 110 q 242 283 242 194 l 242 685 l 99 685 l 99 274 q 133 121 99 185 q 229 22 168 57 q 368 -12 290 -12 m 560 774 q 631 800 603 774 q 658 871 658 826 q 631 942 658 915 q 560 968 603 968 q 491 942 519 968 q 463 871 463 915 q 491 800 463 826 q 560 774 519 774 m 288 774 q 357 800 329 774 q 385 871 385 826 q 357 942 385 915 q 288 968 329 968 q 217 942 246 968 q 189 871 189 915 q 217 800 189 826 q 288 774 246 774 "},"ū":{"ha":853,"x_min":99,"x_max":747,"o":"m 368 -12 q 515 24 465 -12 q 585 103 565 61 l 607 103 l 607 0 l 747 0 l 747 685 l 604 685 l 604 339 q 551 169 604 228 q 410 110 497 110 q 286 152 331 110 q 242 283 242 194 l 242 685 l 99 685 l 99 274 q 133 121 99 185 q 229 22 168 57 q 368 -12 290 -12 m 203 792 l 644 792 l 644 907 l 203 907 l 203 792 "},"ŭ":{"ha":853,"x_min":99,"x_max":747,"o":"m 368 -12 q 515 24 465 -12 q 585 103 565 61 l 607 103 l 607 0 l 747 0 l 747 685 l 604 685 l 604 339 q 551 169 604 228 q 410 110 497 110 q 286 152 331 110 q 242 283 242 194 l 242 685 l 99 685 l 99 274 q 133 121 99 185 q 229 22 168 57 q 368 -12 290 -12 m 424 764 q 582 815 524 764 q 640 958 640 867 l 640 967 l 519 967 l 519 960 q 496 890 519 918 q 424 861 472 861 q 350 890 374 861 q 326 960 326 918 l 326 967 l 206 967 l 206 958 q 264 815 206 867 q 424 764 322 764 "},"ů":{"ha":853,"x_min":99,"x_max":747,"o":"m 368 -12 q 515 24 465 -12 q 585 103 565 61 l 607 103 l 607 0 l 747 0 l 747 685 l 604 685 l 604 339 q 551 169 604 228 q 410 110 497 110 q 286 152 331 110 q 242 283 242 194 l 242 685 l 99 685 l 99 274 q 133 121 99 185 q 229 22 168 57 q 368 -12 290 -12 m 422 751 q 522 788 479 751 q 564 888 564 825 q 523 985 564 947 q 422 1024 482 1024 q 323 985 364 1024 q 282 888 282 946 q 323 790 282 828 q 422 751 364 751 m 422 836 q 386 851 400 836 q 372 888 372 865 q 386 924 372 910 q 422 938 400 938 q 460 923 447 938 q 474 888 474 908 q 460 851 474 865 q 422 836 447 836 "},"ű":{"ha":853,"x_min":99,"x_max":747,"o":"m 368 -12 q 515 24 465 -12 q 585 103 565 61 l 607 103 l 607 0 l 747 0 l 747 685 l 604 685 l 604 339 q 551 169 604 228 q 410 110 497 110 q 286 152 331 110 q 242 283 242 194 l 242 685 l 99 685 l 99 274 q 133 121 99 185 q 229 22 168 57 q 368 -12 290 -12 m 451 768 l 569 768 l 692 967 l 540 967 l 451 768 m 238 768 l 354 768 l 451 967 l 311 967 l 238 768 "},"ų":{"ha":853,"x_min":99,"x_max":799,"o":"m 368 -12 q 515 24 465 -12 q 585 103 565 61 l 607 103 l 607 0 l 747 0 l 747 685 l 604 685 l 604 339 q 551 169 604 228 q 410 110 497 110 q 286 152 331 110 q 242 283 242 194 l 242 685 l 99 685 l 99 274 q 133 121 99 185 q 229 22 168 57 q 368 -12 290 -12 m 703 -232 l 799 -232 l 799 -131 l 738 -131 q 706 -101 706 -131 q 708 -83 706 -92 q 711 -62 710 -74 l 728 24 l 631 24 l 613 -51 q 603 -96 607 -74 q 600 -139 600 -118 q 628 -207 600 -182 q 703 -232 657 -232 "},"ŵ":{"ha":1100,"x_min":64,"x_max":1036,"o":"m 181 0 l 421 0 l 539 588 l 561 588 l 679 0 l 919 0 l 1036 685 l 893 685 l 807 96 l 785 96 l 667 685 l 435 685 l 315 96 l 293 96 l 207 685 l 64 685 l 181 0 m 297 768 l 447 768 l 539 878 l 561 878 l 653 768 l 803 768 l 636 967 l 464 967 l 297 768 "},"ý":{"ha":853,"x_min":99,"x_max":747,"o":"m 185 -278 l 610 -278 q 710 -240 674 -278 q 747 -140 747 -203 l 747 685 l 604 685 l 604 338 q 551 168 604 226 q 410 110 497 110 q 286 152 331 110 q 242 283 242 194 l 242 685 l 99 685 l 99 272 q 133 121 99 185 q 229 22 168 57 q 368 -12 290 -12 q 476 4 433 -12 q 545 47 519 21 q 583 100 571 72 l 606 100 l 606 -111 q 567 -153 606 -153 l 185 -153 l 185 -278 m 333 768 l 463 768 l 603 967 l 438 967 l 333 768 "},"ŷ":{"ha":853,"x_min":99,"x_max":747,"o":"m 185 -278 l 610 -278 q 710 -240 674 -278 q 747 -140 747 -203 l 747 685 l 604 685 l 604 338 q 551 168 604 226 q 410 110 497 110 q 286 152 331 110 q 242 283 242 194 l 242 685 l 99 685 l 99 272 q 133 121 99 185 q 229 22 168 57 q 368 -12 290 -12 q 476 4 433 -12 q 545 47 519 21 q 583 100 571 72 l 606 100 l 606 -111 q 567 -153 606 -153 l 185 -153 l 185 -278 m 171 768 l 321 768 l 413 878 l 435 878 l 526 768 l 676 768 l 510 967 l 338 967 l 171 768 "},"ÿ":{"ha":853,"x_min":99,"x_max":747,"o":"m 185 -278 l 610 -278 q 710 -240 674 -278 q 747 -140 747 -203 l 747 685 l 604 685 l 604 338 q 551 168 604 226 q 410 110 497 110 q 286 152 331 110 q 242 283 242 194 l 242 685 l 99 685 l 99 272 q 133 121 99 185 q 229 22 168 57 q 368 -12 290 -12 q 476 4 433 -12 q 545 47 519 21 q 583 100 571 72 l 606 100 l 606 -111 q 567 -153 606 -153 l 185 -153 l 185 -278 m 560 774 q 631 800 603 774 q 658 871 658 826 q 631 942 658 915 q 560 968 603 968 q 491 942 519 968 q 463 871 463 915 q 491 800 463 826 q 560 774 519 774 m 288 774 q 357 800 329 774 q 385 871 385 826 q 357 942 385 915 q 288 968 329 968 q 217 942 246 968 q 189 871 189 915 q 217 800 189 826 q 288 774 246 774 "},"ź":{"ha":721,"x_min":78,"x_max":649,"o":"m 78 0 l 649 0 l 649 121 l 232 121 l 232 139 l 638 508 l 638 685 l 92 685 l 92 564 l 482 564 l 482 544 l 78 175 l 78 0 m 268 768 l 397 768 l 538 967 l 372 967 l 268 768 "},"ž":{"ha":721,"x_min":78,"x_max":649,"o":"m 78 0 l 649 0 l 649 121 l 232 121 l 232 139 l 638 508 l 638 685 l 92 685 l 92 564 l 482 564 l 482 544 l 78 175 l 78 0 m 271 768 l 443 768 l 610 967 l 460 967 l 368 857 l 346 857 l 254 967 l 104 967 l 271 768 "},"ż":{"ha":721,"x_min":78,"x_max":649,"o":"m 78 0 l 649 0 l 649 121 l 232 121 l 232 139 l 638 508 l 638 685 l 92 685 l 92 564 l 482 564 l 482 544 l 78 175 l 78 0 m 358 778 q 429 805 401 778 q 457 875 457 832 q 429 945 457 918 q 358 972 401 972 q 288 945 317 972 q 260 875 260 918 q 288 805 260 832 q 358 778 317 778 "},"þ":{"ha":889,"x_min":106,"x_max":817,"o":"m 106 -278 l 249 -278 l 249 92 l 269 92 q 315 40 286 65 q 389 -3 343 14 q 501 -19 435 -19 q 659 22 588 -19 q 774 142 731 64 q 817 332 817 221 l 817 353 q 774 542 817 463 q 659 663 731 621 q 501 704 588 704 q 389 688 435 704 q 315 645 343 671 q 269 592 286 619 l 249 592 l 249 972 l 106 972 l 106 -278 m 460 106 q 308 165 368 106 q 247 336 247 225 l 247 349 q 308 518 247 458 q 460 578 368 578 q 614 518 554 578 q 674 349 674 458 l 674 336 q 614 165 674 225 q 460 106 554 106 "},"ŋ":{"ha":854,"x_min":106,"x_max":754,"o":"m 106 0 l 249 0 l 249 346 q 302 515 249 457 q 444 574 356 574 q 567 531 522 574 q 611 400 611 489 l 611 0 l 754 0 l 754 411 q 719 563 754 500 q 624 661 685 626 q 486 696 564 696 q 338 660 388 696 q 268 582 288 624 l 246 582 l 246 685 l 106 685 l 106 0 m 444 -278 l 621 -278 q 718 -240 682 -278 q 754 -142 754 -203 l 754 0 l 611 0 l 611 -112 q 572 -154 611 -154 l 444 -154 l 444 -278 "},"ĳ":{"ha":713,"x_min":79,"x_max":633,"o":"m 106 0 l 249 0 l 249 685 l 106 685 l 106 0 m 178 778 q 249 805 221 778 q 276 875 276 832 q 249 945 276 918 q 178 972 221 972 q 108 945 136 972 q 79 875 79 918 q 108 805 79 832 q 178 778 136 778 m 331 -278 l 469 -278 q 571 -240 535 -278 q 607 -140 607 -203 l 607 685 l 464 685 l 464 -112 q 424 -154 464 -154 l 331 -154 l 331 -278 m 536 778 q 607 805 579 778 q 635 875 635 832 q 607 945 635 918 q 536 972 579 972 q 466 945 494 972 q 438 875 438 918 q 466 805 438 832 q 536 778 494 778 "},"":{"ha":713,"x_min":88,"x_max":715,"o":"m 106 0 l 249 0 l 249 685 l 106 685 l 106 0 m 88 768 l 217 768 l 357 967 l 192 967 l 88 768 "},"ɑ":{"ha":918,"x_min":72,"x_max":882,"o":"m 389 -19 q 549 19 493 -19 q 631 113 604 58 l 651 113 l 651 103 q 682 28 651 56 q 761 0 713 0 l 882 0 l 882 119 l 824 119 q 785 161 785 119 l 785 685 l 644 685 l 644 586 l 622 586 q 542 668 596 632 q 389 704 489 704 q 232 663 304 704 q 116 542 160 621 q 72 353 72 464 l 72 332 q 115 142 72 221 q 231 22 158 64 q 389 -19 303 -19 m 429 106 q 277 165 338 106 q 217 336 217 225 l 217 349 q 277 518 217 458 q 429 578 338 578 q 583 518 522 578 q 643 349 643 458 l 643 336 q 583 165 643 225 q 429 106 524 106 "},"π":{"ha":817,"x_min":54,"x_max":746,"o":"m 158 0 l 301 0 l 301 564 l 497 564 l 497 138 q 535 38 497 75 q 635 0 572 0 l 746 0 l 746 121 l 681 121 q 640 163 640 121 l 640 564 l 746 564 l 746 685 l 54 685 l 54 564 l 158 564 l 158 0 "},"ª":{"ha":582,"x_min":51,"x_max":554,"o":"m 231 472 q 309 485 279 472 q 355 517 339 499 q 378 551 371 536 l 394 551 q 417 503 396 521 q 475 486 439 486 l 554 486 l 554 572 l 508 572 q 482 603 482 572 l 482 796 q 426 937 482 889 q 279 985 371 985 q 134 943 186 985 q 67 844 82 901 l 165 814 q 199 872 174 847 q 276 896 225 896 q 351 870 328 896 q 374 801 374 844 l 374 775 l 235 775 q 104 738 157 775 q 51 626 51 700 q 103 511 51 550 q 231 472 154 472 m 249 561 q 183 580 207 561 q 158 629 158 599 q 182 676 158 660 q 243 693 206 693 l 374 693 l 374 679 q 340 590 374 619 q 249 561 307 561 "},"º":{"ha":607,"x_min":49,"x_max":557,"o":"m 303 472 q 488 540 418 472 q 557 728 557 607 q 488 917 557 850 q 303 985 418 985 q 119 917 189 985 q 49 728 49 850 q 119 540 49 607 q 303 472 189 472 m 303 563 q 198 606 238 563 q 158 728 158 649 q 198 851 158 807 q 303 894 238 894 q 408 851 368 894 q 447 728 447 807 q 408 606 447 649 q 303 563 368 563 "},"†":{"ha":792,"x_min":94,"x_max":697,"o":"m 324 0 l 468 0 l 468 563 l 697 563 l 697 685 l 468 685 l 468 972 l 324 972 l 324 685 l 94 685 l 94 563 l 324 563 l 324 0 "},"‡":{"ha":792,"x_min":94,"x_max":697,"o":"m 324 0 l 468 0 l 468 258 l 697 258 l 697 381 l 468 381 l 468 594 l 697 594 l 697 717 l 468 717 l 468 972 l 324 972 l 324 717 l 94 717 l 94 594 l 324 594 l 324 381 l 94 381 l 94 258 l 324 258 l 324 0 "},"§":{"ha":675,"x_min":50,"x_max":611,"o":"m 344 -19 q 542 45 474 -19 q 610 213 610 110 l 610 222 q 602 279 610 253 q 581 329 594 306 q 611 447 611 378 q 552 587 611 536 q 372 661 493 638 q 256 699 301 675 q 211 778 211 724 q 246 849 211 825 q 335 874 281 874 q 409 858 378 874 q 457 816 440 843 q 474 753 474 789 l 474 726 l 600 726 l 600 764 q 525 931 600 871 q 332 992 450 992 q 205 966 261 992 q 115 893 149 940 q 82 778 82 846 l 82 771 q 115 658 82 706 q 90 606 99 633 q 82 544 82 578 q 145 398 82 450 q 329 325 208 346 q 447 284 413 310 q 481 208 481 258 q 446 128 481 157 q 344 99 411 99 q 219 142 261 99 q 178 260 178 186 l 178 279 l 50 279 l 50 256 q 129 56 50 131 q 344 -19 208 -19 m 472 411 q 428 427 451 421 q 371 439 404 433 q 253 476 296 453 q 211 544 211 499 q 221 581 211 565 q 272 562 244 571 q 331 547 300 553 q 446 508 413 533 q 479 442 479 483 q 478 425 479 432 q 472 411 476 418 "},"¶":{"ha":828,"x_min":31,"x_max":726,"o":"m 357 0 l 485 0 l 485 853 l 600 853 l 600 0 l 726 0 l 726 972 l 335 972 q 178 938 247 972 q 69 843 108 904 q 31 699 31 782 l 31 683 q 69 540 31 601 q 174 443 107 478 q 329 408 242 408 l 357 408 l 357 0 m 325 528 q 203 572 249 528 q 157 686 157 615 l 157 694 q 201 809 157 765 q 325 853 246 853 l 357 853 l 357 528 l 325 528 "},"©":{"ha":989,"x_min":76,"x_max":913,"o":"m 483 -17 l 507 -17 q 722 32 631 -17 q 863 174 814 81 q 913 406 913 268 l 913 567 q 863 798 913 704 q 722 940 814 892 q 507 989 631 989 l 483 989 q 268 940 360 989 q 126 798 176 892 q 76 567 76 704 l 76 406 q 126 174 76 268 q 268 32 176 81 q 483 -17 360 -17 m 486 96 q 272 173 347 96 q 196 404 196 250 l 196 568 q 272 799 196 722 q 486 876 347 876 l 504 876 q 717 799 642 876 q 793 568 793 722 l 793 404 q 717 173 793 250 q 504 96 642 96 l 486 96 m 500 200 q 645 254 597 200 q 693 397 693 308 l 693 419 l 579 419 l 579 390 q 559 328 579 350 q 500 307 539 307 q 439 329 463 307 q 415 392 415 351 l 415 581 q 438 645 415 622 q 500 668 461 668 q 560 645 542 668 q 579 586 579 622 l 579 554 l 693 554 l 693 578 q 644 720 693 665 q 499 775 596 775 q 355 719 410 775 q 300 560 300 664 l 300 413 q 354 255 300 310 q 500 200 408 200 "},"®":{"ha":726,"x_min":72,"x_max":656,"o":"m 364 414 q 513 451 447 414 q 617 553 579 488 q 656 703 656 618 q 617 853 656 788 q 513 955 579 918 q 364 992 447 992 q 215 955 281 992 q 110 853 149 918 q 72 703 72 788 q 110 553 72 618 q 215 451 149 488 q 364 414 281 414 m 364 471 q 194 534 258 471 q 131 703 131 597 q 194 872 131 808 q 364 935 258 935 q 533 872 469 935 q 596 703 596 808 q 533 534 596 597 q 364 471 469 471 m 264 551 l 319 551 l 319 665 l 389 665 q 418 636 418 665 l 418 551 l 475 551 l 475 635 q 465 670 475 656 q 431 686 454 685 l 431 697 q 473 728 460 708 q 486 775 486 749 q 460 835 486 810 q 382 860 433 860 l 264 860 l 264 551 m 319 715 l 319 808 l 383 808 q 418 795 407 808 q 429 763 429 782 q 418 730 429 744 q 383 715 407 715 l 319 715 "},"™":{"ha":776,"x_min":49,"x_max":708,"o":"m 354 664 l 411 664 l 411 921 l 424 921 l 488 664 l 575 664 l 640 921 l 653 921 l 653 664 l 708 664 l 708 972 l 601 972 l 538 715 l 526 715 l 461 972 l 354 972 l 354 664 m 153 664 l 210 664 l 210 921 l 313 921 l 313 972 l 49 972 l 49 921 l 153 921 l 153 664 "},"℠":{"ha":768,"x_min":63,"x_max":700,"o":"m 346 664 l 403 664 l 403 921 l 415 921 l 479 664 l 567 664 l 632 921 l 644 921 l 644 664 l 700 664 l 700 972 l 593 972 l 529 715 l 518 715 l 453 972 l 346 972 l 346 664 m 182 658 q 267 684 236 658 q 297 753 297 710 q 267 817 297 799 q 193 844 238 835 l 181 847 q 125 892 125 857 q 178 931 125 931 q 235 879 235 931 l 235 865 l 289 865 l 289 879 q 257 953 289 929 q 178 978 225 978 q 99 955 128 978 q 69 890 69 932 q 94 828 69 847 q 165 799 119 808 l 179 796 q 226 781 210 790 q 242 751 242 771 q 227 719 242 732 q 182 706 213 706 q 134 722 151 706 q 117 764 117 738 l 117 776 l 63 776 l 63 764 q 95 685 63 713 q 182 658 128 658 "},"#":{"ha":878,"x_min":57,"x_max":821,"o":"m 219 0 l 350 0 l 350 271 l 528 271 l 528 0 l 657 0 l 657 271 l 821 271 l 821 394 l 657 394 l 657 578 l 821 578 l 821 701 l 657 701 l 657 972 l 528 972 l 528 701 l 350 701 l 350 972 l 219 972 l 219 701 l 57 701 l 57 578 l 219 578 l 219 394 l 57 394 l 57 271 l 219 271 l 219 0 m 350 394 l 350 578 l 528 578 l 528 394 l 350 394 "},"¤":{"ha":861,"x_min":61,"x_max":800,"o":"m 151 117 l 235 200 q 326 154 276 169 q 431 139 375 139 q 535 154 485 139 q 626 200 585 169 l 710 117 l 800 207 l 717 290 q 761 381 744 332 q 778 486 778 431 q 761 590 778 540 q 717 682 744 640 l 800 765 l 710 856 l 626 772 q 535 817 585 800 q 431 833 485 833 q 326 817 375 833 q 235 772 276 800 l 151 856 l 61 765 l 144 682 q 99 590 114 640 q 83 486 83 540 q 99 381 83 431 q 144 290 114 332 l 61 207 l 151 117 m 431 264 q 318 293 368 264 q 239 373 268 322 q 210 486 210 424 q 239 600 210 550 q 319 680 268 650 q 431 710 369 710 q 543 680 493 710 q 622 600 593 650 q 651 486 651 550 q 622 372 651 422 q 543 293 593 322 q 431 264 493 264 "},"$":{"ha":846,"x_min":57,"x_max":790,"o":"m 432 -19 q 622 17 542 -19 q 747 119 703 54 q 790 272 790 185 q 749 415 790 360 q 636 503 708 471 q 469 557 564 536 l 418 569 q 315 601 357 583 q 252 648 274 619 q 231 721 231 676 q 279 823 231 786 q 417 860 328 860 q 524 842 478 860 q 597 785 571 824 q 622 683 622 746 l 622 633 l 771 633 l 771 683 q 724 854 771 786 q 598 957 678 922 q 417 992 518 992 q 240 958 315 992 q 124 864 165 925 q 82 717 82 803 q 119 578 82 632 q 225 491 157 524 q 386 436 293 458 l 438 424 q 547 391 501 408 q 617 344 593 374 q 642 269 642 315 q 589 156 642 200 q 432 113 536 113 q 267 164 329 113 q 206 318 206 215 l 206 353 l 57 353 l 57 318 q 105 134 57 210 q 238 19 153 58 q 432 -19 322 -19 m 363 -161 l 500 -161 l 500 1133 l 363 1133 l 363 -161 "},"£":{"ha":879,"x_min":76,"x_max":799,"o":"m 76 0 l 799 0 l 799 131 l 324 131 l 324 413 l 479 413 l 479 529 l 324 529 l 324 692 q 367 816 324 771 q 486 861 411 861 q 606 816 564 861 q 649 692 649 771 l 649 604 l 793 604 l 793 689 q 710 913 793 835 q 486 992 628 992 q 262 913 344 992 q 179 689 179 835 l 179 529 l 82 529 l 82 413 l 179 413 l 179 131 l 76 131 l 76 0 "},"¥":{"ha":861,"x_min":10,"x_max":851,"o":"m 356 0 l 506 0 l 506 383 l 531 394 l 851 972 l 679 972 l 442 533 l 419 533 l 182 972 l 10 972 l 331 394 l 356 383 l 356 0 m 132 178 l 729 178 l 729 296 l 132 296 l 132 178 m 132 374 l 729 374 l 729 492 l 132 492 l 132 374 "},"¢":{"ha":831,"x_min":76,"x_max":765,"o":"m 428 -19 q 596 16 526 -19 q 708 111 665 51 q 765 242 750 171 l 626 274 q 568 155 615 201 q 431 108 521 108 q 323 135 371 108 q 247 213 275 161 q 219 336 219 264 l 219 349 q 247 472 219 421 q 323 549 275 522 q 431 576 371 576 q 531 554 490 576 q 594 494 572 532 q 622 411 617 457 l 761 440 q 707 572 749 513 q 596 668 665 632 q 428 704 526 704 q 248 662 328 704 q 122 541 168 619 q 76 351 76 463 l 76 333 q 122 143 76 222 q 248 22 168 64 q 428 -19 328 -19 m 365 -161 l 496 -161 l 496 850 l 365 850 l 365 -161 "},"⁄":{"ha":894,"x_min":28,"x_max":867,"o":"m 107 -15 l 867 922 l 788 988 l 28 50 l 107 -15 "},"%":{"ha":1063,"x_min":42,"x_max":1021,"o":"m 196 -18 l 956 918 l 867 990 l 107 54 l 196 -18 m 797 -15 q 960 42 900 -15 q 1021 199 1021 100 l 1021 207 q 960 365 1021 307 q 797 422 899 422 q 635 365 694 422 q 575 207 575 307 l 575 199 q 635 42 575 100 q 797 -15 694 -15 m 797 82 q 720 113 749 82 q 692 193 692 143 l 692 213 q 720 294 692 264 q 797 325 749 325 q 876 294 847 325 q 904 213 904 264 l 904 193 q 876 113 904 143 q 797 82 847 82 m 265 550 q 428 608 368 550 q 488 764 488 665 l 488 774 q 427 931 488 874 q 265 988 367 988 q 102 931 163 988 q 42 774 42 874 l 42 764 q 102 608 42 665 q 265 550 163 550 m 265 647 q 187 678 215 647 q 158 760 158 710 l 158 779 q 187 860 158 829 q 265 890 215 890 q 342 860 314 890 q 371 779 371 829 l 371 760 q 342 678 371 710 q 265 647 314 647 "},"‰":{"ha":1344,"x_min":42,"x_max":1303,"o":"m 196 -18 l 956 918 l 867 990 l 107 54 l 196 -18 m 774 -15 q 913 43 865 -15 q 961 200 961 101 l 961 208 q 913 365 961 307 q 774 422 865 422 q 629 365 682 422 q 576 208 576 308 l 576 199 q 629 42 576 100 q 774 -15 682 -15 m 785 82 q 714 113 740 82 q 688 194 688 144 l 688 211 q 714 294 688 263 q 785 325 740 325 q 856 294 829 325 q 882 211 882 263 l 882 197 q 856 114 882 146 q 785 82 829 82 m 265 550 q 428 608 368 550 q 488 764 488 665 l 488 774 q 427 931 488 874 q 265 988 367 988 q 102 931 163 988 q 42 774 42 874 l 42 764 q 102 608 42 665 q 265 550 163 550 m 265 647 q 187 678 215 647 q 158 760 158 710 l 158 779 q 187 860 158 829 q 265 890 215 890 q 342 860 314 890 q 371 779 371 829 l 371 760 q 342 678 371 710 q 265 647 314 647 m 928 65 l 951 65 l 951 343 l 928 343 l 928 65 m 1094 82 q 1024 114 1050 82 q 997 197 997 146 l 997 211 q 1024 294 997 263 q 1094 325 1050 325 q 1165 294 1139 325 q 1192 211 1192 263 l 1192 194 q 1165 113 1192 144 q 1094 82 1139 82 m 1106 -15 q 1251 42 1199 -15 q 1303 199 1303 100 l 1303 208 q 1251 365 1303 308 q 1106 422 1199 422 q 966 365 1014 422 q 918 208 918 307 l 918 200 q 966 43 918 101 q 1106 -15 1014 -15 "},"¼":{"ha":1143,"x_min":24,"x_max":1119,"o":"m 181 -15 l 940 922 l 861 988 l 101 50 l 181 -15 m 915 0 l 1025 0 l 1025 107 l 1119 107 l 1119 197 l 1025 197 l 1025 486 l 836 486 l 625 213 l 625 107 l 915 107 l 915 0 m 746 197 l 746 213 l 897 407 l 915 407 l 915 197 l 746 197 "},"½":{"ha":1144,"x_min":24,"x_max":1103,"o":"m 181 -15 l 940 922 l 861 988 l 101 50 l 181 -15 m 675 0 l 1101 0 l 1101 90 l 790 90 q 821 138 793 121 q 914 169 849 156 q 1053 226 1003 189 q 1104 339 1104 264 q 1046 459 1104 414 q 897 504 988 504 q 746 460 806 504 q 679 328 686 415 l 789 321 q 822 392 792 371 q 897 414 853 414 q 967 394 940 414 q 994 340 994 374 q 962 284 994 306 q 861 247 929 263 q 721 179 767 226 q 675 51 675 132 l 675 0 "},"¾":{"ha":1240,"x_min":32,"x_max":1217,"o":"m 278 -15 l 1038 922 l 958 988 l 199 50 l 278 -15 m 1013 0 l 1122 0 l 1122 107 l 1217 107 l 1217 197 l 1122 197 l 1122 486 l 933 486 l 722 213 l 722 107 l 1013 107 l 1013 0 m 843 197 l 843 213 l 994 407 l 1013 407 l 1013 197 l 843 197 "},"⅓":{"ha":1196,"x_min":24,"x_max":1154,"o":"m 181 -15 l 940 922 l 861 988 l 101 50 l 181 -15 m 938 -18 q 1048 4 999 -18 q 1125 64 1097 26 q 1153 151 1153 101 q 1110 256 1153 222 q 989 292 1067 289 l 989 308 l 1151 388 l 1151 486 l 725 486 l 725 397 l 989 397 l 989 381 l 847 314 l 847 231 l 935 231 q 1016 212 988 231 q 1044 156 1044 193 q 1015 96 1044 119 q 938 72 986 72 q 860 97 893 72 q 822 165 826 122 l 714 154 q 784 27 721 72 q 938 -18 847 -18 "},"⅔":{"ha":1321,"x_min":38,"x_max":1279,"o":"m 306 -15 l 1065 922 l 986 988 l 226 50 l 306 -15 m 1063 -18 q 1173 4 1124 -18 q 1250 64 1222 26 q 1278 151 1278 101 q 1235 256 1278 222 q 1114 292 1192 289 l 1114 308 l 1276 388 l 1276 486 l 850 486 l 850 397 l 1114 397 l 1114 381 l 972 314 l 972 231 l 1060 231 q 1141 212 1113 231 q 1169 156 1169 193 q 1140 96 1169 119 q 1063 72 1111 72 q 985 97 1018 72 q 947 165 951 122 l 839 154 q 909 27 846 72 q 1063 -18 972 -18 "},"⅛":{"ha":1168,"x_min":24,"x_max":1124,"o":"m 181 -15 l 940 922 l 861 988 l 101 50 l 181 -15 m 904 -18 q 1065 23 1008 -18 q 1122 128 1122 64 q 1108 190 1122 167 q 1072 225 1093 213 q 1035 243 1051 238 l 1035 261 q 1085 292 1057 268 q 1114 367 1114 317 q 1056 467 1114 429 q 903 504 999 504 q 749 467 807 504 q 692 367 692 429 q 720 292 692 317 q 772 261 749 268 l 772 243 q 733 225 754 238 q 698 190 713 213 q 683 128 683 167 q 741 23 683 64 q 904 -18 799 -18 m 903 72 q 822 90 851 72 q 792 138 792 107 q 822 187 792 169 q 903 204 851 204 q 985 187 956 204 q 1015 138 1015 169 q 985 90 1015 107 q 903 72 956 72 m 903 294 q 828 311 856 294 q 800 354 800 328 q 828 398 800 382 q 904 414 856 414 q 979 398 951 414 q 1007 354 1007 382 q 979 311 1007 328 q 903 294 951 294 "},"⅜":{"ha":1265,"x_min":32,"x_max":1221,"o":"m 278 -15 l 1038 922 l 958 988 l 199 50 l 278 -15 m 1001 -18 q 1163 23 1106 -18 q 1219 128 1219 64 q 1205 190 1219 167 q 1169 225 1190 213 q 1132 243 1149 238 l 1132 261 q 1183 292 1154 268 q 1211 367 1211 317 q 1153 467 1211 429 q 1000 504 1096 504 q 847 467 904 504 q 789 367 789 429 q 817 292 789 317 q 869 261 846 268 l 869 243 q 831 225 851 238 q 795 190 810 213 q 781 128 781 167 q 838 23 781 64 q 1001 -18 896 -18 m 1000 72 q 919 90 949 72 q 889 138 889 107 q 919 187 889 169 q 1000 204 949 204 q 1083 187 1053 204 q 1113 138 1113 169 q 1083 90 1113 107 q 1000 72 1053 72 m 1000 294 q 925 311 953 294 q 897 354 897 328 q 925 398 897 382 q 1001 414 953 414 q 1076 398 1049 414 q 1104 354 1104 382 q 1076 311 1104 328 q 1000 294 1049 294 "},"⅝":{"ha":1260,"x_min":39,"x_max":1215,"o":"m 272 -15 l 1032 922 l 953 988 l 193 50 l 272 -15 m 996 -18 q 1157 23 1100 -18 q 1214 128 1214 64 q 1199 190 1214 167 q 1164 225 1185 213 q 1126 243 1143 238 l 1126 261 q 1177 292 1149 268 q 1206 367 1206 317 q 1148 467 1206 429 q 994 504 1090 504 q 841 467 899 504 q 783 367 783 429 q 812 292 783 317 q 864 261 840 268 l 864 243 q 825 225 846 238 q 790 190 804 213 q 775 128 775 167 q 833 23 775 64 q 996 -18 890 -18 m 994 72 q 913 90 943 72 q 883 138 883 107 q 913 187 883 169 q 994 204 943 204 q 1077 187 1047 204 q 1107 138 1107 169 q 1077 90 1107 107 q 994 72 1047 72 m 994 294 q 919 311 947 294 q 892 354 892 328 q 919 398 892 382 q 996 414 947 414 q 1071 398 1043 414 q 1099 354 1099 382 q 1071 311 1099 328 q 994 294 1043 294 "},"⅞":{"ha":1150,"x_min":18,"x_max":1106,"o":"m 164 -15 l 924 922 l 844 988 l 85 50 l 164 -15 m 888 -18 q 1049 23 992 -18 q 1106 128 1106 64 q 1091 190 1106 167 q 1056 225 1076 213 q 1018 243 1035 238 l 1018 261 q 1069 292 1040 268 q 1097 367 1097 317 q 1040 467 1097 429 q 886 504 982 504 q 733 467 790 504 q 675 367 675 429 q 703 292 675 317 q 756 261 732 268 l 756 243 q 717 225 738 238 q 681 190 696 213 q 667 128 667 167 q 724 23 667 64 q 888 -18 782 -18 m 886 72 q 805 90 835 72 q 775 138 775 107 q 805 187 775 169 q 886 204 835 204 q 969 187 939 204 q 999 138 999 169 q 969 90 999 107 q 886 72 939 72 m 886 294 q 811 311 839 294 q 783 354 783 328 q 811 398 783 382 q 888 414 839 414 q 963 398 935 414 q 990 354 990 382 q 963 311 990 328 q 886 294 935 294 "},"+":{"ha":861,"x_min":140,"x_max":721,"o":"m 363 196 l 499 196 l 499 421 l 721 421 l 721 551 l 499 551 l 499 776 l 363 776 l 363 551 l 140 551 l 140 421 l 363 421 l 363 196 "},"−":{"ha":861,"x_min":140,"x_max":721,"o":"m 140 421 l 721 421 l 721 551 l 140 551 l 140 421 "},"×":{"ha":861,"x_min":144,"x_max":717,"o":"m 236 201 l 431 394 l 625 201 l 717 293 l 524 486 l 717 679 l 625 771 l 431 579 l 236 771 l 144 679 l 338 486 l 144 293 l 236 201 "},"÷":{"ha":861,"x_min":140,"x_max":721,"o":"m 140 421 l 721 421 l 721 551 l 140 551 l 140 421 m 431 133 q 506 164 475 133 q 536 239 536 194 q 506 313 536 282 q 431 344 475 344 q 356 313 386 344 q 325 239 325 282 q 356 164 325 194 q 431 133 386 133 m 431 628 q 506 659 475 628 q 536 733 536 690 q 506 808 536 778 q 431 839 475 839 q 356 808 386 839 q 325 733 325 778 q 356 659 325 690 q 431 628 386 628 "},"=":{"ha":861,"x_min":140,"x_max":721,"o":"m 140 533 l 721 533 l 721 664 l 140 664 l 140 533 m 140 308 l 721 308 l 721 439 l 140 439 l 140 308 "},"<":{"ha":861,"x_min":139,"x_max":722,"o":"m 722 181 l 722 324 l 281 475 l 281 497 l 722 649 l 722 792 l 139 576 l 139 396 l 722 181 "},">":{"ha":861,"x_min":139,"x_max":722,"o":"m 139 181 l 722 396 l 722 576 l 139 792 l 139 649 l 582 497 l 582 475 l 139 324 l 139 181 "},"≤":{"ha":861,"x_min":139,"x_max":722,"o":"m 722 181 l 722 324 l 281 475 l 281 497 l 722 649 l 722 792 l 139 576 l 139 396 l 722 181 m 139 0 l 722 0 l 722 125 l 139 125 l 139 0 "},"≥":{"ha":861,"x_min":139,"x_max":722,"o":"m 139 181 l 722 396 l 722 576 l 139 792 l 139 649 l 582 497 l 582 475 l 139 324 l 139 181 m 139 0 l 722 0 l 722 125 l 139 125 l 139 0 "},"±":{"ha":861,"x_min":140,"x_max":721,"o":"m 363 215 l 499 215 l 499 422 l 721 422 l 721 553 l 499 553 l 499 758 l 363 758 l 363 553 l 140 553 l 140 422 l 363 422 l 363 215 m 140 0 l 721 0 l 721 131 l 140 131 l 140 0 "},"^":{"ha":861,"x_min":100,"x_max":761,"o":"m 100 589 l 264 589 l 419 879 l 442 879 l 599 589 l 761 589 l 539 972 l 322 972 l 100 589 "},"≠":{"ha":861,"x_min":140,"x_max":721,"o":"m 393 161 l 596 769 l 469 810 l 265 203 l 393 161 m 140 308 l 721 308 l 721 439 l 140 439 l 140 308 m 140 533 l 721 533 l 721 664 l 140 664 l 140 533 "},"~":{"ha":861,"x_min":88,"x_max":772,"o":"m 168 351 l 279 438 q 308 458 296 450 q 336 465 321 465 q 366 454 356 465 q 393 417 376 443 q 438 370 413 389 q 504 351 464 351 q 570 367 542 351 q 625 403 599 382 l 772 517 l 692 621 l 581 535 q 552 515 565 522 q 524 507 539 507 q 495 519 506 507 q 467 556 485 531 q 422 602 447 583 q 357 621 397 621 q 291 606 319 621 q 236 569 263 590 l 88 456 l 168 351 "},"≈":{"ha":861,"x_min":88,"x_max":772,"o":"m 168 489 l 279 576 q 308 597 296 589 q 336 604 321 604 q 366 593 356 604 q 393 556 376 582 q 438 508 413 526 q 504 490 464 490 q 570 506 542 490 q 625 542 599 521 l 772 656 l 692 760 l 581 672 q 552 652 565 660 q 524 644 539 644 q 495 656 506 644 q 467 693 485 668 q 422 740 447 722 q 357 758 397 758 q 291 744 319 758 q 236 707 263 729 l 88 593 l 168 489 m 168 213 l 279 300 q 308 320 296 313 q 336 328 321 328 q 366 317 356 328 q 393 279 376 306 q 438 232 413 250 q 504 214 464 214 q 570 229 542 214 q 625 265 599 244 l 772 379 l 692 483 l 581 396 q 552 376 565 383 q 524 368 539 368 q 495 380 506 368 q 468 415 485 392 q 422 464 447 446 q 357 482 397 482 q 291 467 319 482 q 236 431 263 453 l 88 317 l 168 213 "},"¬":{"ha":861,"x_min":140,"x_max":721,"o":"m 594 261 l 721 261 l 721 551 l 140 551 l 140 421 l 594 421 l 594 261 "},"∞":{"ha":861,"x_min":64,"x_max":797,"o":"m 274 272 q 362 292 324 272 q 419 346 400 311 l 442 346 q 499 292 461 311 q 588 272 538 272 q 696 299 649 272 q 770 374 743 326 q 797 486 797 422 q 770 598 797 550 q 696 673 743 646 q 588 700 649 700 q 499 681 538 700 q 442 626 461 661 l 419 626 q 362 681 400 661 q 274 700 324 700 q 165 673 213 700 q 91 598 118 646 q 64 486 64 550 q 91 374 64 422 q 165 299 118 326 q 274 272 213 272 m 279 394 q 217 419 242 394 q 192 486 192 444 q 217 553 192 528 q 279 578 242 578 q 343 553 318 578 q 368 486 368 528 q 343 419 368 444 q 279 394 318 394 m 582 394 q 518 419 543 394 q 493 486 493 444 q 518 553 493 528 q 582 578 543 578 q 644 553 619 578 q 669 486 669 528 q 644 419 669 444 q 582 394 619 394 "},"°":{"ha":539,"x_min":47,"x_max":492,"o":"m 269 557 q 382 585 332 557 q 462 662 432 613 q 492 774 492 711 q 462 887 492 838 q 382 964 432 936 q 269 992 332 992 q 157 964 207 992 q 77 887 107 936 q 47 775 47 838 q 77 662 47 711 q 157 585 107 613 q 269 557 207 557 m 269 669 q 194 699 224 669 q 165 774 165 728 q 194 851 165 822 q 269 879 224 879 q 344 851 315 879 q 374 775 374 822 q 344 699 374 728 q 269 669 315 669 "},"∂":{"ha":861,"x_min":78,"x_max":783,"o":"m 426 -19 q 620 32 540 -19 q 742 176 700 83 q 783 392 783 268 q 645 813 783 656 q 243 1001 507 971 l 219 871 q 389 831 311 861 q 522 751 467 801 q 600 628 578 700 l 579 628 q 507 684 553 664 q 393 704 461 704 q 228 658 299 704 q 117 531 157 611 q 78 350 78 451 l 78 333 q 122 152 78 232 q 246 26 167 72 q 426 -19 325 -19 m 428 115 q 319 142 367 115 q 247 219 272 169 q 221 336 221 269 l 221 349 q 247 463 221 413 q 319 541 272 513 q 428 569 367 569 q 535 542 489 569 q 608 465 581 514 q 635 350 635 415 q 609 225 635 278 q 538 144 583 172 q 428 115 492 115 "},"◊":{"ha":861,"x_min":72,"x_max":789,"o":"m 317 0 l 544 0 l 789 486 l 544 972 l 317 972 l 72 486 l 317 0 m 419 111 l 232 486 l 419 863 l 442 863 l 629 486 l 442 111 l 419 111 "},"∫":{"ha":861,"x_min":182,"x_max":679,"o":"m 182 -278 l 378 -278 q 466 -242 431 -278 q 501 -153 501 -206 l 501 800 q 539 842 501 842 l 679 842 l 679 972 l 483 972 q 395 936 431 972 q 360 847 360 900 l 360 -106 q 322 -147 360 -147 l 182 -147 l 182 -278 "},"√":{"ha":861,"x_min":56,"x_max":818,"o":"m 293 0 l 551 0 l 818 1189 l 669 1189 l 432 94 l 413 94 l 315 554 l 56 554 l 56 425 l 200 425 l 293 0 "},"∑":{"ha":861,"x_min":81,"x_max":793,"o":"m 81 -278 l 793 -278 l 793 -147 l 238 -147 l 238 -128 l 610 347 l 238 822 l 238 842 l 793 842 l 793 972 l 81 972 l 81 790 l 426 347 l 81 -96 l 81 -278 "},"∏":{"ha":861,"x_min":88,"x_max":767,"o":"m 88 -278 l 231 -278 l 231 842 l 624 842 l 624 -278 l 767 -278 l 767 972 l 88 972 l 88 -278 "},"Ω":{"ha":861,"x_min":64,"x_max":797,"o":"m 64 0 l 376 0 l 376 158 q 281 210 314 175 q 238 299 249 246 q 226 428 226 353 l 226 607 q 280 794 226 729 q 431 860 333 860 q 581 794 528 860 q 635 607 635 729 l 635 428 q 624 299 635 353 q 580 210 613 246 q 485 158 547 175 l 485 0 l 797 0 l 797 129 l 656 129 l 656 150 q 746 244 711 183 q 781 411 781 306 l 781 606 q 740 809 781 722 q 622 944 700 896 q 431 992 543 992 q 240 944 318 992 q 122 809 163 896 q 81 606 81 722 l 81 411 q 116 245 81 307 q 206 150 151 183 l 206 129 l 64 129 l 64 0 "},"Δ":{"ha":861,"x_min":38,"x_max":824,"o":"m 38 0 l 824 0 l 554 972 l 307 972 l 38 0 m 217 131 l 419 851 l 442 851 l 644 131 l 217 131 "},"`":{"ha":400,"x_min":65,"x_max":335,"o":"m 206 775 l 335 775 l 231 972 l 65 972 l 206 775 "},"´":{"ha":400,"x_min":65,"x_max":335,"o":"m 65 768 l 194 768 l 335 967 l 169 967 l 65 768 "},"ˆ":{"ha":636,"x_min":65,"x_max":571,"o":"m 65 768 l 215 768 l 307 878 l 329 878 l 421 768 l 571 768 l 404 967 l 232 967 l 65 768 "},"ˇ":{"ha":636,"x_min":65,"x_max":571,"o":"m 232 768 l 404 768 l 571 967 l 421 967 l 329 857 l 307 857 l 215 967 l 65 967 l 232 768 "},"˜":{"ha":600,"x_min":65,"x_max":535,"o":"m 149 756 l 176 801 q 197 827 186 815 q 226 839 208 839 q 258 827 244 839 q 286 800 271 815 q 332 765 310 776 q 385 753 354 753 q 445 769 418 753 q 490 817 472 786 l 535 896 l 451 947 l 424 900 q 403 874 415 886 q 374 863 392 863 q 343 875 357 863 q 314 901 329 888 q 268 937 290 925 q 215 949 246 949 q 155 933 182 949 q 110 885 128 917 l 65 806 l 149 756 "},"¨":{"ha":600,"x_min":65,"x_max":535,"o":"m 436 774 q 507 800 479 774 q 535 871 535 826 q 507 942 535 915 q 436 968 479 968 q 367 942 396 968 q 339 871 339 915 q 367 800 339 826 q 436 774 396 774 m 164 774 q 233 800 206 774 q 261 871 261 826 q 233 942 261 915 q 164 968 206 968 q 94 942 122 968 q 65 871 65 915 q 94 800 65 826 q 164 774 122 774 "},"¯":{"ha":572,"x_min":65,"x_max":507,"o":"m 65 792 l 507 792 l 507 907 l 65 907 l 65 792 "},"˘":{"ha":565,"x_min":65,"x_max":500,"o":"m 283 764 q 442 815 383 764 q 500 958 500 867 l 500 967 l 379 967 l 379 960 q 356 890 379 918 q 283 861 332 861 q 210 890 233 861 q 186 960 186 918 l 186 967 l 65 967 l 65 958 q 124 815 65 867 q 283 764 182 764 "},"˚":{"ha":413,"x_min":65,"x_max":347,"o":"m 206 751 q 305 788 263 751 q 347 888 347 825 q 306 985 347 947 q 206 1024 265 1024 q 106 985 147 1024 q 65 888 65 946 q 106 790 65 828 q 206 751 147 751 m 206 836 q 169 851 183 836 q 156 888 156 865 q 169 924 156 910 q 206 938 183 938 q 244 923 231 938 q 257 888 257 908 q 244 851 257 865 q 206 836 231 836 "},"˝":{"ha":585,"x_min":65,"x_max":519,"o":"m 279 768 l 397 768 l 519 967 l 368 967 l 279 768 m 65 768 l 182 768 l 279 967 l 139 967 l 65 768 "},"˙":{"ha":328,"x_min":65,"x_max":263,"o":"m 164 778 q 235 805 207 778 q 263 875 263 832 q 235 945 263 918 q 164 972 207 972 q 94 945 122 972 q 65 875 65 918 q 94 805 65 832 q 164 778 122 778 "},"¸":{"ha":453,"x_min":65,"x_max":388,"o":"m 218 -292 q 301 -279 263 -292 q 363 -240 339 -267 q 388 -171 388 -212 q 352 -87 388 -115 q 264 -58 317 -58 l 271 29 l 169 29 l 158 -114 l 210 -114 q 262 -124 244 -114 q 279 -156 279 -133 q 260 -188 279 -178 q 213 -199 242 -199 q 149 -190 178 -199 q 96 -171 121 -182 l 65 -258 q 135 -281 94 -271 q 218 -292 175 -292 "},"˛":{"ha":329,"x_min":65,"x_max":264,"o":"m 168 -232 l 264 -232 l 264 -131 l 203 -131 q 171 -101 171 -131 q 173 -83 171 -92 q 176 -62 175 -74 l 193 24 l 96 24 l 78 -51 q 69 -96 72 -74 q 65 -139 65 -118 q 94 -207 65 -182 q 168 -232 122 -232 "},"ﬁ":{"ha":928,"x_min":38,"x_max":850,"o":"m 229 0 l 372 0 l 372 564 l 679 564 l 679 685 l 372 685 l 372 810 q 413 851 372 851 l 533 851 l 533 972 l 367 972 q 267 935 304 972 q 229 835 229 897 l 229 685 l 38 685 l 38 564 l 229 564 l 229 0 m 679 0 l 822 0 l 822 685 l 679 685 l 679 0 m 751 774 q 822 801 793 774 q 850 871 850 828 q 822 942 850 915 q 751 968 793 968 q 681 942 710 968 q 653 871 653 915 q 681 801 653 828 q 751 774 710 774 "},"ﬂ":{"ha":928,"x_min":38,"x_max":822,"o":"m 229 0 l 372 0 l 372 564 l 569 564 l 569 685 l 372 685 l 372 810 q 413 851 372 851 l 543 851 l 543 972 l 367 972 q 267 935 304 972 q 229 835 229 897 l 229 685 l 38 685 l 38 564 l 229 564 l 229 0 m 679 0 l 822 0 l 822 972 l 679 972 l 679 0 "},"ƒ":{"ha":861,"x_min":111,"x_max":760,"o":"m 111 0 l 375 0 q 464 36 429 0 q 499 125 499 72 l 499 492 l 699 492 l 699 625 l 499 625 l 499 796 q 536 838 499 838 l 760 838 l 760 972 l 481 972 q 391 936 426 972 q 356 847 356 900 l 356 625 l 164 625 l 164 492 l 356 492 l 356 176 q 318 135 356 135 l 111 135 l 111 0 "},"́":{"ha":0,"x_min":65,"x_max":335,"o":"m 65 768 l 194 768 l 335 967 l 169 967 l 65 768 "},"¹":{"ha":356,"x_min":24,"x_max":294,"o":"m 188 486 l 294 486 l 294 972 l 106 972 l 24 756 l 128 756 l 169 872 l 188 872 l 188 486 "},"²":{"ha":507,"x_min":38,"x_max":467,"o":"m 38 486 l 464 486 l 464 576 l 153 576 q 183 624 156 607 q 276 656 211 642 q 416 713 365 675 q 467 825 467 750 q 408 945 467 900 q 260 990 350 990 q 108 946 168 990 q 42 814 49 901 l 151 807 q 185 878 154 857 q 260 900 215 900 q 330 880 303 900 q 357 826 357 860 q 324 770 357 792 q 224 733 292 749 q 83 665 129 713 q 38 538 38 618 l 38 486 "},"³":{"ha":514,"x_min":32,"x_max":471,"o":"m 256 468 q 366 490 317 468 q 443 550 415 513 q 471 638 471 588 q 428 742 471 708 q 307 778 385 775 l 307 794 l 469 874 l 469 972 l 43 972 l 43 883 l 307 883 l 307 867 l 165 800 l 165 717 l 253 717 q 334 698 306 717 q 363 642 363 679 q 333 582 363 606 q 256 558 304 558 q 178 583 211 558 q 140 651 144 608 l 32 640 q 102 513 39 558 q 256 468 165 468 "},"ⁱ":{"ha":283,"x_min":63,"x_max":221,"o":"m 88 486 l 196 486 l 196 972 l 88 972 l 88 486 m 142 1044 q 198 1066 175 1044 q 221 1121 221 1088 q 198 1175 221 1153 q 142 1197 175 1197 q 85 1175 108 1197 q 63 1121 63 1153 q 85 1066 63 1088 q 142 1044 108 1044 "},"ⁿ":{"ha":619,"x_min":75,"x_max":550,"o":"m 75 486 l 185 486 l 185 733 q 222 851 185 810 q 321 893 260 893 q 440 765 440 893 l 440 486 l 550 486 l 550 775 q 495 927 550 871 q 351 983 440 983 q 251 958 286 983 q 200 904 215 933 l 182 904 l 182 972 l 75 972 l 75 486 "},"ₔ":{"ha":578,"x_min":49,"x_max":529,"o":"m 288 -292 q 463 -222 397 -292 q 529 -43 529 -153 l 529 -32 q 500 99 529 42 q 417 190 471 157 q 290 222 363 222 q 144 182 196 222 q 67 96 92 142 l 151 53 q 197 110 167 88 q 286 133 226 133 q 386 93 349 133 q 424 -3 424 53 l 49 -3 l 49 -50 q 113 -224 49 -157 q 288 -292 178 -292 m 289 -203 q 194 -169 228 -203 q 157 -83 160 -135 l 424 -83 q 386 -169 419 -135 q 289 -203 353 -203 "},"Ǽ":{"ha":1147,"x_min":29,"x_max":1092,"o":"m 531 0 l 1092 0 l 1092 136 l 679 136 l 679 421 l 1046 421 l 1046 557 l 679 557 l 679 836 l 1085 836 l 1085 972 l 531 972 l 531 0 m 29 0 l 186 0 l 269 229 l 531 229 l 531 368 l 317 368 l 508 890 l 531 890 l 531 972 l 390 972 l 29 0 m 500 1053 l 632 1053 l 765 1228 l 596 1228 l 500 1053 "},"Ắ":{"ha":878,"x_min":29,"x_max":847,"o":"m 29 0 l 185 0 l 249 229 l 629 229 l 693 0 l 847 0 l 571 972 l 307 972 l 29 0 m 286 368 l 428 879 l 450 879 l 592 368 l 286 368 "},"Ặ":{"ha":878,"x_min":29,"x_max":847,"o":"m 29 0 l 185 0 l 249 229 l 629 229 l 693 0 l 847 0 l 571 972 l 307 972 l 29 0 m 286 368 l 428 879 l 450 879 l 592 368 l 286 368 m 439 -285 q 510 -258 482 -285 q 538 -187 538 -231 q 510 -116 538 -143 q 439 -89 482 -89 q 369 -116 397 -89 q 340 -187 340 -143 q 369 -258 340 -231 q 439 -285 397 -285 m 439 1044 q 599 1093 542 1044 q 657 1224 657 1142 l 657 1229 l 538 1229 l 538 1224 q 513 1160 538 1185 q 439 1135 489 1135 q 364 1160 388 1135 q 340 1224 340 1185 l 340 1229 l 221 1229 l 221 1224 q 278 1093 221 1142 q 439 1044 336 1044 "},"Ằ":{"ha":878,"x_min":29,"x_max":847,"o":"m 29 0 l 185 0 l 249 229 l 629 229 l 693 0 l 847 0 l 571 972 l 307 972 l 29 0 m 286 368 l 428 879 l 450 879 l 592 368 l 286 368 "},"Ẳ":{"ha":878,"x_min":29,"x_max":847,"o":"m 29 0 l 185 0 l 249 229 l 629 229 l 693 0 l 847 0 l 571 972 l 307 972 l 29 0 m 286 368 l 428 879 l 450 879 l 592 368 l 286 368 "},"Ẵ":{"ha":878,"x_min":29,"x_max":847,"o":"m 29 0 l 185 0 l 249 229 l 629 229 l 693 0 l 847 0 l 571 972 l 307 972 l 29 0 m 286 368 l 428 879 l 450 879 l 592 368 l 286 368 m 439 1044 q 599 1093 542 1044 q 657 1224 657 1142 l 657 1229 l 538 1229 l 538 1224 q 513 1160 538 1185 q 439 1135 489 1135 q 364 1160 388 1135 q 340 1224 340 1185 l 340 1229 l 221 1229 l 221 1224 q 278 1093 221 1142 q 439 1044 336 1044 m 275 1282 l 304 1325 q 328 1351 315 1339 q 360 1364 340 1364 q 392 1353 379 1364 q 422 1326 406 1342 q 469 1291 447 1303 q 524 1279 492 1279 q 588 1297 563 1279 q 635 1344 614 1315 l 679 1410 l 603 1467 l 572 1424 q 549 1398 561 1410 q 517 1386 538 1386 q 485 1397 499 1386 q 456 1422 471 1407 q 408 1458 431 1446 q 353 1469 386 1469 q 289 1452 315 1469 q 242 1404 263 1435 l 197 1340 l 275 1282 "},"Ǎ":{"ha":878,"x_min":29,"x_max":847,"o":"m 29 0 l 185 0 l 249 229 l 629 229 l 693 0 l 847 0 l 571 972 l 307 972 l 29 0 m 286 368 l 428 879 l 450 879 l 592 368 l 286 368 m 351 1053 l 526 1053 l 694 1228 l 533 1228 l 450 1131 l 428 1131 l 344 1228 l 185 1228 l 351 1053 "},"Ấ":{"ha":878,"x_min":29,"x_max":847,"o":"m 29 0 l 185 0 l 249 229 l 629 229 l 693 0 l 847 0 l 571 972 l 307 972 l 29 0 m 286 368 l 428 879 l 450 879 l 592 368 l 286 368 m 185 1053 l 344 1053 l 428 1149 l 450 1149 l 533 1053 l 694 1053 l 526 1228 l 351 1228 l 185 1053 m 624 1185 l 738 1185 l 828 1364 l 688 1364 l 624 1185 "},"Ậ":{"ha":878,"x_min":29,"x_max":847,"o":"m 29 0 l 185 0 l 249 229 l 629 229 l 693 0 l 847 0 l 571 972 l 307 972 l 29 0 m 286 368 l 428 879 l 450 879 l 592 368 l 286 368 m 439 -285 q 510 -258 482 -285 q 538 -187 538 -231 q 510 -116 538 -143 q 439 -89 482 -89 q 369 -116 397 -89 q 340 -187 340 -143 q 369 -258 340 -231 q 439 -285 397 -285 m 185 1053 l 344 1053 l 428 1149 l 450 1149 l 533 1053 l 694 1053 l 526 1228 l 351 1228 l 185 1053 "},"Ầ":{"ha":878,"x_min":29,"x_max":847,"o":"m 29 0 l 185 0 l 249 229 l 629 229 l 693 0 l 847 0 l 571 972 l 307 972 l 29 0 m 286 368 l 428 879 l 450 879 l 592 368 l 286 368 m 185 1053 l 344 1053 l 428 1149 l 450 1149 l 533 1053 l 694 1053 l 526 1228 l 351 1228 l 185 1053 m 650 1185 l 764 1185 l 697 1364 l 557 1364 l 650 1185 "},"Ẩ":{"ha":878,"x_min":29,"x_max":851,"o":"m 29 0 l 185 0 l 249 229 l 629 229 l 693 0 l 847 0 l 571 972 l 307 972 l 29 0 m 286 368 l 428 879 l 450 879 l 592 368 l 286 368 m 185 1053 l 344 1053 l 428 1149 l 450 1149 l 533 1053 l 694 1053 l 526 1228 l 351 1228 l 185 1053 m 631 1188 l 732 1188 l 728 1240 q 816 1271 781 1240 q 851 1356 851 1301 q 827 1426 851 1399 q 765 1466 803 1453 q 682 1479 726 1479 q 599 1469 639 1479 q 529 1446 558 1460 l 560 1358 q 613 1378 585 1369 q 676 1386 642 1386 q 724 1375 706 1386 q 743 1340 743 1364 q 726 1307 743 1318 q 674 1296 708 1296 l 622 1296 l 631 1188 "},"Ẫ":{"ha":878,"x_min":29,"x_max":847,"o":"m 29 0 l 185 0 l 249 229 l 629 229 l 693 0 l 847 0 l 571 972 l 307 972 l 29 0 m 286 368 l 428 879 l 450 879 l 592 368 l 286 368 m 185 1053 l 344 1053 l 428 1149 l 450 1149 l 533 1053 l 694 1053 l 526 1228 l 351 1228 l 185 1053 m 275 1283 l 304 1326 q 328 1353 315 1340 q 360 1365 340 1365 q 392 1354 379 1365 q 422 1328 406 1343 q 469 1292 447 1304 q 524 1281 492 1281 q 588 1299 563 1281 q 635 1346 614 1317 l 679 1411 l 603 1468 l 572 1425 q 549 1399 561 1411 q 517 1388 538 1388 q 485 1398 499 1388 q 456 1424 471 1408 q 408 1459 431 1447 q 353 1471 386 1471 q 289 1453 315 1471 q 242 1406 263 1436 l 197 1342 l 275 1283 "},"Ȁ":{"ha":878,"x_min":29,"x_max":847,"o":"m 29 0 l 185 0 l 249 229 l 629 229 l 693 0 l 847 0 l 571 972 l 307 972 l 29 0 m 286 368 l 428 879 l 450 879 l 592 368 l 286 368 m 296 1054 l 419 1054 l 321 1229 l 164 1229 l 296 1054 m 514 1054 l 625 1054 l 549 1229 l 406 1229 l 514 1054 "},"Ạ":{"ha":878,"x_min":29,"x_max":847,"o":"m 29 0 l 185 0 l 249 229 l 629 229 l 693 0 l 847 0 l 571 972 l 307 972 l 29 0 m 286 368 l 428 879 l 450 879 l 592 368 l 286 368 m 439 -285 q 510 -258 482 -285 q 538 -187 538 -231 q 510 -116 538 -143 q 439 -89 482 -89 q 369 -116 397 -89 q 340 -187 340 -143 q 369 -258 340 -231 q 439 -285 397 -285 "},"Ả":{"ha":878,"x_min":29,"x_max":847,"o":"m 29 0 l 185 0 l 249 229 l 629 229 l 693 0 l 847 0 l 571 972 l 307 972 l 29 0 m 286 368 l 428 879 l 450 879 l 592 368 l 286 368 m 396 1039 l 497 1039 l 493 1092 q 581 1122 546 1092 q 617 1207 617 1153 q 592 1276 617 1249 q 530 1317 568 1303 q 447 1331 492 1331 q 364 1321 404 1331 q 294 1296 324 1311 l 325 1210 q 378 1229 350 1221 q 442 1238 407 1238 q 490 1226 471 1238 q 508 1190 508 1215 q 491 1158 508 1169 q 439 1147 474 1147 l 388 1147 l 396 1039 "},"Ȃ":{"ha":878,"x_min":29,"x_max":847,"o":"m 29 0 l 185 0 l 249 229 l 629 229 l 693 0 l 847 0 l 571 972 l 307 972 l 29 0 m 286 368 l 428 879 l 450 879 l 592 368 l 286 368 m 221 1056 l 342 1056 l 342 1063 q 365 1133 342 1106 q 439 1161 389 1161 q 511 1133 488 1161 q 535 1063 535 1106 l 535 1056 l 656 1056 l 656 1064 q 597 1207 656 1156 q 439 1258 539 1258 q 279 1207 338 1258 q 221 1064 221 1156 l 221 1056 "},"Ǻ":{"ha":878,"x_min":29,"x_max":847,"o":"m 29 0 l 185 0 l 249 229 l 629 229 l 693 0 l 847 0 l 571 972 l 307 972 l 29 0 m 286 368 l 428 879 l 450 879 l 592 368 l 286 368 m 421 1249 l 536 1249 l 669 1431 l 525 1431 l 421 1249 m 439 1039 q 538 1076 496 1039 q 581 1175 581 1113 q 540 1273 581 1235 q 439 1311 499 1311 q 340 1273 381 1311 q 299 1175 299 1235 q 340 1077 299 1115 q 439 1039 381 1039 m 439 1125 q 403 1139 417 1125 q 389 1175 389 1153 q 403 1211 389 1197 q 439 1225 417 1225 q 477 1211 464 1225 q 490 1175 490 1197 q 477 1139 490 1153 q 439 1125 464 1125 "},"Ƀ":{"ha":921,"x_min":65,"x_max":854,"o":"m 65 0 l 561 0 q 713 31 647 0 q 817 118 779 61 q 854 256 854 175 l 854 269 q 828 382 854 339 q 766 449 803 425 q 697 482 729 474 l 697 504 q 765 538 729 514 q 825 604 800 561 q 850 714 850 647 l 850 728 q 813 858 850 803 q 711 942 776 913 q 558 972 646 972 l 65 972 l 65 839 l 196 839 l 196 133 l 65 133 l 65 0 m 347 136 l 347 421 l 543 421 q 662 385 619 421 q 704 285 704 349 l 704 272 q 661 172 704 208 q 543 136 618 136 l 347 136 m 347 558 l 347 836 l 543 836 q 658 801 615 836 q 700 704 700 765 l 700 690 q 657 594 700 629 q 543 558 614 558 l 347 558 m 65 225 l 513 225 l 513 331 l 65 331 l 65 225 "},"Ḉ":{"ha":893,"x_min":76,"x_max":828,"o":"m 463 -19 q 733 78 638 -19 q 828 343 828 175 l 828 363 l 679 363 l 679 339 q 626 178 679 242 q 463 115 572 115 q 289 183 351 115 q 226 369 226 251 l 226 603 q 289 790 226 722 q 463 857 351 857 q 626 794 572 857 q 679 633 679 732 l 679 621 l 828 621 l 828 629 q 733 894 828 797 q 463 992 638 992 q 181 891 285 992 q 76 600 76 790 l 76 372 q 181 81 76 182 q 463 -19 285 -19 m 463 -292 q 545 -279 507 -292 q 608 -240 583 -267 q 632 -171 632 -212 q 597 -87 632 -115 q 508 -58 561 -58 l 515 29 l 414 29 l 403 -114 l 454 -114 q 506 -124 489 -114 q 524 -156 524 -133 q 505 -188 524 -178 q 457 -199 486 -199 q 394 -190 422 -199 q 340 -171 365 -182 l 310 -258 q 379 -281 339 -271 q 463 -292 419 -292 m 369 1053 l 501 1053 l 635 1228 l 465 1228 l 369 1053 "},"Ǆ":{"ha":1706,"x_min":65,"x_max":1642,"o":"m 65 0 l 454 0 q 752 98 649 0 q 856 394 856 196 l 856 576 q 752 874 856 775 q 454 972 649 972 l 65 972 l 65 839 l 196 839 l 196 133 l 65 133 l 65 0 m 347 136 l 347 835 l 456 835 q 643 772 582 835 q 704 582 704 710 l 704 390 q 643 200 704 264 q 456 136 582 136 l 347 136 m 971 0 l 1642 0 l 1642 135 l 1125 135 l 1125 154 l 1636 778 l 1636 972 l 986 972 l 986 838 l 1482 838 l 1482 818 l 971 194 l 971 0 m 1218 1053 l 1393 1053 l 1561 1228 l 1400 1228 l 1317 1131 l 1294 1131 l 1211 1228 l 1051 1228 l 1218 1053 "},"Ḍ":{"ha":924,"x_min":65,"x_max":856,"o":"m 65 0 l 454 0 q 752 98 649 0 q 856 394 856 196 l 856 576 q 752 874 856 775 q 454 972 649 972 l 65 972 l 65 839 l 196 839 l 196 133 l 65 133 l 65 0 m 347 136 l 347 835 l 456 835 q 643 772 582 835 q 704 582 704 710 l 704 390 q 643 200 704 264 q 456 136 582 136 l 347 136 m 443 -285 q 514 -258 486 -285 q 542 -187 542 -231 q 514 -116 542 -143 q 443 -89 486 -89 q 373 -116 401 -89 q 344 -187 344 -143 q 373 -258 344 -231 q 443 -285 401 -285 "},"Ḏ":{"ha":924,"x_min":65,"x_max":856,"o":"m 65 0 l 454 0 q 752 98 649 0 q 856 394 856 196 l 856 576 q 752 874 856 775 q 454 972 649 972 l 65 972 l 65 839 l 196 839 l 196 133 l 65 133 l 65 0 m 347 136 l 347 835 l 456 835 q 643 772 582 835 q 704 582 704 710 l 704 390 q 643 200 704 264 q 456 136 582 136 l 347 136 m 222 -224 l 664 -224 l 664 -108 l 222 -108 l 222 -224 "},"ǅ":{"ha":1644,"x_min":65,"x_max":1571,"o":"m 65 0 l 454 0 q 752 98 649 0 q 856 394 856 196 l 856 576 q 752 874 856 775 q 454 972 649 972 l 65 972 l 65 839 l 196 839 l 196 133 l 65 133 l 65 0 m 347 136 l 347 835 l 456 835 q 643 772 582 835 q 704 582 704 710 l 704 390 q 643 200 704 264 q 456 136 582 136 l 347 136 m 1001 0 l 1572 0 l 1572 121 l 1156 121 l 1156 139 l 1561 508 l 1561 685 l 1015 685 l 1015 564 l 1406 564 l 1406 544 l 1001 175 l 1001 0 m 1194 768 l 1367 768 l 1533 967 l 1383 967 l 1292 857 l 1269 857 l 1178 967 l 1028 967 l 1194 768 "},"Ḝ":{"ha":776,"x_min":101,"x_max":721,"o":"m 101 0 l 721 0 l 721 136 l 251 136 l 251 421 l 675 421 l 675 557 l 251 557 l 251 836 l 714 836 l 714 972 l 101 972 l 101 0 m 413 -292 q 495 -279 457 -292 q 558 -240 533 -267 q 582 -171 582 -212 q 547 -87 582 -115 q 458 -58 511 -58 l 465 29 l 364 29 l 353 -114 l 404 -114 q 456 -124 439 -114 q 474 -156 474 -133 q 455 -188 474 -178 q 407 -199 436 -199 q 344 -190 372 -199 q 290 -171 315 -182 l 260 -258 q 329 -281 289 -271 q 413 -292 369 -292 m 415 1044 q 576 1093 518 1044 q 633 1224 633 1142 l 633 1229 l 514 1229 l 514 1224 q 490 1160 514 1185 q 415 1135 465 1135 q 340 1160 364 1135 q 317 1224 317 1185 l 317 1229 l 197 1229 l 197 1224 q 255 1093 197 1142 q 415 1044 313 1044 "},"Ế":{"ha":776,"x_min":101,"x_max":803,"o":"m 101 0 l 721 0 l 721 136 l 251 136 l 251 421 l 675 421 l 675 557 l 251 557 l 251 836 l 714 836 l 714 972 l 101 972 l 101 0 m 161 1053 l 321 1053 l 404 1149 l 426 1149 l 510 1053 l 671 1053 l 503 1228 l 328 1228 l 161 1053 m 600 1185 l 714 1185 l 804 1364 l 664 1364 l 600 1185 "},"Ệ":{"ha":776,"x_min":101,"x_max":721,"o":"m 101 0 l 721 0 l 721 136 l 251 136 l 251 421 l 675 421 l 675 557 l 251 557 l 251 836 l 714 836 l 714 972 l 101 972 l 101 0 m 411 -285 q 482 -258 454 -285 q 510 -187 510 -231 q 482 -116 510 -143 q 411 -89 454 -89 q 341 -116 369 -89 q 313 -187 313 -143 q 341 -258 313 -231 q 411 -285 369 -285 m 161 1053 l 321 1053 l 404 1149 l 426 1149 l 510 1053 l 671 1053 l 503 1228 l 328 1228 l 161 1053 "},"Ề":{"ha":776,"x_min":101,"x_max":740,"o":"m 101 0 l 721 0 l 721 136 l 251 136 l 251 421 l 675 421 l 675 557 l 251 557 l 251 836 l 714 836 l 714 972 l 101 972 l 101 0 m 161 1053 l 321 1053 l 404 1149 l 426 1149 l 510 1053 l 671 1053 l 503 1228 l 328 1228 l 161 1053 m 626 1185 l 740 1185 l 674 1364 l 533 1364 l 626 1185 "},"Ể":{"ha":776,"x_min":101,"x_max":826,"o":"m 101 0 l 721 0 l 721 136 l 251 136 l 251 421 l 675 421 l 675 557 l 251 557 l 251 836 l 714 836 l 714 972 l 101 972 l 101 0 m 161 1053 l 321 1053 l 404 1149 l 426 1149 l 510 1053 l 671 1053 l 503 1228 l 328 1228 l 161 1053 m 607 1188 l 708 1188 l 704 1240 q 792 1271 757 1240 q 828 1356 828 1301 q 803 1426 828 1399 q 741 1466 779 1453 q 658 1479 703 1479 q 575 1469 615 1479 q 506 1446 535 1460 l 536 1358 q 590 1378 561 1369 q 653 1386 618 1386 q 701 1375 682 1386 q 719 1340 719 1364 q 702 1307 719 1318 q 650 1296 685 1296 l 599 1296 l 607 1188 "},"Ễ":{"ha":776,"x_min":101,"x_max":721,"o":"m 101 0 l 721 0 l 721 136 l 251 136 l 251 421 l 675 421 l 675 557 l 251 557 l 251 836 l 714 836 l 714 972 l 101 972 l 101 0 m 161 1053 l 321 1053 l 404 1149 l 426 1149 l 510 1053 l 671 1053 l 503 1228 l 328 1228 l 161 1053 m 251 1283 l 281 1326 q 304 1353 292 1340 q 336 1365 317 1365 q 369 1354 356 1365 q 399 1328 382 1343 q 446 1292 424 1304 q 500 1281 468 1281 q 565 1299 539 1281 q 611 1346 590 1317 l 656 1411 l 579 1468 l 549 1425 q 526 1399 538 1411 q 493 1388 514 1388 q 461 1398 475 1388 q 432 1424 447 1408 q 385 1459 407 1447 q 329 1471 363 1471 q 265 1453 292 1471 q 218 1406 239 1436 l 174 1342 l 251 1283 "},"Ȅ":{"ha":776,"x_min":101,"x_max":721,"o":"m 101 0 l 721 0 l 721 136 l 251 136 l 251 421 l 675 421 l 675 557 l 251 557 l 251 836 l 714 836 l 714 972 l 101 972 l 101 0 m 272 1054 l 396 1054 l 297 1229 l 140 1229 l 272 1054 m 490 1054 l 601 1054 l 525 1229 l 382 1229 l 490 1054 "},"Ẹ":{"ha":776,"x_min":101,"x_max":721,"o":"m 101 0 l 721 0 l 721 136 l 251 136 l 251 421 l 675 421 l 675 557 l 251 557 l 251 836 l 714 836 l 714 972 l 101 972 l 101 0 m 411 -285 q 482 -258 454 -285 q 510 -187 510 -231 q 482 -116 510 -143 q 411 -89 454 -89 q 341 -116 369 -89 q 313 -187 313 -143 q 341 -258 313 -231 q 411 -285 369 -285 "},"Ẻ":{"ha":776,"x_min":101,"x_max":721,"o":"m 101 0 l 721 0 l 721 136 l 251 136 l 251 421 l 675 421 l 675 557 l 251 557 l 251 836 l 714 836 l 714 972 l 101 972 l 101 0 m 372 1039 l 474 1039 l 469 1092 q 558 1122 522 1092 q 593 1207 593 1153 q 569 1276 593 1249 q 506 1317 544 1303 q 424 1331 468 1331 q 340 1321 381 1331 q 271 1296 300 1311 l 301 1210 q 355 1229 326 1221 q 418 1238 383 1238 q 466 1226 447 1238 q 485 1190 485 1215 q 467 1158 485 1169 q 415 1147 450 1147 l 364 1147 l 372 1039 "},"Ȇ":{"ha":776,"x_min":101,"x_max":721,"o":"m 101 0 l 721 0 l 721 136 l 251 136 l 251 421 l 675 421 l 675 557 l 251 557 l 251 836 l 714 836 l 714 972 l 101 972 l 101 0 m 197 1056 l 318 1056 l 318 1063 q 342 1133 318 1106 q 415 1161 365 1161 q 488 1133 464 1161 q 511 1063 511 1106 l 511 1056 l 632 1056 l 632 1064 q 574 1207 632 1156 q 415 1258 515 1258 q 256 1207 314 1258 q 197 1064 197 1156 l 197 1056 "},"Ḗ":{"ha":776,"x_min":101,"x_max":721,"o":"m 101 0 l 721 0 l 721 136 l 251 136 l 251 421 l 675 421 l 675 557 l 251 557 l 251 836 l 714 836 l 714 972 l 101 972 l 101 0 m 194 1064 l 636 1064 l 636 1179 l 194 1179 l 194 1064 m 322 1257 l 454 1257 l 588 1432 l 418 1432 l 322 1257 "},"Ḕ":{"ha":776,"x_min":101,"x_max":721,"o":"m 101 0 l 721 0 l 721 136 l 251 136 l 251 421 l 675 421 l 675 557 l 251 557 l 251 836 l 714 836 l 714 972 l 101 972 l 101 0 m 194 1064 l 636 1064 l 636 1179 l 194 1179 l 194 1064 m 376 1258 l 508 1258 l 413 1433 l 243 1433 l 376 1258 "},"Ẽ":{"ha":776,"x_min":101,"x_max":721,"o":"m 101 0 l 721 0 l 721 136 l 251 136 l 251 421 l 675 421 l 675 557 l 251 557 l 251 836 l 714 836 l 714 972 l 101 972 l 101 0 m 251 1044 l 281 1088 q 304 1114 292 1101 q 336 1126 317 1126 q 369 1115 356 1126 q 399 1089 382 1104 q 446 1053 424 1065 q 500 1042 468 1042 q 565 1060 539 1042 q 611 1107 590 1078 l 656 1172 l 579 1229 l 549 1186 q 526 1160 538 1172 q 493 1149 514 1149 q 461 1159 475 1149 q 432 1185 447 1169 q 385 1220 407 1208 q 329 1232 363 1232 q 265 1215 292 1232 q 218 1167 239 1197 l 174 1103 l 251 1044 "},"Ǧ":{"ha":918,"x_min":76,"x_max":826,"o":"m 439 -19 q 559 -1 514 -19 q 628 44 604 17 q 665 99 653 72 l 688 99 l 688 0 l 826 0 l 826 481 l 417 481 l 417 351 l 678 351 l 678 333 q 626 175 678 236 q 464 114 575 114 q 289 183 351 114 q 226 369 226 251 l 226 603 q 289 790 226 722 q 463 857 351 857 q 583 829 536 857 q 654 753 631 801 q 678 646 678 706 l 678 635 l 826 635 l 826 642 q 732 897 826 801 q 463 992 638 992 q 181 891 285 992 q 76 600 76 790 l 76 372 q 124 158 76 246 q 253 26 171 71 q 439 -19 335 -19 m 378 1053 l 553 1053 l 721 1228 l 560 1228 l 476 1131 l 454 1131 l 371 1228 l 211 1228 l 378 1053 "},"Ģ":{"ha":918,"x_min":76,"x_max":826,"o":"m 439 -19 q 559 -1 514 -19 q 628 44 604 17 q 665 99 653 72 l 688 99 l 688 0 l 826 0 l 826 481 l 417 481 l 417 351 l 678 351 l 678 333 q 626 175 678 236 q 464 114 575 114 q 289 183 351 114 q 226 369 226 251 l 226 603 q 289 790 226 722 q 463 857 351 857 q 583 829 536 857 q 654 753 631 801 q 678 646 678 706 l 678 635 l 826 635 l 826 642 q 732 897 826 801 q 463 992 638 992 q 181 891 285 992 q 76 600 76 790 l 76 372 q 124 158 76 246 q 253 26 171 71 q 439 -19 335 -19 m 393 -385 l 435 -385 q 529 -355 497 -385 q 561 -268 561 -325 l 561 -176 q 535 -103 561 -128 q 467 -78 508 -78 q 399 -101 425 -78 q 374 -164 374 -125 q 399 -226 374 -203 q 465 -250 424 -250 l 482 -250 l 482 -264 q 471 -302 482 -290 q 431 -314 460 -314 l 393 -314 l 393 -385 "},"ẞ":{"ha":892,"x_min":94,"x_max":849,"o":"m 586 -19 q 781 47 714 -19 q 849 217 849 114 q 824 328 849 283 q 758 401 799 372 q 671 450 718 431 l 617 472 q 582 492 596 482 q 568 522 568 503 q 577 553 568 540 q 600 579 586 565 l 821 782 l 821 972 l 457 972 q 268 928 350 972 q 140 800 186 885 q 94 593 94 715 l 94 0 l 246 0 l 246 599 q 276 741 246 689 q 354 816 306 793 q 457 839 403 839 l 667 839 l 667 819 l 506 672 q 442 597 464 635 q 419 510 419 558 q 446 422 419 461 q 531 357 472 382 l 596 328 q 669 285 638 310 q 700 215 700 261 q 670 143 700 171 q 586 115 640 115 q 498 145 532 115 q 464 233 464 175 l 315 233 q 388 49 315 118 q 586 -19 460 -19 "},"Ḡ":{"ha":918,"x_min":76,"x_max":826,"o":"m 439 -19 q 559 -1 514 -19 q 628 44 604 17 q 665 99 653 72 l 688 99 l 688 0 l 826 0 l 826 481 l 417 481 l 417 351 l 678 351 l 678 333 q 626 175 678 236 q 464 114 575 114 q 289 183 351 114 q 226 369 226 251 l 226 603 q 289 790 226 722 q 463 857 351 857 q 583 829 536 857 q 654 753 631 801 q 678 646 678 706 l 678 635 l 826 635 l 826 642 q 732 897 826 801 q 463 992 638 992 q 181 891 285 992 q 76 600 76 790 l 76 372 q 124 158 76 246 q 253 26 171 71 q 439 -19 335 -19 m 244 1064 l 686 1064 l 686 1179 l 244 1179 l 244 1064 "},"Ḫ":{"ha":911,"x_min":101,"x_max":810,"o":"m 101 0 l 251 0 l 251 419 l 660 419 l 660 0 l 810 0 l 810 972 l 660 972 l 660 556 l 251 556 l 251 972 l 101 972 l 101 0 m 456 -294 q 614 -243 556 -294 q 672 -100 672 -192 l 672 -92 l 551 -92 l 551 -99 q 528 -169 551 -140 q 456 -197 504 -197 q 382 -169 406 -197 q 358 -99 358 -140 l 358 -92 l 238 -92 l 238 -100 q 296 -243 238 -192 q 456 -294 354 -294 "},"Ḥ":{"ha":911,"x_min":101,"x_max":810,"o":"m 101 0 l 251 0 l 251 419 l 660 419 l 660 0 l 810 0 l 810 972 l 660 972 l 660 556 l 251 556 l 251 972 l 101 972 l 101 0 m 456 -285 q 526 -258 499 -285 q 554 -187 554 -231 q 526 -116 554 -143 q 456 -89 499 -89 q 385 -116 414 -89 q 357 -187 357 -143 q 385 -258 357 -231 q 456 -285 414 -285 "},"Ǐ":{"ha":353,"x_min":-78,"x_max":431,"o":"m 101 0 l 251 0 l 251 972 l 101 972 l 101 0 m 89 1053 l 264 1053 l 432 1228 l 271 1228 l 188 1131 l 165 1131 l 82 1228 l -78 1228 l 89 1053 "},"Ȉ":{"ha":353,"x_min":-99,"x_max":363,"o":"m 101 0 l 251 0 l 251 972 l 101 972 l 101 0 m 33 1054 l 157 1054 l 58 1229 l -99 1229 l 33 1054 m 251 1054 l 363 1054 l 286 1229 l 143 1229 l 251 1054 "},"Ḯ":{"ha":353,"x_min":-67,"x_max":421,"o":"m 101 0 l 251 0 l 251 972 l 101 972 l 101 0 m 324 1051 q 393 1078 365 1051 q 421 1149 421 1104 q 393 1219 421 1193 q 324 1246 365 1246 q 253 1219 282 1246 q 225 1149 225 1193 q 253 1078 225 1104 q 324 1051 282 1051 m 32 1051 q 101 1078 74 1051 q 129 1149 129 1104 q 101 1219 129 1193 q 32 1246 74 1246 q -38 1219 -10 1246 q -67 1149 -67 1193 q -38 1078 -67 1104 q 32 1051 -10 1051 m 83 1304 l 215 1304 l 349 1479 l 179 1479 l 83 1304 "},"Ị":{"ha":353,"x_min":78,"x_max":275,"o":"m 101 0 l 251 0 l 251 972 l 101 972 l 101 0 m 176 -285 q 247 -258 219 -285 q 275 -187 275 -231 q 247 -116 275 -143 q 176 -89 219 -89 q 106 -116 135 -89 q 78 -187 78 -143 q 106 -258 78 -231 q 176 -285 135 -285 "},"Ỉ":{"ha":353,"x_min":32,"x_max":354,"o":"m 101 0 l 251 0 l 251 972 l 101 972 l 101 0 m 133 1039 l 235 1039 l 231 1092 q 319 1122 283 1092 q 354 1207 354 1153 q 330 1276 354 1249 q 267 1317 306 1303 q 185 1331 229 1331 q 101 1321 142 1331 q 32 1296 61 1311 l 63 1210 q 116 1229 88 1221 q 179 1238 144 1238 q 227 1226 208 1238 q 246 1190 246 1215 q 228 1158 246 1169 q 176 1147 211 1147 l 125 1147 l 133 1039 "},"Ȋ":{"ha":353,"x_min":-40,"x_max":393,"o":"m 101 0 l 251 0 l 251 972 l 101 972 l 101 0 m -40 1056 l 81 1056 l 81 1063 q 104 1133 81 1106 q 178 1161 128 1161 q 250 1133 226 1161 q 274 1063 274 1106 l 274 1056 l 394 1056 l 394 1064 q 336 1207 394 1156 q 178 1258 278 1258 q 18 1207 76 1258 q -40 1064 -40 1156 l -40 1056 "},"Ķ":{"ha":858,"x_min":101,"x_max":847,"o":"m 101 0 l 251 0 l 251 413 l 274 413 l 646 0 l 847 0 l 393 493 l 832 972 l 636 972 l 274 568 l 251 568 l 251 972 l 101 972 l 101 0 m 358 -385 l 400 -385 q 494 -355 463 -385 q 526 -268 526 -325 l 526 -176 q 500 -103 526 -128 q 432 -78 474 -78 q 365 -101 390 -78 q 339 -164 339 -125 q 364 -226 339 -203 q 431 -250 389 -250 l 447 -250 l 447 -264 q 436 -302 447 -290 q 396 -314 425 -314 l 358 -314 l 358 -385 "},"Ǉ":{"ha":1592,"x_min":101,"x_max":1532,"o":"m 101 0 l 719 0 l 719 136 l 251 136 l 251 972 l 101 972 l 101 0 m 1124 -19 q 1345 60 1267 -19 q 1424 292 1424 140 l 1424 836 l 1532 836 l 1532 972 l 1104 972 l 1104 836 l 1274 836 l 1274 292 q 1236 167 1274 213 q 1121 121 1199 121 q 998 167 1040 121 q 956 292 956 214 l 956 375 l 806 375 l 806 292 q 892 62 806 143 q 1124 -19 978 -19 "},"Ļ":{"ha":756,"x_min":101,"x_max":719,"o":"m 101 0 l 719 0 l 719 136 l 251 136 l 251 972 l 101 972 l 101 0 m 336 -385 l 378 -385 q 472 -355 440 -385 q 504 -268 504 -325 l 504 -176 q 478 -103 504 -128 q 410 -78 451 -78 q 342 -101 368 -78 q 317 -164 317 -125 q 342 -226 317 -203 q 408 -250 367 -250 l 425 -250 l 425 -264 q 414 -302 425 -290 q 374 -314 403 -314 l 336 -314 l 336 -385 "},"Ḷ":{"ha":756,"x_min":101,"x_max":719,"o":"m 101 0 l 719 0 l 719 136 l 251 136 l 251 972 l 101 972 l 101 0 m 411 -285 q 482 -258 454 -285 q 510 -187 510 -231 q 482 -116 510 -143 q 411 -89 454 -89 q 341 -116 369 -89 q 313 -187 313 -143 q 341 -258 313 -231 q 411 -285 369 -285 "},"ǈ":{"ha":1113,"x_min":101,"x_max":1033,"o":"m 101 0 l 719 0 l 719 136 l 251 136 l 251 972 l 101 972 l 101 0 m 731 -278 l 869 -278 q 971 -240 935 -278 q 1007 -140 1007 -203 l 1007 685 l 864 685 l 864 -112 q 824 -154 864 -154 l 731 -154 l 731 -278 m 936 778 q 1007 805 979 778 q 1035 875 1035 832 q 1007 945 1035 918 q 936 972 979 972 q 866 945 894 972 q 838 875 838 918 q 866 805 838 832 q 936 778 894 778 "},"Ḻ":{"ha":756,"x_min":101,"x_max":719,"o":"m 101 0 l 719 0 l 719 136 l 251 136 l 251 972 l 101 972 l 101 0 m 189 -224 l 631 -224 l 631 -108 l 189 -108 l 189 -224 "},"Ṃ":{"ha":1214,"x_min":101,"x_max":1113,"o":"m 101 0 l 247 0 l 247 867 l 269 867 l 481 0 l 733 0 l 944 867 l 967 867 l 967 0 l 1113 0 l 1113 972 l 831 972 l 618 100 l 596 100 l 383 972 l 101 972 l 101 0 m 607 -285 q 678 -258 650 -285 q 706 -187 706 -231 q 678 -116 706 -143 q 607 -89 650 -89 q 537 -116 565 -89 q 508 -187 508 -143 q 537 -258 508 -231 q 607 -285 565 -285 "},"Ǌ":{"ha":1763,"x_min":101,"x_max":1703,"o":"m 101 0 l 250 0 l 250 874 l 272 874 l 536 0 l 825 0 l 825 972 l 676 972 l 676 100 l 654 100 l 390 972 l 101 972 l 101 0 m 1294 -19 q 1516 60 1438 -19 q 1594 292 1594 140 l 1594 836 l 1703 836 l 1703 972 l 1275 972 l 1275 836 l 1444 836 l 1444 292 q 1407 167 1444 213 q 1292 121 1369 121 q 1169 167 1211 121 q 1126 292 1126 214 l 1126 375 l 976 375 l 976 292 q 1063 62 976 143 q 1294 -19 1149 -19 "},"Ņ":{"ha":926,"x_min":101,"x_max":825,"o":"m 101 0 l 250 0 l 250 874 l 272 874 l 536 0 l 825 0 l 825 972 l 676 972 l 676 100 l 654 100 l 390 972 l 101 972 l 101 0 m 392 -385 l 433 -385 q 528 -355 496 -385 q 560 -268 560 -325 l 560 -176 q 533 -103 560 -128 q 465 -78 507 -78 q 398 -101 424 -78 q 372 -164 372 -125 q 397 -226 372 -203 q 464 -250 422 -250 l 481 -250 l 481 -264 q 469 -302 481 -290 q 429 -314 458 -314 l 392 -314 l 392 -385 "},"Ṅ":{"ha":926,"x_min":101,"x_max":825,"o":"m 101 0 l 250 0 l 250 874 l 272 874 l 536 0 l 825 0 l 825 972 l 676 972 l 676 100 l 654 100 l 390 972 l 101 972 l 101 0 m 464 1051 q 535 1078 507 1051 q 563 1149 563 1106 q 535 1219 563 1192 q 464 1246 507 1246 q 394 1219 422 1246 q 365 1149 365 1192 q 394 1078 365 1106 q 464 1051 422 1051 "},"Ṇ":{"ha":926,"x_min":101,"x_max":825,"o":"m 101 0 l 250 0 l 250 874 l 272 874 l 536 0 l 825 0 l 825 972 l 676 972 l 676 100 l 654 100 l 390 972 l 101 972 l 101 0 m 465 -285 q 536 -258 508 -285 q 564 -187 564 -231 q 536 -116 564 -143 q 465 -89 508 -89 q 395 -116 424 -89 q 367 -187 367 -143 q 395 -258 367 -231 q 465 -285 424 -285 "},"ǋ":{"ha":1283,"x_min":101,"x_max":1204,"o":"m 101 0 l 250 0 l 250 874 l 272 874 l 536 0 l 825 0 l 825 972 l 676 972 l 676 100 l 654 100 l 390 972 l 101 972 l 101 0 m 901 -278 l 1040 -278 q 1142 -240 1106 -278 q 1178 -140 1178 -203 l 1178 685 l 1035 685 l 1035 -112 q 994 -154 1035 -154 l 901 -154 l 901 -278 m 1107 778 q 1178 805 1150 778 q 1206 875 1206 832 q 1178 945 1206 918 q 1107 972 1150 972 q 1037 945 1065 972 q 1008 875 1008 918 q 1037 805 1008 832 q 1107 778 1065 778 "},"Ṉ":{"ha":926,"x_min":101,"x_max":825,"o":"m 101 0 l 250 0 l 250 874 l 272 874 l 536 0 l 825 0 l 825 972 l 676 972 l 676 100 l 654 100 l 390 972 l 101 972 l 101 0 m 244 -224 l 686 -224 l 686 -108 l 244 -108 l 244 -224 "},"Ǒ":{"ha":935,"x_min":76,"x_max":858,"o":"m 467 -19 q 752 81 646 -19 q 858 372 858 182 l 858 600 q 752 891 858 790 q 467 992 646 992 q 182 891 288 992 q 76 600 76 790 l 76 372 q 182 81 76 182 q 467 -19 288 -19 m 467 115 q 290 183 354 115 q 226 367 226 250 l 226 606 q 290 790 226 722 q 467 857 354 857 q 644 790 582 857 q 707 606 707 722 l 707 367 q 644 183 707 250 q 467 115 582 115 m 379 1053 l 554 1053 l 722 1228 l 561 1228 l 478 1131 l 456 1131 l 372 1228 l 213 1228 l 379 1053 "},"Ố":{"ha":935,"x_min":76,"x_max":858,"o":"m 467 -19 q 752 81 646 -19 q 858 372 858 182 l 858 600 q 752 891 858 790 q 467 992 646 992 q 182 891 288 992 q 76 600 76 790 l 76 372 q 182 81 76 182 q 467 -19 288 -19 m 467 115 q 290 183 354 115 q 226 367 226 250 l 226 606 q 290 790 226 722 q 467 857 354 857 q 644 790 582 857 q 707 606 707 722 l 707 367 q 644 183 707 250 q 467 115 582 115 m 213 1053 l 372 1053 l 456 1149 l 478 1149 l 561 1053 l 722 1053 l 554 1228 l 379 1228 l 213 1053 m 651 1185 l 765 1185 l 856 1364 l 715 1364 l 651 1185 "},"Ộ":{"ha":935,"x_min":76,"x_max":858,"o":"m 467 -19 q 752 81 646 -19 q 858 372 858 182 l 858 600 q 752 891 858 790 q 467 992 646 992 q 182 891 288 992 q 76 600 76 790 l 76 372 q 182 81 76 182 q 467 -19 288 -19 m 467 115 q 290 183 354 115 q 226 367 226 250 l 226 606 q 290 790 226 722 q 467 857 354 857 q 644 790 582 857 q 707 606 707 722 l 707 367 q 644 183 707 250 q 467 115 582 115 m 467 -285 q 538 -258 510 -285 q 565 -187 565 -231 q 538 -116 565 -143 q 467 -89 510 -89 q 397 -116 425 -89 q 368 -187 368 -143 q 397 -258 368 -231 q 467 -285 425 -285 m 213 1053 l 372 1053 l 456 1149 l 478 1149 l 561 1053 l 722 1053 l 554 1228 l 379 1228 l 213 1053 "},"Ồ":{"ha":935,"x_min":76,"x_max":858,"o":"m 467 -19 q 752 81 646 -19 q 858 372 858 182 l 858 600 q 752 891 858 790 q 467 992 646 992 q 182 891 288 992 q 76 600 76 790 l 76 372 q 182 81 76 182 q 467 -19 288 -19 m 467 115 q 290 183 354 115 q 226 367 226 250 l 226 606 q 290 790 226 722 q 467 857 354 857 q 644 790 582 857 q 707 606 707 722 l 707 367 q 644 183 707 250 q 467 115 582 115 m 213 1053 l 372 1053 l 456 1149 l 478 1149 l 561 1053 l 722 1053 l 554 1228 l 379 1228 l 213 1053 m 679 1185 l 793 1185 l 726 1364 l 586 1364 l 679 1185 "},"Ổ":{"ha":935,"x_min":76,"x_max":879,"o":"m 467 -19 q 752 81 646 -19 q 858 372 858 182 l 858 600 q 752 891 858 790 q 467 992 646 992 q 182 891 288 992 q 76 600 76 790 l 76 372 q 182 81 76 182 q 467 -19 288 -19 m 467 115 q 290 183 354 115 q 226 367 226 250 l 226 606 q 290 790 226 722 q 467 857 354 857 q 644 790 582 857 q 707 606 707 722 l 707 367 q 644 183 707 250 q 467 115 582 115 m 213 1053 l 372 1053 l 456 1149 l 478 1149 l 561 1053 l 722 1053 l 554 1228 l 379 1228 l 213 1053 m 658 1188 l 760 1188 l 756 1240 q 844 1271 808 1240 q 879 1356 879 1301 q 855 1426 879 1399 q 792 1466 831 1453 q 710 1479 754 1479 q 626 1469 667 1479 q 557 1446 586 1460 l 588 1358 q 641 1378 613 1369 q 704 1386 669 1386 q 752 1375 733 1386 q 771 1340 771 1364 q 753 1307 771 1318 q 701 1296 736 1296 l 650 1296 l 658 1188 "},"Ỗ":{"ha":935,"x_min":76,"x_max":858,"o":"m 467 -19 q 752 81 646 -19 q 858 372 858 182 l 858 600 q 752 891 858 790 q 467 992 646 992 q 182 891 288 992 q 76 600 76 790 l 76 372 q 182 81 76 182 q 467 -19 288 -19 m 467 115 q 290 183 354 115 q 226 367 226 250 l 226 606 q 290 790 226 722 q 467 857 354 857 q 644 790 582 857 q 707 606 707 722 l 707 367 q 644 183 707 250 q 467 115 582 115 m 213 1053 l 372 1053 l 456 1149 l 478 1149 l 561 1053 l 722 1053 l 554 1228 l 379 1228 l 213 1053 m 304 1283 l 333 1326 q 357 1353 344 1340 q 389 1365 369 1365 q 422 1354 408 1365 q 451 1328 435 1343 q 499 1292 476 1304 q 553 1281 521 1281 q 617 1299 592 1281 q 664 1346 643 1317 l 708 1411 l 632 1468 l 601 1425 q 578 1399 590 1411 q 546 1388 567 1388 q 514 1398 528 1388 q 485 1424 500 1408 q 438 1459 460 1447 q 382 1471 415 1471 q 318 1453 344 1471 q 271 1406 292 1436 l 226 1342 l 304 1283 "},"Ȍ":{"ha":935,"x_min":76,"x_max":858,"o":"m 467 -19 q 752 81 646 -19 q 858 372 858 182 l 858 600 q 752 891 858 790 q 467 992 646 992 q 182 891 288 992 q 76 600 76 790 l 76 372 q 182 81 76 182 q 467 -19 288 -19 m 467 115 q 290 183 354 115 q 226 367 226 250 l 226 606 q 290 790 226 722 q 467 857 354 857 q 644 790 582 857 q 707 606 707 722 l 707 367 q 644 183 707 250 q 467 115 582 115 m 324 1054 l 447 1054 l 349 1229 l 192 1229 l 324 1054 m 542 1054 l 653 1054 l 576 1229 l 433 1229 l 542 1054 "},"Ȫ":{"ha":935,"x_min":76,"x_max":858,"o":"m 467 -19 q 752 81 646 -19 q 858 372 858 182 l 858 600 q 752 891 858 790 q 467 992 646 992 q 182 891 288 992 q 76 600 76 790 l 76 372 q 182 81 76 182 q 467 -19 288 -19 m 467 115 q 290 183 354 115 q 226 367 226 250 l 226 606 q 290 790 226 722 q 467 857 354 857 q 644 790 582 857 q 707 606 707 722 l 707 367 q 644 183 707 250 q 467 115 582 115 m 614 1051 q 683 1078 656 1051 q 711 1149 711 1104 q 683 1219 711 1193 q 614 1246 656 1246 q 544 1219 572 1246 q 515 1149 515 1193 q 544 1078 515 1104 q 614 1051 572 1051 m 322 1051 q 392 1078 364 1051 q 419 1149 419 1104 q 392 1219 419 1193 q 322 1246 364 1246 q 252 1219 281 1246 q 224 1149 224 1193 q 252 1078 224 1104 q 322 1051 281 1051 m 246 1315 l 688 1315 l 688 1431 l 246 1431 l 246 1315 "},"Ȱ":{"ha":935,"x_min":76,"x_max":858,"o":"m 467 -19 q 752 81 646 -19 q 858 372 858 182 l 858 600 q 752 891 858 790 q 467 992 646 992 q 182 891 288 992 q 76 600 76 790 l 76 372 q 182 81 76 182 q 467 -19 288 -19 m 467 115 q 290 183 354 115 q 226 367 226 250 l 226 606 q 290 790 226 722 q 467 857 354 857 q 644 790 582 857 q 707 606 707 722 l 707 367 q 644 183 707 250 q 467 115 582 115 m 467 1051 q 538 1078 510 1051 q 565 1149 565 1106 q 538 1219 565 1192 q 467 1246 510 1246 q 397 1219 425 1246 q 368 1149 368 1192 q 397 1078 368 1106 q 467 1051 425 1051 m 246 1301 l 688 1301 l 688 1417 l 246 1417 l 246 1301 "},"Ọ":{"ha":935,"x_min":76,"x_max":858,"o":"m 467 -19 q 752 81 646 -19 q 858 372 858 182 l 858 600 q 752 891 858 790 q 467 992 646 992 q 182 891 288 992 q 76 600 76 790 l 76 372 q 182 81 76 182 q 467 -19 288 -19 m 467 115 q 290 183 354 115 q 226 367 226 250 l 226 606 q 290 790 226 722 q 467 857 354 857 q 644 790 582 857 q 707 606 707 722 l 707 367 q 644 183 707 250 q 467 115 582 115 m 467 -285 q 538 -258 510 -285 q 565 -187 565 -231 q 538 -116 565 -143 q 467 -89 510 -89 q 397 -116 425 -89 q 368 -187 368 -143 q 397 -258 368 -231 q 467 -285 425 -285 "},"Ω":{"ha":861,"x_min":64,"x_max":797,"o":"m 64 0 l 376 0 l 376 158 q 281 210 314 175 q 238 299 249 246 q 226 428 226 353 l 226 607 q 280 794 226 729 q 431 860 333 860 q 581 794 528 860 q 635 607 635 729 l 635 428 q 624 299 635 353 q 580 210 613 246 q 485 158 547 175 l 485 0 l 797 0 l 797 129 l 656 129 l 656 150 q 746 244 711 183 q 781 411 781 306 l 781 606 q 740 809 781 722 q 622 944 700 896 q 431 992 543 992 q 240 944 318 992 q 122 809 163 896 q 81 606 81 722 l 81 411 q 116 245 81 307 q 206 150 151 183 l 206 129 l 64 129 l 64 0 "},"Ỏ":{"ha":935,"x_min":76,"x_max":858,"o":"m 467 -19 q 752 81 646 -19 q 858 372 858 182 l 858 600 q 752 891 858 790 q 467 992 646 992 q 182 891 288 992 q 76 600 76 790 l 76 372 q 182 81 76 182 q 467 -19 288 -19 m 467 115 q 290 183 354 115 q 226 367 226 250 l 226 606 q 290 790 226 722 q 467 857 354 857 q 644 790 582 857 q 707 606 707 722 l 707 367 q 644 183 707 250 q 467 115 582 115 m 425 1039 l 526 1039 l 522 1092 q 610 1122 575 1092 q 646 1207 646 1153 q 622 1276 646 1249 q 559 1317 597 1303 q 476 1331 521 1331 q 393 1321 433 1331 q 324 1296 353 1311 l 354 1210 q 408 1229 379 1221 q 471 1238 436 1238 q 519 1226 500 1238 q 538 1190 538 1215 q 520 1158 538 1169 q 468 1147 503 1147 l 417 1147 l 425 1039 "},"Ơ":{"ha":949,"x_min":76,"x_max":922,"o":"m 467 -19 q 752 81 646 -19 q 858 372 858 182 l 858 600 q 752 891 858 790 q 467 992 646 992 q 182 891 288 992 q 76 600 76 790 l 76 372 q 182 81 76 182 q 467 -19 288 -19 m 467 115 q 290 183 354 115 q 226 367 226 250 l 226 606 q 290 790 226 722 q 467 857 354 857 q 644 790 582 857 q 707 606 707 722 l 707 367 q 644 183 707 250 q 467 115 582 115 m 729 826 q 834 844 790 826 q 901 908 878 863 q 924 1031 924 953 l 924 1096 l 789 1096 l 789 1036 q 762 945 789 969 q 675 919 735 921 l 729 826 "},"Ớ":{"ha":949,"x_min":76,"x_max":922,"o":"m 467 -19 q 752 81 646 -19 q 858 372 858 182 l 858 600 q 752 891 858 790 q 467 992 646 992 q 182 891 288 992 q 76 600 76 790 l 76 372 q 182 81 76 182 q 467 -19 288 -19 m 467 115 q 290 183 354 115 q 226 367 226 250 l 226 606 q 290 790 226 722 q 467 857 354 857 q 644 790 582 857 q 707 606 707 722 l 707 367 q 644 183 707 250 q 467 115 582 115 m 729 826 q 834 844 790 826 q 901 908 878 863 q 924 1031 924 953 l 924 1096 l 789 1096 l 789 1036 q 762 945 789 969 q 675 919 735 921 l 729 826 m 374 1053 l 506 1053 l 639 1228 l 469 1228 l 374 1053 "},"Ợ":{"ha":949,"x_min":76,"x_max":922,"o":"m 467 -19 q 752 81 646 -19 q 858 372 858 182 l 858 600 q 752 891 858 790 q 467 992 646 992 q 182 891 288 992 q 76 600 76 790 l 76 372 q 182 81 76 182 q 467 -19 288 -19 m 467 115 q 290 183 354 115 q 226 367 226 250 l 226 606 q 290 790 226 722 q 467 857 354 857 q 644 790 582 857 q 707 606 707 722 l 707 367 q 644 183 707 250 q 467 115 582 115 m 729 826 q 834 844 790 826 q 901 908 878 863 q 924 1031 924 953 l 924 1096 l 789 1096 l 789 1036 q 762 945 789 969 q 675 919 735 921 l 729 826 m 467 -285 q 538 -258 510 -285 q 565 -187 565 -231 q 538 -116 565 -143 q 467 -89 510 -89 q 397 -116 425 -89 q 368 -187 368 -143 q 397 -258 368 -231 q 467 -285 425 -285 "},"Ờ":{"ha":949,"x_min":76,"x_max":922,"o":"m 467 -19 q 752 81 646 -19 q 858 372 858 182 l 858 600 q 752 891 858 790 q 467 992 646 992 q 182 891 288 992 q 76 600 76 790 l 76 372 q 182 81 76 182 q 467 -19 288 -19 m 467 115 q 290 183 354 115 q 226 367 226 250 l 226 606 q 290 790 226 722 q 467 857 354 857 q 644 790 582 857 q 707 606 707 722 l 707 367 q 644 183 707 250 q 467 115 582 115 m 729 826 q 834 844 790 826 q 901 908 878 863 q 924 1031 924 953 l 924 1096 l 789 1096 l 789 1036 q 762 945 789 969 q 675 919 735 921 l 729 826 m 429 1054 l 561 1054 l 465 1229 l 296 1229 l 429 1054 "},"Ở":{"ha":949,"x_min":76,"x_max":922,"o":"m 467 -19 q 752 81 646 -19 q 858 372 858 182 l 858 600 q 752 891 858 790 q 467 992 646 992 q 182 891 288 992 q 76 600 76 790 l 76 372 q 182 81 76 182 q 467 -19 288 -19 m 467 115 q 290 183 354 115 q 226 367 226 250 l 226 606 q 290 790 226 722 q 467 857 354 857 q 644 790 582 857 q 707 606 707 722 l 707 367 q 644 183 707 250 q 467 115 582 115 m 729 826 q 834 844 790 826 q 901 908 878 863 q 924 1031 924 953 l 924 1096 l 789 1096 l 789 1036 q 762 945 789 969 q 675 919 735 921 l 729 826 m 425 1039 l 526 1039 l 522 1092 q 610 1122 575 1092 q 646 1207 646 1153 q 622 1276 646 1249 q 559 1317 597 1303 q 476 1331 521 1331 q 393 1321 433 1331 q 324 1296 353 1311 l 354 1210 q 408 1229 379 1221 q 471 1238 436 1238 q 519 1226 500 1238 q 538 1190 538 1215 q 520 1158 538 1169 q 468 1147 503 1147 l 417 1147 l 425 1039 "},"Ỡ":{"ha":949,"x_min":76,"x_max":922,"o":"m 467 -19 q 752 81 646 -19 q 858 372 858 182 l 858 600 q 752 891 858 790 q 467 992 646 992 q 182 891 288 992 q 76 600 76 790 l 76 372 q 182 81 76 182 q 467 -19 288 -19 m 467 115 q 290 183 354 115 q 226 367 226 250 l 226 606 q 290 790 226 722 q 467 857 354 857 q 644 790 582 857 q 707 606 707 722 l 707 367 q 644 183 707 250 q 467 115 582 115 m 729 826 q 834 844 790 826 q 901 908 878 863 q 924 1031 924 953 l 924 1096 l 789 1096 l 789 1036 q 762 945 789 969 q 675 919 735 921 l 729 826 m 304 1044 l 333 1088 q 357 1114 344 1101 q 389 1126 369 1126 q 422 1115 408 1126 q 451 1089 435 1104 q 499 1053 476 1065 q 553 1042 521 1042 q 617 1060 592 1042 q 664 1107 643 1078 l 708 1172 l 632 1229 l 601 1186 q 578 1160 590 1172 q 546 1149 567 1149 q 514 1159 528 1149 q 485 1185 500 1169 q 438 1220 460 1208 q 382 1232 415 1232 q 318 1215 344 1232 q 271 1167 292 1197 l 226 1103 l 304 1044 "},"Ȏ":{"ha":935,"x_min":76,"x_max":858,"o":"m 467 -19 q 752 81 646 -19 q 858 372 858 182 l 858 600 q 752 891 858 790 q 467 992 646 992 q 182 891 288 992 q 76 600 76 790 l 76 372 q 182 81 76 182 q 467 -19 288 -19 m 467 115 q 290 183 354 115 q 226 367 226 250 l 226 606 q 290 790 226 722 q 467 857 354 857 q 644 790 582 857 q 707 606 707 722 l 707 367 q 644 183 707 250 q 467 115 582 115 m 250 1056 l 371 1056 l 371 1063 q 394 1133 371 1106 q 468 1161 418 1161 q 540 1133 517 1161 q 564 1063 564 1106 l 564 1056 l 685 1056 l 685 1064 q 626 1207 685 1156 q 468 1258 568 1258 q 308 1207 367 1258 q 250 1064 250 1156 l 250 1056 "},"Ṓ":{"ha":935,"x_min":76,"x_max":858,"o":"m 467 -19 q 752 81 646 -19 q 858 372 858 182 l 858 600 q 752 891 858 790 q 467 992 646 992 q 182 891 288 992 q 76 600 76 790 l 76 372 q 182 81 76 182 q 467 -19 288 -19 m 467 115 q 290 183 354 115 q 226 367 226 250 l 226 606 q 290 790 226 722 q 467 857 354 857 q 644 790 582 857 q 707 606 707 722 l 707 367 q 644 183 707 250 q 467 115 582 115 m 246 1064 l 688 1064 l 688 1179 l 246 1179 l 246 1064 m 374 1257 l 506 1257 l 639 1432 l 469 1432 l 374 1257 "},"Ṑ":{"ha":935,"x_min":76,"x_max":858,"o":"m 467 -19 q 752 81 646 -19 q 858 372 858 182 l 858 600 q 752 891 858 790 q 467 992 646 992 q 182 891 288 992 q 76 600 76 790 l 76 372 q 182 81 76 182 q 467 -19 288 -19 m 467 115 q 290 183 354 115 q 226 367 226 250 l 226 606 q 290 790 226 722 q 467 857 354 857 q 644 790 582 857 q 707 606 707 722 l 707 367 q 644 183 707 250 q 467 115 582 115 m 246 1064 l 688 1064 l 688 1179 l 246 1179 l 246 1064 m 429 1258 l 561 1258 l 465 1433 l 296 1433 l 429 1258 "},"Ǫ":{"ha":935,"x_min":76,"x_max":858,"o":"m 467 -19 q 752 81 646 -19 q 858 372 858 182 l 858 600 q 752 891 858 790 q 467 992 646 992 q 182 891 288 992 q 76 600 76 790 l 76 372 q 182 81 76 182 q 467 -19 288 -19 m 467 115 q 290 183 354 115 q 226 367 226 250 l 226 606 q 290 790 226 722 q 467 857 354 857 q 644 790 582 857 q 707 606 707 722 l 707 367 q 644 183 707 250 q 467 115 582 115 m 514 -232 l 610 -232 l 610 -131 l 549 -131 q 517 -101 517 -131 q 519 -83 517 -92 q 522 -62 521 -74 l 539 24 l 442 24 l 424 -51 q 415 -96 418 -74 q 411 -139 411 -118 q 440 -207 411 -182 q 514 -232 468 -232 "},"Ǿ":{"ha":935,"x_min":76,"x_max":858,"o":"m 467 -19 q 752 81 646 -19 q 858 372 858 182 l 858 600 q 752 891 858 790 q 467 992 646 992 q 182 891 288 992 q 76 600 76 790 l 76 372 q 182 81 76 182 q 467 -19 288 -19 m 467 115 q 290 183 354 115 q 226 367 226 250 l 226 606 q 290 790 226 722 q 467 857 354 857 q 644 790 582 857 q 707 606 707 722 l 707 367 q 644 183 707 250 q 467 115 582 115 m 281 -125 l 751 1040 l 654 1081 l 183 -85 l 281 -125 m 374 1053 l 506 1053 l 639 1228 l 469 1228 l 374 1053 "},"Ṍ":{"ha":935,"x_min":76,"x_max":858,"o":"m 467 -19 q 752 81 646 -19 q 858 372 858 182 l 858 600 q 752 891 858 790 q 467 992 646 992 q 182 891 288 992 q 76 600 76 790 l 76 372 q 182 81 76 182 q 467 -19 288 -19 m 467 115 q 290 183 354 115 q 226 367 226 250 l 226 606 q 290 790 226 722 q 467 857 354 857 q 644 790 582 857 q 707 606 707 722 l 707 367 q 644 183 707 250 q 467 115 582 115 m 304 1044 l 333 1088 q 357 1114 344 1101 q 389 1126 369 1126 q 422 1115 408 1126 q 451 1089 435 1104 q 499 1053 476 1065 q 553 1042 521 1042 q 617 1060 592 1042 q 664 1107 643 1078 l 708 1172 l 632 1229 l 601 1186 q 578 1160 590 1172 q 546 1149 567 1149 q 514 1159 528 1149 q 485 1185 500 1169 q 438 1220 460 1208 q 382 1232 415 1232 q 318 1215 344 1232 q 271 1167 292 1197 l 226 1103 l 304 1044 m 374 1276 l 506 1276 l 639 1451 l 469 1451 l 374 1276 "},"Ṏ":{"ha":935,"x_min":76,"x_max":858,"o":"m 467 -19 q 752 81 646 -19 q 858 372 858 182 l 858 600 q 752 891 858 790 q 467 992 646 992 q 182 891 288 992 q 76 600 76 790 l 76 372 q 182 81 76 182 q 467 -19 288 -19 m 467 115 q 290 183 354 115 q 226 367 226 250 l 226 606 q 290 790 226 722 q 467 857 354 857 q 644 790 582 857 q 707 606 707 722 l 707 367 q 644 183 707 250 q 467 115 582 115 m 304 1044 l 333 1088 q 357 1114 344 1101 q 389 1126 369 1126 q 422 1115 408 1126 q 451 1089 435 1104 q 499 1053 476 1065 q 553 1042 521 1042 q 617 1060 592 1042 q 664 1107 643 1078 l 708 1172 l 632 1229 l 601 1186 q 578 1160 590 1172 q 546 1149 567 1149 q 514 1159 528 1149 q 485 1185 500 1169 q 438 1220 460 1208 q 382 1232 415 1232 q 318 1215 344 1232 q 271 1167 292 1197 l 226 1103 l 304 1044 m 614 1275 q 683 1301 656 1275 q 711 1372 711 1328 q 683 1443 711 1417 q 614 1469 656 1469 q 544 1443 572 1469 q 515 1372 515 1417 q 544 1301 515 1328 q 614 1275 572 1275 m 322 1275 q 392 1301 364 1275 q 419 1372 419 1328 q 392 1443 419 1417 q 322 1469 364 1469 q 252 1443 281 1469 q 224 1372 224 1417 q 252 1301 224 1328 q 322 1275 281 1275 "},"Ȭ":{"ha":935,"x_min":76,"x_max":858,"o":"m 467 -19 q 752 81 646 -19 q 858 372 858 182 l 858 600 q 752 891 858 790 q 467 992 646 992 q 182 891 288 992 q 76 600 76 790 l 76 372 q 182 81 76 182 q 467 -19 288 -19 m 467 115 q 290 183 354 115 q 226 367 226 250 l 226 606 q 290 790 226 722 q 467 857 354 857 q 644 790 582 857 q 707 606 707 722 l 707 367 q 644 183 707 250 q 467 115 582 115 m 304 1044 l 333 1088 q 357 1114 344 1101 q 389 1126 369 1126 q 422 1115 408 1126 q 451 1089 435 1104 q 499 1053 476 1065 q 553 1042 521 1042 q 617 1060 592 1042 q 664 1107 643 1078 l 708 1172 l 632 1229 l 601 1186 q 578 1160 590 1172 q 546 1149 567 1149 q 514 1159 528 1149 q 485 1185 500 1169 q 438 1220 460 1208 q 382 1232 415 1232 q 318 1215 344 1232 q 271 1167 292 1197 l 226 1103 l 304 1044 m 246 1288 l 688 1288 l 688 1403 l 246 1403 l 246 1288 "},"Ŗ":{"ha":878,"x_min":101,"x_max":814,"o":"m 101 0 l 251 0 l 251 383 l 547 383 q 610 361 590 383 q 629 301 629 339 l 629 0 l 781 0 l 781 322 q 749 416 781 383 q 664 451 717 449 l 664 474 q 770 551 726 496 q 814 697 814 606 l 814 713 q 776 851 814 793 q 669 941 738 910 q 510 972 600 972 l 101 972 l 101 0 m 251 519 l 251 836 l 493 836 q 619 795 575 836 q 663 683 663 754 l 663 672 q 618 560 663 601 q 493 519 574 519 l 251 519 m 364 -385 l 406 -385 q 500 -355 468 -385 q 532 -268 532 -325 l 532 -176 q 506 -103 532 -128 q 438 -78 479 -78 q 370 -101 396 -78 q 344 -164 344 -125 q 369 -226 344 -203 q 436 -250 394 -250 l 453 -250 l 453 -264 q 442 -302 453 -290 q 401 -314 431 -314 l 364 -314 l 364 -385 "},"Ȑ":{"ha":878,"x_min":101,"x_max":814,"o":"m 101 0 l 251 0 l 251 383 l 547 383 q 610 361 590 383 q 629 301 629 339 l 629 0 l 781 0 l 781 322 q 749 416 781 383 q 664 451 717 449 l 664 474 q 770 551 726 496 q 814 697 814 606 l 814 713 q 776 851 814 793 q 669 941 738 910 q 510 972 600 972 l 101 972 l 101 0 m 251 519 l 251 836 l 493 836 q 619 795 575 836 q 663 683 663 754 l 663 672 q 618 560 663 601 q 493 519 574 519 l 251 519 m 279 1054 l 403 1054 l 304 1229 l 147 1229 l 279 1054 m 497 1054 l 608 1054 l 532 1229 l 389 1229 l 497 1054 "},"Ṛ":{"ha":878,"x_min":101,"x_max":814,"o":"m 101 0 l 251 0 l 251 383 l 547 383 q 610 361 590 383 q 629 301 629 339 l 629 0 l 781 0 l 781 322 q 749 416 781 383 q 664 451 717 449 l 664 474 q 770 551 726 496 q 814 697 814 606 l 814 713 q 776 851 814 793 q 669 941 738 910 q 510 972 600 972 l 101 972 l 101 0 m 251 519 l 251 836 l 493 836 q 619 795 575 836 q 663 683 663 754 l 663 672 q 618 560 663 601 q 493 519 574 519 l 251 519 m 438 -285 q 508 -258 481 -285 q 536 -187 536 -231 q 508 -116 536 -143 q 438 -89 481 -89 q 367 -116 396 -89 q 339 -187 339 -143 q 367 -258 339 -231 q 438 -285 396 -285 "},"Ȓ":{"ha":878,"x_min":101,"x_max":814,"o":"m 101 0 l 251 0 l 251 383 l 547 383 q 610 361 590 383 q 629 301 629 339 l 629 0 l 781 0 l 781 322 q 749 416 781 383 q 664 451 717 449 l 664 474 q 770 551 726 496 q 814 697 814 606 l 814 713 q 776 851 814 793 q 669 941 738 910 q 510 972 600 972 l 101 972 l 101 0 m 251 519 l 251 836 l 493 836 q 619 795 575 836 q 663 683 663 754 l 663 672 q 618 560 663 601 q 493 519 574 519 l 251 519 m 206 1056 l 326 1056 l 326 1063 q 350 1133 326 1106 q 424 1161 374 1161 q 496 1133 472 1161 q 519 1063 519 1106 l 519 1056 l 640 1056 l 640 1064 q 582 1207 640 1156 q 424 1258 524 1258 q 264 1207 322 1258 q 206 1064 206 1156 l 206 1056 "},"Ṟ":{"ha":878,"x_min":101,"x_max":814,"o":"m 101 0 l 251 0 l 251 383 l 547 383 q 610 361 590 383 q 629 301 629 339 l 629 0 l 781 0 l 781 322 q 749 416 781 383 q 664 451 717 449 l 664 474 q 770 551 726 496 q 814 697 814 606 l 814 713 q 776 851 814 793 q 669 941 738 910 q 510 972 600 972 l 101 972 l 101 0 m 251 519 l 251 836 l 493 836 q 619 795 575 836 q 663 683 663 754 l 663 672 q 618 560 663 601 q 493 519 574 519 l 251 519 m 217 -224 l 658 -224 l 658 -108 l 217 -108 l 217 -224 "},"Ṥ":{"ha":846,"x_min":57,"x_max":790,"o":"m 432 -19 q 622 17 542 -19 q 747 119 703 54 q 790 272 790 185 q 749 415 790 360 q 635 503 707 471 q 468 557 563 536 l 417 569 q 313 601 354 583 q 249 648 271 619 q 228 721 228 676 q 277 823 228 786 q 415 860 326 860 q 522 842 476 860 q 594 785 568 824 q 619 683 619 746 l 619 633 l 768 633 l 768 683 q 722 854 768 786 q 597 957 676 922 q 415 992 517 992 q 239 958 314 992 q 122 864 164 925 q 79 717 79 803 q 117 578 79 632 q 223 491 154 524 q 385 436 292 458 l 436 424 q 546 391 500 408 q 617 344 592 374 q 642 269 642 315 q 589 156 642 200 q 432 113 536 113 q 267 164 329 113 q 206 318 206 215 l 206 353 l 57 353 l 57 318 q 105 134 57 210 q 238 19 153 58 q 432 -19 322 -19 m 447 1060 l 579 1060 l 713 1235 l 543 1235 l 447 1060 m 301 1051 q 372 1078 344 1051 q 400 1149 400 1106 q 372 1219 400 1192 q 301 1246 344 1246 q 231 1219 260 1246 q 203 1149 203 1192 q 231 1078 203 1106 q 301 1051 260 1051 "},"Ṧ":{"ha":846,"x_min":57,"x_max":790,"o":"m 432 -19 q 622 17 542 -19 q 747 119 703 54 q 790 272 790 185 q 749 415 790 360 q 635 503 707 471 q 468 557 563 536 l 417 569 q 313 601 354 583 q 249 648 271 619 q 228 721 228 676 q 277 823 228 786 q 415 860 326 860 q 522 842 476 860 q 594 785 568 824 q 619 683 619 746 l 619 633 l 768 633 l 768 683 q 722 854 768 786 q 597 957 676 922 q 415 992 517 992 q 239 958 314 992 q 122 864 164 925 q 79 717 79 803 q 117 578 79 632 q 223 491 154 524 q 385 436 292 458 l 436 424 q 546 391 500 408 q 617 344 592 374 q 642 269 642 315 q 589 156 642 200 q 432 113 536 113 q 267 164 329 113 q 206 318 206 215 l 206 353 l 57 353 l 57 318 q 105 134 57 210 q 238 19 153 58 q 432 -19 322 -19 m 333 1053 l 508 1053 l 676 1228 l 515 1228 l 432 1131 l 410 1131 l 326 1228 l 167 1228 l 333 1053 m 421 1263 q 492 1290 464 1263 q 519 1360 519 1317 q 492 1430 519 1403 q 421 1457 464 1457 q 351 1430 379 1457 q 322 1360 322 1403 q 351 1290 322 1317 q 421 1263 379 1263 "},"Ə":{"ha":904,"x_min":76,"x_max":828,"o":"m 451 -19 q 728 78 628 -19 q 828 357 828 176 l 828 628 q 729 898 828 804 q 451 992 631 992 q 175 899 274 992 q 76 643 76 807 l 76 639 l 225 639 l 225 643 q 281 799 225 740 q 451 857 338 857 q 620 797 564 857 q 676 631 676 738 l 676 350 q 621 176 676 238 q 451 115 565 115 q 281 176 336 115 q 225 350 225 238 l 225 385 l 676 385 l 676 521 l 76 521 l 76 357 q 175 78 76 176 q 451 -19 274 -19 "},"Ș":{"ha":846,"x_min":57,"x_max":790,"o":"m 432 -19 q 622 17 542 -19 q 747 119 703 54 q 790 272 790 185 q 749 415 790 360 q 635 503 707 471 q 468 557 563 536 l 417 569 q 313 601 354 583 q 249 648 271 619 q 228 721 228 676 q 277 823 228 786 q 415 860 326 860 q 522 842 476 860 q 594 785 568 824 q 619 683 619 746 l 619 633 l 768 633 l 768 683 q 722 854 768 786 q 597 957 676 922 q 415 992 517 992 q 239 958 314 992 q 122 864 164 925 q 79 717 79 803 q 117 578 79 632 q 223 491 154 524 q 385 436 292 458 l 436 424 q 546 391 500 408 q 617 344 592 374 q 642 269 642 315 q 589 156 642 200 q 432 113 536 113 q 267 164 329 113 q 206 318 206 215 l 206 353 l 57 353 l 57 318 q 105 134 57 210 q 238 19 153 58 q 432 -19 322 -19 m 365 -385 l 407 -385 q 501 -355 469 -385 q 533 -268 533 -325 l 533 -176 q 507 -103 533 -128 q 439 -78 481 -78 q 372 -101 397 -78 q 346 -164 346 -125 q 371 -226 346 -203 q 438 -250 396 -250 l 454 -250 l 454 -264 q 443 -302 454 -290 q 403 -314 432 -314 l 365 -314 l 365 -385 "},"Ṡ":{"ha":846,"x_min":57,"x_max":790,"o":"m 432 -19 q 622 17 542 -19 q 747 119 703 54 q 790 272 790 185 q 749 415 790 360 q 635 503 707 471 q 468 557 563 536 l 417 569 q 313 601 354 583 q 249 648 271 619 q 228 721 228 676 q 277 823 228 786 q 415 860 326 860 q 522 842 476 860 q 594 785 568 824 q 619 683 619 746 l 619 633 l 768 633 l 768 683 q 722 854 768 786 q 597 957 676 922 q 415 992 517 992 q 239 958 314 992 q 122 864 164 925 q 79 717 79 803 q 117 578 79 632 q 223 491 154 524 q 385 436 292 458 l 436 424 q 546 391 500 408 q 617 344 592 374 q 642 269 642 315 q 589 156 642 200 q 432 113 536 113 q 267 164 329 113 q 206 318 206 215 l 206 353 l 57 353 l 57 318 q 105 134 57 210 q 238 19 153 58 q 432 -19 322 -19 m 421 1051 q 492 1078 464 1051 q 519 1149 519 1106 q 492 1219 519 1192 q 421 1246 464 1246 q 351 1219 379 1246 q 322 1149 322 1192 q 351 1078 322 1106 q 421 1051 379 1051 "},"Ṣ":{"ha":846,"x_min":57,"x_max":790,"o":"m 432 -19 q 622 17 542 -19 q 747 119 703 54 q 790 272 790 185 q 749 415 790 360 q 635 503 707 471 q 468 557 563 536 l 417 569 q 313 601 354 583 q 249 648 271 619 q 228 721 228 676 q 277 823 228 786 q 415 860 326 860 q 522 842 476 860 q 594 785 568 824 q 619 683 619 746 l 619 633 l 768 633 l 768 683 q 722 854 768 786 q 597 957 676 922 q 415 992 517 992 q 239 958 314 992 q 122 864 164 925 q 79 717 79 803 q 117 578 79 632 q 223 491 154 524 q 385 436 292 458 l 436 424 q 546 391 500 408 q 617 344 592 374 q 642 269 642 315 q 589 156 642 200 q 432 113 536 113 q 267 164 329 113 q 206 318 206 215 l 206 353 l 57 353 l 57 318 q 105 134 57 210 q 238 19 153 58 q 432 -19 322 -19 m 440 -285 q 511 -258 483 -285 q 539 -187 539 -231 q 511 -116 539 -143 q 440 -89 483 -89 q 370 -116 399 -89 q 342 -187 342 -143 q 370 -258 342 -231 q 440 -285 399 -285 "},"Ṩ":{"ha":846,"x_min":57,"x_max":790,"o":"m 432 -19 q 622 17 542 -19 q 747 119 703 54 q 790 272 790 185 q 749 415 790 360 q 635 503 707 471 q 468 557 563 536 l 417 569 q 313 601 354 583 q 249 648 271 619 q 228 721 228 676 q 277 823 228 786 q 415 860 326 860 q 522 842 476 860 q 594 785 568 824 q 619 683 619 746 l 619 633 l 768 633 l 768 683 q 722 854 768 786 q 597 957 676 922 q 415 992 517 992 q 239 958 314 992 q 122 864 164 925 q 79 717 79 803 q 117 578 79 632 q 223 491 154 524 q 385 436 292 458 l 436 424 q 546 391 500 408 q 617 344 592 374 q 642 269 642 315 q 589 156 642 200 q 432 113 536 113 q 267 164 329 113 q 206 318 206 215 l 206 353 l 57 353 l 57 318 q 105 134 57 210 q 238 19 153 58 q 432 -19 322 -19 m 440 -285 q 511 -258 483 -285 q 539 -187 539 -231 q 511 -116 539 -143 q 440 -89 483 -89 q 370 -116 399 -89 q 342 -187 342 -143 q 370 -258 342 -231 q 440 -285 399 -285 m 421 1051 q 492 1078 464 1051 q 519 1149 519 1106 q 492 1219 519 1192 q 421 1246 464 1246 q 351 1219 379 1246 q 322 1149 322 1192 q 351 1078 322 1106 q 421 1051 379 1051 "},"Ţ":{"ha":817,"x_min":35,"x_max":782,"o":"m 333 0 l 483 0 l 483 836 l 782 836 l 782 972 l 35 972 l 35 836 l 333 836 l 333 0 m 411 -292 q 494 -279 456 -292 q 556 -240 532 -267 q 581 -171 581 -212 q 545 -87 581 -115 q 457 -58 510 -58 l 464 29 l 363 29 l 351 -114 l 403 -114 q 455 -124 438 -114 q 472 -156 472 -133 q 453 -188 472 -178 q 406 -199 435 -199 q 342 -190 371 -199 q 289 -171 314 -182 l 258 -258 q 328 -281 288 -271 q 411 -292 368 -292 "}}}
